<?xml version="1.0" encoding="utf-8"?>
<svg viewBox="-1.182 2.798 792.033 255.152" width="792.033" height="255.152" xmlns="http://www.w3.org/2000/svg">
  <defs/>
  <path d="M 476.818 142.803 C 478.138 143.133 479.458 143.463 480.818 143.803 C 485.768 165.913 490.718 188.023 495.818 210.803 C 496.148 211.793 496.478 212.783 496.818 213.803 C 504.243 179.153 504.243 179.153 511.818 143.803 C 512.148 143.473 512.478 143.143 512.818 142.803 C 517.108 142.803 521.398 142.803 525.818 142.803 C 525.488 145.773 525.158 148.743 524.818 151.803 C 517.888 186.783 510.958 221.763 503.818 257.803 C 499.198 257.803 494.578 257.803 489.818 257.803 C 487.508 247.243 485.198 236.683 482.818 225.803 C 477.208 199.403 471.598 173.003 465.818 145.803 C 465.818 145.143 465.818 144.483 465.818 143.803 C 471.263 143.308 471.263 143.308 476.818 142.803 Z" style="fill: #000000;" transform="matrix(1, 0, 0, 1, 7.105427357601002e-15, 0)"/>
  <path d="M 447.818 142.803 C 451.778 142.803 455.738 142.803 459.818 142.803 C 460.313 143.298 460.313 143.298 460.818 143.803 C 460.818 173.833 460.818 203.863 460.818 234.803 C 459.498 238.433 458.178 242.063 456.818 245.803 C 454.838 248.113 452.858 250.423 450.818 252.803 C 448.178 254.123 445.538 255.443 442.818 256.803 C 441.828 257.133 440.838 257.463 439.818 257.803 C 434.538 257.803 429.258 257.803 423.818 257.803 C 420.848 256.483 417.878 255.163 414.818 253.803 C 412.838 252.153 410.858 250.503 408.818 248.803 C 406.838 244.843 404.858 240.883 402.818 236.803 C 402.488 235.483 402.158 234.163 401.818 232.803 C 401.488 214.983 401.158 197.163 400.818 178.803 C 400.818 167.253 400.818 155.703 400.818 143.803 C 405.438 143.803 410.058 143.803 414.818 143.803 C 415.148 172.843 415.478 201.883 415.818 231.803 C 416.808 234.113 417.798 236.423 418.818 238.803 C 420.468 240.123 422.118 241.443 423.818 242.803 C 425.303 243.298 425.303 243.298 426.818 243.803 C 430.118 243.803 433.418 243.803 436.818 243.803 C 438.798 242.483 440.778 241.163 442.818 239.803 C 443.808 238.153 444.798 236.503 445.818 234.803 C 446.148 229.523 446.478 224.243 446.818 218.803 C 446.818 194.053 446.818 169.303 446.818 143.803 C 447.148 143.473 447.478 143.143 447.818 142.803 Z" style="fill: #000000;" transform="matrix(1, 0, 0, 1, 7.105427357601002e-15, 0)"/>
  <path d="M 334.818 143.66 L 394.818 143.027 L 394.818 155.803 L 371.8 156.075 C 371.8 185.445 371.905 257.95 371.905 257.95 C 367.945 257.95 362.898 257.803 358.818 257.803 C 358.488 225.133 357.783 156.541 357.783 156.541 L 334.77 156.882 C 334.77 152.922 334.818 143.66 334.818 143.66 Z" style="fill: #000000;" transform="matrix(1, 0, 0, 1, 7.105427357601002e-15, 0)"/>
  <path d="M 597.818 142.803 C 602.768 142.803 607.718 142.803 612.818 142.803 C 617.768 154.023 628.414 177.852 628.414 177.852 C 628.414 177.852 638.058 154.703 642.818 142.803 C 647.768 142.803 652.718 142.803 657.818 142.803 C 656.828 145.773 636.32 198.781 636.32 198.781 L 658.031 257.137 C 658.031 257.137 648.366 256.988 644.286 256.988 C 644.286 256.988 635.888 235.983 628.818 217.803 C 625.188 226.383 612.818 256.803 612.818 256.803 L 598.621 256.803 C 598.621 256.803 614.358 215.123 620.818 198.803 C 618.343 192.368 598.498 144.843 597.818 142.803 Z" style="fill: #000000;" transform="matrix(1, 0, 0, 1, 7.105427357601002e-15, 0)"/>
  <path d="M 533.818 142.803 C 538.108 143.133 542.398 143.463 546.818 143.803 C 547.478 151.393 548.138 158.983 548.818 166.803 C 549.478 174.393 550.138 181.983 550.818 189.803 C 554.118 174.953 557.418 160.103 560.818 144.803 C 561.478 144.473 562.138 144.143 562.818 143.803 C 566.778 158.983 570.738 174.163 574.818 189.803 C 575.148 183.533 575.478 177.263 575.818 170.803 C 576.148 162.553 576.478 154.303 576.818 145.803 C 577.148 144.813 577.478 143.823 577.818 142.803 C 582.438 142.803 587.058 142.803 591.818 142.803 C 591.488 153.033 591.158 163.263 590.818 173.803 C 589.828 197.233 588.838 220.663 587.818 244.803 C 587.323 250.743 587.323 250.743 586.818 256.803 C 582.198 256.803 577.578 256.803 572.818 256.803 C 569.848 243.273 566.878 229.743 563.818 215.803 C 563.488 214.813 563.158 213.823 562.818 212.803 C 559.848 227.323 556.878 241.843 553.818 256.803 C 553.488 257.133 553.158 257.463 552.818 257.803 C 548.858 257.803 544.898 257.803 540.818 257.803 C 540.158 251.533 539.498 245.263 538.818 238.803 C 536.838 211.743 534.858 184.683 532.818 156.803 C 532.818 152.513 532.818 148.223 532.818 143.803 C 533.148 143.473 533.478 143.143 533.818 142.803 Z" style="fill: #000000;" transform="matrix(1, 0, 0, 1, 7.105427357601002e-15, 0)"/>
  <path d="M 295.818 141.803 C 300.768 142.793 300.768 142.793 305.818 143.803 C 308.458 145.123 311.098 146.443 313.818 147.803 C 316.458 150.773 319.098 153.743 321.818 156.803 C 322.808 159.443 323.798 162.083 324.818 164.803 C 324.818 167.113 324.818 169.423 324.818 171.803 C 320.528 171.803 316.238 171.803 311.818 171.803 C 311.158 169.163 310.498 166.523 309.818 163.803 C 308.498 162.153 307.178 160.503 305.818 158.803 C 303.343 157.813 303.343 157.813 300.818 156.803 C 297.848 156.803 294.878 156.803 291.818 156.803 C 290.168 157.793 288.518 158.783 286.818 159.803 C 285.828 161.123 284.838 162.443 283.818 163.803 C 283.488 164.793 283.158 165.783 282.818 166.803 C 282.818 170.103 282.818 173.403 282.818 176.803 C 284.138 179.443 285.458 182.083 286.818 184.803 C 289.458 186.123 292.098 187.443 294.818 188.803 C 299.108 189.463 303.398 190.123 307.818 190.803 C 310.458 192.453 313.098 194.103 315.818 195.803 C 318.128 198.443 320.438 201.083 322.818 203.803 C 324.138 207.433 325.458 211.063 326.818 214.803 C 326.818 218.103 326.818 221.403 326.818 224.803 C 325.828 228.763 324.838 232.723 323.818 236.803 C 321.838 240.103 319.858 243.403 317.818 246.803 C 315.178 249.113 312.538 251.423 309.818 253.803 C 306.518 255.123 303.218 256.443 299.818 257.803 C 296.188 257.473 292.558 257.143 288.818 256.803 C 285.518 255.153 282.218 253.503 278.818 251.803 C 276.508 249.163 274.198 246.523 271.818 243.803 C 270.168 239.843 268.518 235.883 266.818 231.803 C 266.818 230.153 266.818 228.503 266.818 226.803 C 271.438 226.803 276.058 226.803 280.818 226.803 C 281.808 229.773 282.798 232.743 283.818 235.803 C 285.798 237.453 287.778 239.103 289.818 240.803 C 290.478 241.133 291.138 241.463 291.818 241.803 C 295.118 241.803 298.418 241.803 301.818 241.803 C 303.798 240.483 305.778 239.163 307.818 237.803 C 308.808 235.823 309.798 233.843 310.818 231.803 C 311.313 229.823 311.313 229.823 311.818 227.803 C 311.818 223.843 311.818 219.883 311.818 215.803 C 310.828 213.163 309.838 210.523 308.818 207.803 C 307.168 206.483 305.518 205.163 303.818 203.803 C 300.848 203.143 297.878 202.483 294.818 201.803 C 291.848 201.143 288.878 200.483 285.818 199.803 C 283.178 197.823 280.538 195.843 277.818 193.803 C 275.838 191.163 273.858 188.523 271.818 185.803 C 270.333 180.358 270.333 180.358 268.818 174.803 C 268.818 172.493 268.818 170.183 268.818 167.803 C 269.808 164.503 270.798 161.203 271.818 157.803 C 273.798 155.163 275.778 152.523 277.818 149.803 C 280.128 148.153 282.438 146.503 284.818 144.803 C 288.448 143.813 292.078 142.823 295.818 141.803 Z" style="fill: #000000;" transform="matrix(1, 0, 0, 1, 7.105427357601002e-15, 0)"/>
  <path d="M 771.818 140.803 C 776.768 140.803 781.718 140.803 786.818 140.803 C 787.478 142.123 788.138 143.443 788.818 144.803 C 788.818 148.103 788.818 151.403 788.818 154.803 C 783.208 166.353 777.598 177.903 771.818 189.803 C 762.413 209.108 762.413 209.108 752.818 228.803 C 750.838 232.763 748.858 236.723 746.818 240.803 C 767.113 241.298 767.113 241.298 787.818 241.803 C 788.148 242.133 788.478 242.463 788.818 242.803 C 788.818 247.093 788.818 251.383 788.818 255.803 C 788.488 256.133 788.158 256.463 787.818 256.803 C 769.008 256.803 750.198 256.803 730.818 256.803 C 731.148 251.523 731.478 246.243 731.818 240.803 C 736.768 230.573 741.718 220.343 746.818 209.803 C 750.448 202.213 754.078 194.623 757.818 186.803 C 762.438 177.233 767.058 167.663 771.818 157.803 C 772.313 156.318 772.313 156.318 772.818 154.803 C 758.958 154.803 743.682 154.803 729.402 154.803 L 728.818 141.803 C 743.008 141.473 757.198 141.143 771.818 140.803 Z" style="fill: #000000;" transform="matrix(1, 0, 0, 1, 7.105427357601002e-15, 0)"/>
  <path d="M 665.818 141.803 C 670.108 141.803 674.398 141.803 678.818 141.803 C 682.283 147.743 693.818 169.803 693.818 169.803 C 693.818 169.803 694.571 171.718 694.565 171.829 C 695.225 171.829 695.138 171.803 695.818 171.803 C 696.808 168.833 697.798 165.863 698.818 162.803 C 701.788 156.203 704.758 149.603 707.818 142.803 C 708.148 142.473 708.478 142.143 708.818 141.803 C 713.438 141.803 718.058 141.803 722.818 141.803 C 722.488 143.453 722.158 145.103 721.818 146.803 C 716.538 158.353 703.838 186.423 702.818 188.803 C 702.488 210.583 702.158 234.319 701.818 256.759 C 701.818 256.759 690.198 256.803 687.818 256.803 C 687.488 234.363 687.158 211.923 686.818 188.803 C 679.888 174.943 663.733 141.836 663.733 141.836 L 665.818 141.803 Z" style="fill: #000000;" transform="matrix(1, 0, 0, 1, 7.105427357601002e-15, 0)"/>
  <path d="M 199.818 140.803 C 211.368 140.803 222.918 140.803 234.818 140.803 C 237.458 141.793 240.098 142.783 242.818 143.803 C 247.273 147.268 247.273 147.268 251.818 150.803 C 253.798 153.773 253.798 153.773 255.818 156.803 C 256.808 160.103 257.798 163.403 258.818 166.803 C 258.818 172.413 258.818 178.023 258.818 183.803 C 257.498 186.113 256.178 188.423 254.818 190.803 C 252.838 193.278 252.838 193.278 250.818 195.803 C 248.178 197.783 245.538 199.763 242.818 201.803 C 242.158 201.803 241.498 201.803 240.818 201.803 C 244.118 211.703 247.418 221.603 250.818 231.803 C 253.458 239.723 256.098 247.643 258.818 255.803 C 253.868 255.803 248.918 255.803 243.818 255.803 C 238.868 240.953 238.868 240.953 233.818 225.803 C 231.508 219.203 229.198 212.603 226.818 205.803 C 226.818 205.143 226.818 204.483 226.818 203.803 C 223.848 203.803 220.878 203.803 217.818 203.803 C 216.498 203.473 215.178 203.143 213.818 202.803 C 213.488 218.973 213.158 235.143 212.818 251.803 C 212.488 253.123 212.158 254.443 211.818 255.803 C 207.858 255.803 203.898 255.803 199.818 255.803 C 199.818 217.853 199.818 179.903 199.818 140.803 Z M 212.818 152.803 C 212.818 165.343 212.818 177.883 212.818 190.803 C 219.748 190.803 226.678 190.803 233.818 190.803 C 235.798 189.813 237.778 188.823 239.818 187.803 C 242.293 184.833 242.293 184.833 244.818 181.803 C 245.313 180.318 245.313 180.318 245.818 178.803 C 245.818 175.173 245.818 171.543 245.818 167.803 C 244.828 165.163 243.838 162.523 242.818 159.803 C 241.168 158.153 239.518 156.503 237.818 154.803 C 236.168 154.143 234.518 153.483 232.818 152.803 C 226.218 152.803 219.618 152.803 212.818 152.803 Z" style="fill: #000000;" transform="matrix(1, 0, 0, 1, 7.105427357601002e-15, 0)"/>
  <path d="M 67.818 140.803 C 79.368 140.803 90.918 140.803 102.818 140.803 C 106.118 142.123 109.418 143.443 112.818 144.803 C 115.458 147.113 118.098 149.423 120.818 151.803 C 122.138 154.443 123.458 157.083 124.818 159.803 C 125.478 164.093 126.138 168.383 126.818 172.803 C 126.158 176.763 125.498 180.723 124.818 184.803 C 123.498 187.443 122.178 190.083 120.818 192.803 C 118.178 195.113 115.538 197.423 112.818 199.803 C 110.508 200.793 108.198 201.783 105.818 202.803 C 97.898 203.133 81.762 203.141 81.762 203.141 C 81.432 219.971 81.381 238.465 81.041 255.805 L 67.869 255.71 C 67.869 218.09 67.818 179.563 67.818 140.803 Z M 100.818 152.803 C 96.528 152.803 81.691 152.803 81.691 152.803 C 81.691 165.013 81.818 178.223 81.818 190.803 C 88.748 190.803 95.678 190.803 102.818 190.803 C 105.128 189.483 107.438 188.163 109.818 186.803 C 111.138 184.493 112.458 182.183 113.818 179.803 C 113.818 175.513 113.818 171.223 113.818 166.803 C 112.498 164.163 111.178 161.523 109.818 158.803 C 108.498 157.483 107.178 156.163 105.818 154.803 C 104.168 154.143 102.518 153.483 100.818 152.803 Z" style="fill: #000000;" transform="matrix(1, 0, 0, 1, 7.105427357601002e-15, 0)"/>
  <path d="M 1.818 140.803 C 6.438 140.803 11.058 140.803 15.818 140.803 C 21.428 154.333 39.253 197.148 45.818 212.803 C 46.148 204.223 47.478 148.963 47.818 140.803 C 52.438 140.803 57.058 140.803 61.818 140.803 C 61.818 153.343 61.158 228.963 60.818 254.803 C 60.488 255.133 60.158 255.463 59.818 255.803 C 55.528 255.803 51.238 255.803 46.818 255.803 C 39.558 237.983 18.274 187.534 15.554 180.734 C 15.224 193.274 15.158 243.563 14.818 255.803 C 10.528 255.803 6.238 255.803 1.818 255.803 C 1.818 217.853 1.818 179.903 1.818 140.803 Z" style="fill: #000000;" transform="matrix(1, 0, 0, 1, 7.105427357601002e-15, 0)"/>
  <path d="M 159.818 139.803 C 162.788 140.133 165.758 140.463 168.818 140.803 C 172.118 142.123 175.418 143.443 178.818 144.803 C 181.458 146.783 184.098 148.763 186.818 150.803 C 189.293 154.763 189.293 154.763 191.818 158.803 C 192.313 160.288 192.313 160.288 192.818 161.803 C 192.818 179.293 192.818 196.783 192.818 214.803 C 192.488 221.403 192.158 228.003 191.818 234.803 C 191.57 241.846 189.159 244.398 186.818 246.803 C 189.293 250.268 192.616 255.28 192.616 255.62 C 188.986 255.95 184.558 255.463 180.818 255.803 L 177.626 251.896 C 170.886 254.098 172.744 254.85 159.818 255.803 C 156.848 255.143 153.878 254.483 150.818 253.803 C 147.848 251.823 144.878 249.843 141.818 247.803 C 139.838 244.833 137.858 241.863 135.818 238.803 C 134.828 235.503 133.838 232.203 132.818 228.803 C 133.148 207.023 133.478 185.243 133.818 162.803 C 135.138 159.503 136.458 156.203 137.818 152.803 C 139.468 150.823 141.118 148.843 142.818 146.803 C 146.778 144.823 150.738 142.843 154.818 140.803 C 156.468 140.473 158.118 140.143 159.818 139.803 Z M 159.818 151.803 C 154.868 154.773 154.868 154.773 149.818 157.803 C 148.828 159.453 147.838 161.103 146.818 162.803 C 146.488 166.433 146.158 170.063 145.818 173.803 C 145.818 186.013 145.818 198.223 145.818 210.803 C 146.148 217.733 146.007 224.663 146.347 231.803 C 149.005 245.429 166.06 244.578 168.982 240.05 C 164.362 231.8 152.498 213.163 151.818 211.803 C 158.253 211.308 163.583 210.999 163.583 210.999 C 163.583 210.999 173.418 228.023 176.818 233.803 C 177.808 232.813 180.006 231.477 179.818 226.803 C 179.818 213.603 179.818 200.403 179.818 186.803 C 179.323 174.428 179.323 174.428 178.818 161.803 C 176.838 159.493 174.858 157.183 172.818 154.803 C 170.178 153.813 167.538 152.823 164.818 151.803 C 163.168 151.803 161.518 151.803 159.818 151.803 Z" style="fill: #000000;" transform="matrix(1, 0, 0, 1, 7.105427357601002e-15, 0)"/>
  <path d="M 732.357 4.837 C 732.357 4.837 741.398 4.803 745.818 4.803 C 749.118 11.073 761.568 37.872 761.568 37.872 L 777.948 5.33 L 790.851 5.447 C 790.851 30.197 790.797 110.429 790.457 125.389 C 786.167 125.389 781.238 124.803 776.818 124.803 C 776.818 95.763 776.818 66.723 776.818 36.803 C 769.393 50.168 769.393 50.168 761.818 63.803 C 761.818 63.803 751.238 46.983 746.818 37.803 C 746.488 66.183 746.158 94.563 745.818 123.803 C 741.198 123.803 736.578 123.803 731.818 123.803 C 731.818 84.863 732.357 4.837 732.357 4.837 Z" style="fill: #000000;" transform="matrix(1, 0, 0, 1, 7.105427357601002e-15, 0)"/>
  <path d="M 666.818 4.803 C 671.438 4.803 676.058 4.803 680.818 4.803 C 680.818 39.783 680.818 74.763 680.818 110.803 C 695.338 110.803 725.709 111.067 725.709 111.067 L 725.851 124.185 C 725.851 124.185 670.898 124.143 666.818 123.803 C 666.818 84.533 666.818 45.263 666.818 4.803 Z" style="fill: #000000;" transform="matrix(1, 0, 0, 1, 7.105427357601002e-15, 0)"/>
  <path d="M 601.818 3.803 C 606.108 3.803 615.814 3.851 615.814 3.851 C 616.144 21.011 615.671 57.533 615.671 57.533 C 615.671 57.533 626.718 37.663 631.818 27.803 C 635.118 21.863 643.798 5.843 644.818 3.803 C 649.768 4.133 655.087 3.937 660.187 4.277 C 659.197 6.587 641.367 40.45 640.007 43.17 C 640.502 47.13 659.598 123.782 659.598 123.782 C 655.638 123.782 650.898 123.803 646.818 123.803 C 645.828 120.833 630.695 63.854 630.19 63.349 C 625.57 71.599 615.818 87.616 615.818 87.616 L 615.862 123.803 C 615.862 123.803 605.578 123.803 600.818 123.803 C 600.818 99.713 601.478 19.783 601.818 3.803 Z" style="fill: #000000;" transform="matrix(1, 0, 0, 1, 7.105427357601002e-15, 0)"/>
  <path d="M 581.818 3.803 C 586.108 3.803 590.398 3.803 594.818 3.803 C 594.818 35.483 594.818 67.163 594.818 99.803 C 592.838 104.753 592.838 104.753 590.818 109.803 C 588.838 112.443 586.858 115.083 584.818 117.803 C 581.848 119.453 578.878 121.103 575.818 122.803 C 573.343 123.298 573.343 123.298 570.818 123.803 C 566.858 123.803 562.898 123.803 558.818 123.803 C 555.518 122.483 552.218 121.163 548.818 119.803 C 546.838 118.153 544.858 116.503 542.818 114.803 C 540.838 111.503 538.858 108.203 536.818 104.803 C 535.828 101.833 535.828 101.833 534.818 98.803 C 535.148 97.153 535.478 95.503 535.818 93.803 C 540.108 94.133 544.398 94.463 548.818 94.803 C 549.808 97.443 550.798 100.083 551.818 102.803 C 553.468 104.453 555.118 106.103 556.818 107.803 C 558.468 108.463 560.118 109.123 561.818 109.803 C 564.458 109.803 567.098 109.803 569.818 109.803 C 571.798 108.483 573.778 107.163 575.818 105.803 C 577.138 103.823 578.458 101.843 579.818 99.803 C 580.148 97.493 580.478 95.183 580.818 92.803 C 580.818 85.213 580.818 77.623 580.818 69.803 C 581.148 48.023 581.478 26.243 581.818 3.803 Z" style="fill: #000000;" transform="matrix(1, 0, 0, 1, 7.105427357601002e-15, 0)"/>
  <path d="M 469.818 3.803 C 473.778 3.803 477.738 3.803 481.818 3.803 C 482.148 4.133 482.478 4.463 482.818 4.803 C 482.818 22.293 482.818 39.783 482.818 57.803 C 493.378 57.803 503.938 57.803 514.818 57.803 C 514.818 39.983 514.818 22.163 514.818 3.803 C 519.438 3.803 524.058 3.803 528.818 3.803 C 528.818 43.403 528.818 83.003 528.818 123.803 C 524.198 123.803 519.578 123.803 514.818 123.803 C 514.818 106.313 514.818 88.823 514.818 70.803 C 498.978 71.298 498.978 71.298 482.818 71.803 C 482.488 88.963 482.158 106.123 481.818 123.803 C 477.528 123.803 473.238 123.803 468.818 123.803 C 468.818 84.533 468.818 45.263 468.818 4.803 C 469.148 4.473 469.478 4.143 469.818 3.803 Z" style="fill: #000000;" transform="matrix(1, 0, 0, 1, 7.105427357601002e-15, 0)"/>
  <path d="M 427.818 3.803 C 430.788 3.803 433.758 3.803 436.818 3.803 C 440.448 5.123 444.078 6.443 447.818 7.803 C 449.798 9.123 451.778 10.443 453.818 11.803 C 455.798 14.443 457.778 17.083 459.818 19.803 C 460.808 22.773 461.798 25.743 462.818 28.803 C 462.818 30.123 462.818 31.443 462.818 32.803 C 458.528 32.803 454.238 32.803 449.818 32.803 C 448.498 29.833 447.178 26.863 445.818 23.803 C 444.168 22.153 442.518 20.503 440.818 18.803 C 439.828 18.473 438.838 18.143 437.818 17.803 C 435.178 17.803 432.538 17.803 429.818 17.803 C 427.838 18.793 425.858 19.783 423.818 20.803 C 422.168 22.783 420.518 24.763 418.818 26.803 C 418.488 27.793 418.158 28.783 417.818 29.803 C 417.818 52.903 417.818 76.003 417.818 99.803 C 419.798 103.268 419.798 103.268 421.818 106.803 C 423.468 107.793 425.118 108.783 426.818 109.803 C 430.448 109.803 434.078 109.803 437.818 109.803 C 439.798 108.483 441.778 107.163 443.818 105.803 C 445.138 103.493 446.458 101.183 447.818 98.803 C 448.148 87.913 448.478 77.023 448.818 65.803 C 441.888 65.803 434.958 65.803 427.818 65.803 C 427.818 60.853 427.818 55.903 427.818 50.803 C 439.038 50.803 450.258 50.803 461.818 50.803 C 462.148 51.133 462.478 51.463 462.818 51.803 C 462.818 63.683 462.818 75.563 462.818 87.803 C 462.488 92.093 462.158 96.383 461.818 100.803 C 459.838 104.763 457.858 108.723 455.818 112.803 C 454.168 114.453 452.518 116.103 450.818 117.803 C 448.178 119.453 445.538 121.103 442.818 122.803 C 440.838 123.298 440.838 123.298 438.818 123.803 C 435.188 123.803 431.558 123.803 427.818 123.803 C 424.518 122.813 421.218 121.823 417.818 120.803 C 415.508 119.153 413.198 117.503 410.818 115.803 C 409.168 113.493 407.518 111.183 405.818 108.803 C 404.828 105.833 404.828 105.833 403.818 102.803 C 403.323 92.408 403.323 92.408 402.818 81.803 C 403.148 63.983 403.478 46.163 403.818 27.803 C 404.808 24.833 405.798 21.863 406.818 18.803 C 409.788 15.503 412.758 12.203 415.818 8.803 C 418.458 7.483 421.098 6.163 423.818 4.803 C 425.138 4.473 426.458 4.143 427.818 3.803 Z" style="fill: #000000;" transform="matrix(1, 0, 0, 1, 7.105427357601002e-15, 0)"/>
  <path d="M 159.818 3.803 C 162.788 3.803 165.758 3.803 168.818 3.803 C 173.273 5.783 173.273 5.783 177.818 7.803 C 180.458 10.113 183.098 12.423 185.818 14.803 C 188.293 19.753 188.293 19.753 190.818 24.803 C 191.313 30.248 191.313 30.248 191.818 35.803 C 187.858 35.803 183.898 35.803 179.818 35.803 C 178.498 32.173 177.178 28.543 175.818 24.803 C 173.343 21.833 173.343 21.833 170.818 18.803 C 168.838 18.143 166.858 17.483 164.818 16.803 C 160.363 17.298 160.363 17.298 155.818 17.803 C 154.168 18.793 152.518 19.783 150.818 20.803 C 149.498 23.113 148.178 25.423 146.818 27.803 C 146.818 51.233 146.818 74.663 146.818 98.803 C 148.798 102.268 148.798 102.268 150.818 105.803 C 154.118 107.123 157.418 108.443 160.818 109.803 C 163.458 109.473 166.098 109.143 168.818 108.803 C 170.468 107.813 172.118 106.823 173.818 105.803 C 175.138 102.833 176.458 99.863 177.818 96.803 C 178.148 92.513 178.478 88.223 178.818 83.803 C 183.108 83.803 187.398 83.803 191.818 83.803 C 192.148 85.453 192.478 87.103 192.818 88.803 C 192.158 92.763 191.498 96.723 190.818 100.803 C 188.838 104.763 186.858 108.723 184.818 112.803 C 182.508 114.783 180.198 116.763 177.818 118.803 C 175.838 119.793 173.858 120.783 171.818 121.803 C 169.838 122.298 169.838 122.298 167.818 122.803 C 163.858 122.803 159.898 122.803 155.818 122.803 C 152.848 121.813 149.878 120.823 146.818 119.803 C 142.858 116.338 142.858 116.338 138.818 112.803 C 137.168 109.503 135.518 106.203 133.818 102.803 C 133.488 101.483 133.158 100.163 132.818 98.803 C 132.488 77.353 132.158 55.903 131.818 33.803 C 132.478 30.503 133.138 27.203 133.818 23.803 C 135.798 20.503 137.778 17.203 139.818 13.803 C 141.798 12.153 143.778 10.503 145.818 8.803 C 148.788 7.483 151.758 6.163 154.818 4.803 C 156.468 4.473 158.118 4.143 159.818 3.803 Z" style="fill: #000000;" transform="matrix(1, 0, 0, 1, 7.105427357601002e-15, 0)"/>
  <path d="M 67.818 3.803 C 79.368 3.803 90.918 3.803 102.818 3.803 C 109.457 4.743 116.19 8.598 120.473 14.321 C 124.671 19.929 126.053 24.623 126.118 32.126 C 127.817 47.03 119.364 56.903 115.519 58.175 C 116.527 60.875 120.5 62.785 122.809 68.935 C 128.006 82.779 126.963 90.336 124.592 103.475 C 122.852 113.116 115.144 120.76 101.672 123.015 L 67.526 123.113 C 67.526 123.113 67.478 36.103 67.818 3.803 Z M 79.818 16.803 C 79.818 27.693 79.818 39.459 79.818 50.679 C 81.798 51.009 96.247 50.647 101.345 50.803 C 113.632 51.179 114.616 35.884 114.641 33.235 C 114.641 30.925 111.655 17.181 100.818 16.803 C 93.888 16.803 86.958 16.803 79.818 16.803 Z M 81.818 63.803 C 81.488 78.323 80.712 109.123 81.052 109.803 C 87.652 109.803 103.606 110.904 105.061 108.581 C 110.369 104.569 115.008 98.261 114.746 86.395 C 114.746 83.425 114.955 68.238 103.851 63.894 C 103.851 63.894 87.258 63.803 81.818 63.803 Z" style="fill: #000000;" transform="matrix(1, 0, 0, 1, 7.105427357601002e-15, 0)"/>
  <path d="M 336.818 2.803 C 356.288 2.803 375.758 2.803 395.818 2.803 C 395.818 7.093 395.818 11.383 395.818 15.803 C 380.968 15.803 366.118 15.803 350.818 15.803 C 350.818 28.673 350.818 41.543 350.818 54.803 C 363.358 54.803 375.898 54.803 388.818 54.803 C 389.148 55.133 389.478 55.463 389.818 55.803 C 389.818 59.763 389.818 63.723 389.818 67.803 C 389.488 68.133 389.158 68.463 388.818 68.803 C 376.278 68.803 363.738 68.803 350.818 68.803 C 350.818 86.623 350.818 104.443 350.818 122.803 C 346.198 122.803 341.578 122.803 336.818 122.803 C 336.818 83.203 336.818 43.603 336.818 2.803 Z" style="fill: #000000;" transform="matrix(1, 0, 0, 1, 7.105427357601002e-15, 0)"/>
  <path d="M 264.818 2.803 L 321.818 2.803 L 321.818 15.803 L 278.818 15.803 L 278.912 52.747 L 314.818 52.803 L 314.818 67.803 C 314.818 67.803 291.058 67.803 278.818 67.803 C 278.818 81.333 278.818 108.803 278.818 108.803 L 323.818 108.803 L 323.818 121.803 L 264.818 121.803 L 264.818 2.803 Z" style="fill: #000000;" transform="matrix(1, 0, 0, 1, 7.105427357601002e-15, 0)"/>
  <path d="M 199.818 2.803 C 210.708 2.803 221.598 2.803 232.818 2.803 C 236.448 4.123 240.078 5.443 243.818 6.803 C 246.458 9.113 249.098 11.423 251.818 13.803 C 254.293 17.763 254.293 17.763 256.818 21.803 C 257.313 23.288 257.313 23.288 257.818 24.803 C 258.148 33.383 258.478 41.963 258.818 50.803 C 258.488 67.303 258.158 83.803 257.818 100.803 C 256.828 103.443 255.838 106.083 254.818 108.803 C 252.838 111.113 250.858 113.423 248.818 115.803 C 244.858 117.783 240.898 119.763 236.818 121.803 C 233.848 122.298 233.848 122.298 230.818 122.803 C 220.588 122.803 209.619 122.853 199.079 122.853 C 199.079 122.853 198.818 42.903 198.818 3.803 C 199.148 3.473 199.478 3.143 199.818 2.803 Z M 212.818 15.803 C 212.818 46.823 212.818 77.843 212.818 109.803 C 219.748 109.803 226.678 109.803 233.818 109.803 C 235.798 108.483 237.778 107.163 239.818 105.803 C 241.138 104.153 242.458 102.503 243.818 100.803 C 244.478 97.503 245.138 94.203 245.818 90.803 C 245.818 70.673 245.818 50.543 245.818 29.803 C 244.828 27.493 243.838 25.183 242.818 22.803 C 239.353 19.833 239.353 19.833 235.818 16.803 C 234.828 16.473 233.838 16.143 232.818 15.803 C 226.218 15.803 219.618 15.803 212.818 15.803 Z" style="fill: #000000;" transform="matrix(1, 0, 0, 1, 7.105427357601002e-15, 0)"/>
  <path d="M 23.037 2.798 C 26.997 2.798 32.738 2.803 36.818 2.803 C 39.293 14.683 53.698 90.823 59.818 123.803 C 55.198 123.803 50.578 123.803 45.818 123.803 C 44.498 118.523 41.818 106.483 41.818 105.803 C 33.568 105.803 25.318 105.803 16.818 105.803 C 16.488 108.773 13.838 120.743 12.818 123.803 C 8.198 123.803 3.578 123.803 -1.182 123.803 C -0.852 120.833 23.037 2.798 23.037 2.798 Z M 28.818 42.803 C 25.518 58.973 22.067 76.177 18.667 92.837 L 39.572 92.65 L 30.249 42.825 L 28.818 42.803 Z" style="fill: #000000;" transform="matrix(1, 0, 0, 1, 7.105427357601002e-15, 0)"/>
</svg>