<?xml version="1.0" encoding="utf-8"?>
<svg viewBox="22 22 117 122" width="117" height="122" xmlns="http://www.w3.org/2000/svg">
  <defs/>
  <path d="M0 0 C1.32 0.66 2.64 1.32 4 2 C7.3 5.63 10.6 9.26 14 13 C16.64 16.63 19.28 20.26 22 24 C21.34 25.32 20.68 26.64 20 28 C17.03 29.98 14.06 31.96 11 34 C9.515 33.505 9.515 33.505 8 33 C5.36 29.37 2.72 25.74 0 22 C-3.63 17.71 -7.26 13.42 -11 9 C-10.34 7.68 -9.68 6.36 -9 5 C-6.03 3.35 -3.06 1.7 0 0 Z " transform="matrix(1, 0, 0, 1, 114.99999999999999, 102)" style="fill: #000000;"/>
  <path d="M0 0 C1.65 0.66 3.3 1.32 5 2 C7.64 3.98 10.28 5.96 13 8 C12.34 9.65 11.68 11.3 11 13 C6.38 17.95 1.76 22.9 -3 28 C-5.31 29.98 -7.62 31.96 -10 34 C-11.32 33.34 -12.64 32.68 -14 32 C-16.31 30.02 -18.62 28.04 -21 26 C-19.02 23.69 -17.04 21.38 -15 19 C-11.37 14.71 -7.74 10.42 -4 6 C-2.68 4.02 -1.36 2.04 0 0 Z " transform="matrix(1, 0, 0, 1, 45.999999999999986, 101)" style="fill: #000000;"/>
  <path d="M 0 0 L 90 0 L 90.363 43 L 53.072 43.064 C 53.072 43.064 53 68.74 53 82 C 52.01 83.65 51.02 85.3 50 87 C 48.35 87.99 46.7 88.98 45 90 C 38.73 90 31.956 89.838 25.496 89.838 C 25.166 87.528 25.34 85.38 25 83 C 25 80.36 25 77.72 25 75 C 28.96 75 32.92 75 37 75 C 36.67 65.1 36.11 43.817 36.11 43.817 C 36.11 43.817 3.74 44 0 44 C 0 29.48 0 0 0 0 Z M 16 15 L 16 30.412 L 73 30.652 C 73 30.652 73 20.1 73 15 C 54.19 15 16 15 16 15 Z" transform="matrix(1, 0, 0, 1, 35.999999999999986, 54)" style="fill: #000000;"/>
  <path d="M 0 0 C 4.62 0 15.249 -0.295 16.609 0.045 C 17.599 1.695 20.914 7.434 20.914 8.114 C 37.084 8.114 72.691 8.566 72.691 8.566 L 72.692 23.781 L -44 24 L -43.938 9.213 L 1.79 9.134 C 0.47 6.164 0.36 4.06 -1 1 C -0.67 0.67 -0.34 0.34 0 0 Z" transform="matrix(1, 0, 0, 1, 65.99999999999999, 22)" style="fill: #000000;"/>
</svg>