<?xml version="1.0" encoding="utf-8"?>
<svg viewBox="24 338 127 122" width="127" height="122" xmlns="http://www.w3.org/2000/svg">
  <defs/>
  <g transform="matrix(1, 0, 0, 1, -1.4210854715202004e-14, 0)">
    <path d="M 24 414 C 67.56 413.505 137.08 413 150 413 C 150.495 413.99 150.495 413.99 151 415 C 151 417.97 151 420.94 151 424 C 136.645 424.495 84.38 425 65 425 C 64.67 426.32 64.34 427.64 64 429 C 86.77 429 109.54 429 133 429 C 132.67 432.63 132.34 436.26 132 440 C 130.02 443.96 128.04 447.92 126 452 C 123.36 453.98 120.72 455.96 118 458 C 114.37 458.66 110.74 459.32 107 460 C 103.37 460 99.74 460 96 460 C 95.01 457.03 93 449.02 93 448 C 94.65 447.67 107.24 446.34 112 446 C 112.99 444.35 113.98 442.7 115 441 C 92.89 441 70.78 441 48 441 C 48.33 436.38 48.66 431.76 49 427 C 49.33 426.34 49.66 425.68 50 425 C 41.42 425 32.84 425 24 425 C 24 421.37 24 417.74 24 414 Z" style="fill: #000000;"/>
  </g>
  <g transform="matrix(1, 0, 0, 1, -1.4210854715202004e-14, 0)">
    <path d="M 72 338 C 76.29 338.33 80.886 338.317 85.306 338.657 C 85.801 339.647 84.819 342.361 84.479 343.041 C 100.649 343.041 117.34 343 134 343 C 134.33 349.6 134.34 409.32 134 410 C 101.99 410 69.98 410 37 410 C 37 388.22 37 366.44 37 344 C 44.26 343.67 65.761 343.316 69.161 342.976 C 70.151 341.656 70.98 339.36 72 338 Z M 63 354 C 61.35 354 51 354.182 51 354.182 C 51 368.372 51 383.38 51 398 C 51.33 398.66 51.66 399.32 52 400 C 71.14 400 115.705 400.267 120.755 399.762 C 121.085 399.432 121 371.6 121 358 C 120.505 356.02 120.505 356.02 120 354 C 103.83 354 66.531 354.08 66.531 354.08 C 67.003 355.236 68.098 357.729 68.098 357.729 C 69.508 359.691 73 365.64 73 367 C 71.68 367.33 70.36 367.66 69 368 C 69 368.66 64.956 369.611 64.956 370.291 C 68.256 370.291 75.6 370 79 370 C 79.33 366.04 79.66 362.08 80 358 C 83.63 358 87.26 358 91 358 C 91.495 363.445 91.495 363.445 92 369 C 95.3 369.33 99.818 369.047 103.218 369.387 C 103.548 368.727 103.788 369.112 104.128 368.432 C 102.808 367.772 100.36 366.68 99 366 C 98.505 364.515 98.505 364.515 98 363 C 99.65 361.02 101.3 359.04 103 357 C 105.475 357.495 105.475 357.495 108 358 C 108.99 358.33 109.98 358.66 111 359 C 109.35 362.3 106.71 365.968 105.01 369.368 C 107.98 369.698 111.94 369.66 115 370 C 115.99 370 116.98 370 118 370 C 118 372.97 118 375.94 118 379 C 114.04 379 108.31 379.256 104.23 379.256 C 104.23 380.246 106 380.98 106 382 C 108.64 384.64 111.28 387.28 114 390 C 114.66 390 111.277 394.386 109.577 396.086 C 107.927 395.756 100.06 388.72 97 386 C 96.505 384.515 96.505 384.515 96 383 C 97.32 382.34 98.64 381.68 100 381 C 100 380.67 102.536 379.824 102.536 379.484 C 99.896 379.484 94.72 380 92 380 C 91.67 385.61 91.34 391.22 91 397 C 87.37 397.33 83.74 397.66 80 398 C 79.505 391.565 79.505 391.565 79 385 C 76.525 386.485 76.525 386.485 74 388 C 70.37 390.97 66.74 393.94 63 397 C 61.35 396.34 56.68 392.36 56 391 C 59.63 388.36 70.197 380.941 70.537 379.921 C 66.247 379.921 59.42 380 55 380 C 54.67 377.03 54.34 374.06 54 371 C 57.3 370.67 60.6 370.34 64 370 C 63.34 368.35 61.34 361.7 61 360 C 61.66 359.67 62.32 359.34 63 359 C 64.153 358.711 67.296 358.455 68.078 357.729 L 66.501 354.079 L 63 354 Z" style="fill: #000000;"/>
  </g>
</svg>