<?xml version="1.0" encoding="utf-8"?>
<svg viewBox="1210 26 117 125" width="117" height="125" xmlns="http://www.w3.org/2000/svg">
  <defs/>
  <path d="M0 0 C1.98 0.66 3.96 1.32 6 2 C10.455 4.475 10.455 4.475 15 7 C14.34 10.3 13.68 13.6 13 17 C9.37 27.23 5.74 37.46 2 48 C1.01 49.65 0.02 51.3 -1 53 C-6.28 50.36 -11.56 47.72 -17 45 C-16.34 43.02 -15.68 41.04 -15 39 C-12.03 32.07 -12.03 32.07 -9 25 C-6.03 16.75 -3.06 8.5 0 0 Z " transform="matrix(1, 0, 0, 1, 1227, 97.00000000000001)" style="fill: #000000;"/>
  <path d="M 0 0 C 1.32 0.33 2.64 0.66 4 1 C 11.92 5.95 21.32 13.64 22 15 C 19.36 18.63 16.72 22.26 14 26 C 12.68 25.34 11.36 24.68 10 24 C 4.39 20.04 -1.22 16.08 -7 12 C -7.33 11.34 -7.66 10.68 -8 10 C -5.36 6.7 -2.72 3.4 0 0 Z" transform="matrix(1, 0, 0, 1, 1218, 63.000000000000014)" style="fill: #000000;"/>
  <path d="M 0 0 C 1.32 0.66 13.24 8.6 18 12 C 19.65 13.65 21.3 15.3 23 17 C 21.35 18.98 15.34 24.98 15 26 C 13.68 26.33 12.36 26.66 11 27 C 6.71 23.7 2.42 20.4 -2 17 C -4.31 15.35 -6.62 13.7 -9 12 C -8.34 10.68 -2.38 2.72 0 0 Z" transform="matrix(1, 0, 0, 1, 1224, 28.000000000000014)" style="fill: #000000;"/>
  <path d="M0 0 C1.32 0.33 2.64 0.66 4 1 C6.64 7.27 9.28 13.54 12 20 C15.96 20 19.92 20 24 20 C28.29 20.33 32.58 20.66 37 21 C37 40.47 37 59.94 37 80 C31.06 80 25.12 80 19 80 C19 77.69 19 75.38 19 73 C6.46 73 -6.08 73 -19 73 C-19 76.63 -19 80.26 -19 84 C-20.32 89.28 -21.64 94.56 -23 100 C-24.98 104.95 -24.98 104.95 -27 110 C-30.465 115.445 -30.465 115.445 -34 121 C-35.32 122.32 -36.64 123.64 -38 125 C-39.32 124.67 -40.64 124.34 -42 124 C-44.64 122.35 -47.28 120.7 -50 119 C-50.33 118.01 -50.66 117.02 -51 116 C-48.03 111.545 -48.03 111.545 -45 107 C-43.68 104.36 -42.36 101.72 -41 99 C-39.68 94.71 -38.36 90.42 -37 86 C-36.67 84.35 -36.34 82.7 -36 81 C-35.67 74.73 -35.34 68.46 -35 62 C-35 55.07 -35 48.14 -35 41 C-34.67 34.4 -34.34 27.8 -34 21 C-30.04 20.505 -30.04 20.505 -26 20 C-19.4 20 -12.8 20 -6 20 C-7.32 16.04 -8.64 12.08 -10 8 C-10 6.68 -10 5.36 -10 4 C-6.7 2.68 -3.4 1.36 0 0 Z M-18 36 C-18 43.26 -18 50.52 -18 58 C-5.79 58 6.42 58 19 58 C19.33 56.68 19.66 55.36 20 54 C20 48.72 20 43.44 20 38 C19.505 37.01 19.505 37.01 19 36 C6.79 36 -5.42 36 -18 36 Z " transform="matrix(1, 0, 0, 1, 1290, 26.000000000000014)" style="fill: #000000;"/>
</svg>