<?xml version="1.0" encoding="utf-8"?>
<svg viewBox="0 0 1149 195" width="1149" height="195" xmlns="http://www.w3.org/2000/svg">
  <defs/>
  <path d="M -8 1 L 14 1 L 15 191 L -6 191 L -8 1 Z" transform="matrix(1, 0, 0, 1, 8, 4)" style="fill: #000000;"/>
  <path d="M0,0 L17,0 L17,1 L22,1 L22,2 L25,2 L25,3 L28,3 L28,4 L30,4 L30,5 L32,5 L32,6 L34,6 L34,7 L35,7 L35,8 L36,8 L36,9 L38,9 L38,10 L39,10 L39,11 L40,11 L40,12 L41,12 L41,13 L42,13 L42,14 L43,14 L43,15 L44,15 L44,16 L45,16 L45,17 L46,17 L46,18 L47,18 L47,20 L48,20 L48,21 L49,21 L49,22 L50,22 L50,24 L51,24 L51,26 L52,26 L52,28 L53,28 L53,30 L54,30 L54,32 L55,32 L55,35 L56,35 L56,37 L57,37 L57,41 L58,41 L58,44 L59,44 L59,73 L58,73 L58,81 L57,81 L57,86 L56,86 L56,91 L55,91 L55,95 L54,95 L54,99 L53,99 L53,102 L52,102 L52,105 L51,105 L51,108 L50,108 L50,111 L49,111 L49,114 L48,114 L48,116 L47,116 L47,119 L46,119 L46,121 L45,121 L45,123 L44,123 L44,125 L43,125 L43,128 L42,128 L42,129 L41,129 L41,131 L40,131 L40,134 L39,134 L39,135 L38,135 L38,137 L37,137 L37,139 L36,139 L36,141 L35,141 L35,142 L34,142 L34,144 L33,144 L33,146 L32,146 L32,147 L31,147 L31,149 L30,149 L30,150 L29,150 L29,152 L28,152 L28,153 L27,153 L27,155 L26,155 L26,156 L25,156 L25,157 L24,157 L24,158 L23,158 L23,160 L22,160 L22,161 L21,161 L21,163 L20,163 L20,164 L19,164 L19,165 L18,165 L18,166 L17,166 L17,168 L16,168 L16,169 L15,169 L15,170 L14,170 L14,171 L13,171 L13,172 L12,172 L12,173 L11,173 L11,174 L10,174 L10,175 L9,175 L9,177 L8,177 L8,178 L7,178 L7,179 L6,179 L6,180 L5,180 L5,181 L4,181 L4,182 L3,182 L3,183 L2,183 L2,184 L1,184 L1,185 L0,185 L0,186 L-2,186 L-2,187 L-3,187 L-3,188 L-4,188 L-4,189 L-5,189 L-5,190 L-6,190 L-6,191 L-7,191 L-7,192 L-10,192 L-10,191 L-11,191 L-11,190 L-12,190 L-12,189 L-14,189 L-14,188 L-15,188 L-15,187 L-16,187 L-16,186 L-18,186 L-18,185 L-19,185 L-19,184 L-21,184 L-21,183 L-22,183 L-22,182 L-23,182 L-23,181 L-25,181 L-25,179 L-24,179 L-24,178 L-23,178 L-23,177 L-22,177 L-22,176 L-21,176 L-21,175 L-19,175 L-19,174 L-18,174 L-18,173 L-17,173 L-17,172 L-16,172 L-16,171 L-15,171 L-15,170 L-14,170 L-14,169 L-13,169 L-13,168 L-12,168 L-12,167 L-11,167 L-11,166 L-10,166 L-10,165 L-9,165 L-9,164 L-8,164 L-8,163 L-7,163 L-7,162 L-6,162 L-6,161 L-5,161 L-5,160 L-4,160 L-4,159 L-3,159 L-3,158 L-2,158 L-2,157 L-1,157 L-1,156 L0,156 L0,155 L1,155 L1,153 L2,153 L2,152 L3,152 L3,151 L4,151 L4,150 L5,150 L5,148 L6,148 L6,147 L7,147 L7,146 L8,146 L8,144 L9,144 L9,143 L10,143 L10,141 L11,141 L11,140 L12,140 L12,138 L13,138 L13,137 L14,137 L14,135 L15,135 L15,134 L16,134 L16,132 L17,132 L17,130 L18,130 L18,129 L19,129 L19,127 L20,127 L20,125 L21,125 L21,123 L22,123 L22,121 L23,121 L23,119 L24,119 L24,117 L25,117 L25,114 L26,114 L26,112 L27,112 L27,110 L28,110 L28,107 L29,107 L29,106 L25,106 L25,107 L19,107 L19,108 L4,108 L4,107 L-1,107 L-1,106 L-5,106 L-5,105 L-8,105 L-8,104 L-10,104 L-10,103 L-12,103 L-12,102 L-14,102 L-14,101 L-16,101 L-16,100 L-17,100 L-17,99 L-19,99 L-19,98 L-20,98 L-20,97 L-21,97 L-21,96 L-23,96 L-23,95 L-24,95 L-24,94 L-25,94 L-25,93 L-26,93 L-26,92 L-27,92 L-27,91 L-28,91 L-28,89 L-29,89 L-29,88 L-30,88 L-30,87 L-31,87 L-31,85 L-32,85 L-32,84 L-33,84 L-33,82 L-34,82 L-34,81 L-35,81 L-35,78 L-36,78 L-36,74 L-37,74 L-37,69 L-38,69 L-38,64 L-39,64 L-39,43 L-38,43 L-38,38 L-37,38 L-37,35 L-36,35 L-36,32 L-35,32 L-35,29 L-34,29 L-34,27 L-33,27 L-33,25 L-32,25 L-32,24 L-31,24 L-31,22 L-30,22 L-30,20 L-29,20 L-29,19 L-28,19 L-28,18 L-27,18 L-27,16 L-26,16 L-26,15 L-25,15 L-25,14 L-24,14 L-24,13 L-23,13 L-23,12 L-22,12 L-22,11 L-21,11 L-21,10 L-20,10 L-20,9 L-18,9 L-18,8 L-17,8 L-17,7 L-16,7 L-16,6 L-15,6 L-15,5 L-13,5 L-13,4 L-11,4 L-11,3 L-9,3 L-9,2 L-5,2 L-5,1 L0,1 Z M5,22 L5,23 L1,23 L1,24 L-1,24 L-1,25 L-3,25 L-3,26 L-5,26 L-5,27 L-7,27 L-7,28 L-8,28 L-8,29 L-9,29 L-9,30 L-10,30 L-10,31 L-11,31 L-11,32 L-12,32 L-12,33 L-13,33 L-13,35 L-14,35 L-14,36 L-15,36 L-15,38 L-16,38 L-16,40 L-17,40 L-17,42 L-18,42 L-18,45 L-19,45 L-19,50 L-20,50 L-20,61 L-19,61 L-19,66 L-18,66 L-18,69 L-17,69 L-17,71 L-16,71 L-16,73 L-15,73 L-15,75 L-14,75 L-14,76 L-13,76 L-13,77 L-12,77 L-12,79 L-11,79 L-11,80 L-10,80 L-10,81 L-9,81 L-9,82 L-7,82 L-7,83 L-6,83 L-6,84 L-4,84 L-4,85 L-3,85 L-3,86 L0,86 L0,87 L2,87 L2,88 L7,88 L7,89 L11,89 L11,88 L17,88 L17,87 L20,87 L20,86 L22,86 L22,85 L24,85 L24,84 L25,84 L25,83 L27,83 L27,82 L28,82 L28,81 L29,81 L29,80 L30,80 L30,79 L31,79 L31,78 L32,78 L32,77 L33,77 L33,75 L34,75 L34,74 L35,74 L35,72 L36,72 L36,70 L37,70 L37,67 L38,67 L38,63 L39,63 L39,56 L40,56 L40,55 L39,55 L39,47 L38,47 L38,44 L37,44 L37,41 L36,41 L36,39 L35,39 L35,37 L34,37 L34,36 L33,36 L33,34 L32,34 L32,33 L31,33 L31,32 L30,32 L30,31 L29,31 L29,30 L28,30 L28,29 L27,29 L27,28 L26,28 L26,27 L24,27 L24,26 L23,26 L23,25 L21,25 L21,24 L18,24 L18,23 L14,23 L14,22 Z " transform="matrix(1, 0, 0, 1, 968.0000000000001, 3)" style="fill: #000000;"/>
  <path d="M0,0 L2,0 L2,1 L4,1 L4,2 L5,2 L5,3 L7,3 L7,4 L8,4 L8,5 L10,5 L10,6 L11,6 L11,7 L13,7 L13,8 L14,8 L14,9 L15,9 L15,10 L17,10 L17,11 L18,11 L18,12 L17,12 L17,13 L16,13 L16,14 L15,14 L15,15 L14,15 L14,16 L13,16 L13,17 L12,17 L12,18 L11,18 L11,19 L10,19 L10,20 L9,20 L9,21 L8,21 L8,22 L7,22 L7,23 L6,23 L6,24 L5,24 L5,25 L4,25 L4,26 L3,26 L3,27 L2,27 L2,28 L1,28 L1,29 L0,29 L0,31 L-1,31 L-1,32 L-2,32 L-2,33 L-3,33 L-3,34 L-4,34 L-4,36 L-5,36 L-5,37 L-6,37 L-6,38 L-7,38 L-7,40 L-8,40 L-8,41 L-9,41 L-9,42 L-10,42 L-10,44 L-11,44 L-11,45 L-12,45 L-12,47 L-13,47 L-13,48 L-14,48 L-14,50 L-15,50 L-15,52 L-16,52 L-16,53 L-17,53 L-17,55 L-18,55 L-18,57 L-19,57 L-19,58 L-20,58 L-20,60 L-21,60 L-21,62 L-22,62 L-22,64 L-23,64 L-23,66 L-24,66 L-24,68 L-25,68 L-25,70 L-26,70 L-26,72 L-27,72 L-27,74 L-28,74 L-28,77 L-29,77 L-29,79 L-30,79 L-30,81 L-31,81 L-31,84 L-32,84 L-32,87 L-28,87 L-28,86 L-22,86 L-22,85 L-4,85 L-4,86 L0,86 L0,87 L4,87 L4,88 L6,88 L6,89 L9,89 L9,90 L11,90 L11,91 L12,91 L12,92 L14,92 L14,93 L15,93 L15,94 L16,94 L16,95 L18,95 L18,96 L19,96 L19,97 L20,97 L20,98 L21,98 L21,99 L22,99 L22,100 L23,100 L23,102 L24,102 L24,103 L25,103 L25,104 L26,104 L26,106 L27,106 L27,108 L28,108 L28,109 L29,109 L29,111 L30,111 L30,113 L31,113 L31,115 L32,115 L32,118 L33,118 L33,121 L34,121 L34,125 L35,125 L35,133 L34,133 L34,134 L35,134 L35,137 L34,137 L34,147 L33,147 L33,152 L32,152 L32,156 L31,156 L31,159 L30,159 L30,162 L29,162 L29,165 L28,165 L28,167 L27,167 L27,169 L26,169 L26,170 L25,170 L25,172 L24,172 L24,173 L23,173 L23,175 L22,175 L22,176 L21,176 L21,177 L20,177 L20,178 L19,178 L19,179 L18,179 L18,180 L17,180 L17,181 L16,181 L16,182 L15,182 L15,183 L13,183 L13,184 L12,184 L12,185 L11,185 L11,186 L9,186 L9,187 L7,187 L7,188 L5,188 L5,189 L2,189 L2,190 L0,190 L0,191 L-5,191 L-5,192 L-18,192 L-18,191 L-23,191 L-23,190 L-26,190 L-26,189 L-29,189 L-29,188 L-32,188 L-32,187 L-34,187 L-34,186 L-36,186 L-36,185 L-38,185 L-38,184 L-40,184 L-40,183 L-41,183 L-41,182 L-43,182 L-43,181 L-44,181 L-44,180 L-45,180 L-45,179 L-47,179 L-47,178 L-48,178 L-48,177 L-49,177 L-49,176 L-50,176 L-50,175 L-51,175 L-51,174 L-52,174 L-52,172 L-53,172 L-53,171 L-54,171 L-54,170 L-55,170 L-55,168 L-56,168 L-56,167 L-57,167 L-57,165 L-58,165 L-58,163 L-59,163 L-59,161 L-60,161 L-60,158 L-61,158 L-61,155 L-62,155 L-62,152 L-63,152 L-63,147 L-64,147 L-64,138 L-65,138 L-65,136 L-64,136 L-64,134 L-65,134 L-65,133 L-64,133 L-64,132 L-65,132 L-65,129 L-64,129 L-64,119 L-63,119 L-63,112 L-62,112 L-62,107 L-61,107 L-61,102 L-60,102 L-60,98 L-59,98 L-59,94 L-58,94 L-58,91 L-57,91 L-57,87 L-56,87 L-56,84 L-55,84 L-55,81 L-54,81 L-54,79 L-53,79 L-53,76 L-52,76 L-52,73 L-51,73 L-51,71 L-50,71 L-50,69 L-49,69 L-49,66 L-48,66 L-48,64 L-47,64 L-47,62 L-46,62 L-46,60 L-45,60 L-45,58 L-44,58 L-44,56 L-43,56 L-43,54 L-42,54 L-42,52 L-41,52 L-41,50 L-40,50 L-40,49 L-39,49 L-39,47 L-38,47 L-38,45 L-37,45 L-37,44 L-36,44 L-36,42 L-35,42 L-35,41 L-34,41 L-34,39 L-33,39 L-33,37 L-32,37 L-32,36 L-31,36 L-31,35 L-30,35 L-30,33 L-29,33 L-29,32 L-28,32 L-28,30 L-27,30 L-27,29 L-26,29 L-26,28 L-25,28 L-25,26 L-24,26 L-24,25 L-23,25 L-23,24 L-22,24 L-22,23 L-21,23 L-21,21 L-20,21 L-20,20 L-19,20 L-19,19 L-18,19 L-18,18 L-17,18 L-17,17 L-16,17 L-16,15 L-15,15 L-15,14 L-14,14 L-14,13 L-13,13 L-13,12 L-12,12 L-12,11 L-11,11 L-11,10 L-10,10 L-10,9 L-9,9 L-9,8 L-8,8 L-8,7 L-7,7 L-7,6 L-6,6 L-6,5 L-5,5 L-5,4 L-4,4 L-4,3 L-3,3 L-3,2 L-1,2 L-1,1 L0,1 Z M-20,107 L-20,108 L-23,108 L-23,109 L-26,109 L-26,110 L-28,110 L-28,111 L-29,111 L-29,112 L-31,112 L-31,113 L-32,113 L-32,114 L-33,114 L-33,115 L-34,115 L-34,116 L-35,116 L-35,117 L-36,117 L-36,118 L-37,118 L-37,119 L-38,119 L-38,121 L-39,121 L-39,123 L-40,123 L-40,125 L-41,125 L-41,127 L-42,127 L-42,131 L-43,131 L-43,145 L-42,145 L-42,149 L-41,149 L-41,151 L-40,151 L-40,153 L-39,153 L-39,155 L-38,155 L-38,157 L-37,157 L-37,158 L-36,158 L-36,159 L-35,159 L-35,160 L-34,160 L-34,161 L-33,161 L-33,162 L-32,162 L-32,163 L-31,163 L-31,164 L-29,164 L-29,165 L-28,165 L-28,166 L-26,166 L-26,167 L-23,167 L-23,168 L-20,168 L-20,169 L-8,169 L-8,168 L-5,168 L-5,167 L-2,167 L-2,166 L0,166 L0,165 L1,165 L1,164 L3,164 L3,163 L4,163 L4,162 L5,162 L5,161 L6,161 L6,160 L7,160 L7,159 L8,159 L8,158 L9,158 L9,157 L10,157 L10,155 L11,155 L11,153 L12,153 L12,151 L13,151 L13,149 L14,149 L14,145 L15,145 L15,131 L14,131 L14,127 L13,127 L13,125 L12,125 L12,123 L11,123 L11,121 L10,121 L10,119 L9,119 L9,118 L8,118 L8,117 L7,117 L7,116 L6,116 L6,115 L5,115 L5,114 L4,114 L4,113 L3,113 L3,112 L2,112 L2,111 L0,111 L0,110 L-2,110 L-2,109 L-5,109 L-5,108 L-8,108 L-8,107 Z " transform="matrix(1, 0, 0, 1, 624, 3)" style="fill: #000000;"/>
  <path d="M 0 0 L 6 0 L 5.934 23.473 L -26.505 68.13 L -26.511 69.867 L -21 73 L -18 74 L -16 75 L -14 76 L -13 76 L -13 77 L -11 77 L -11 78 L -10 78 L -10 79 L -9 79 L -9 80 L -7 80 L -7 81 L -6 81 L -6 82 L -5 82 L -5 83 L -4 83 L -4 84 L -3 84 L -3 85 L -2 85 L -2 86 L -1 86 L -1 88 L 0 88 L 0 89 L 1 89 L 1 90 L 2 90 L 2 92 L 3 92 L 3 94 L 4 94 L 4 95 L 5 95 L 5 98 L 6 98 L 6 100 L 7 100 L 7 103 L 8 103 L 8 106 L 9 106 L 9 109 L 10 109 L 10 114 L 11 114 L 11 122 L 12 122 L 12 144 L 11 144 L 11 153 L 10 153 L 10 158 L 9 158 L 9 161 L 8 161 L 8 163 L 7 163 L 7 165 L 6 165 L 6 167 L 5 167 L 5 169 L 4 169 L 4 170 L 3 170 L 3 171 L 2 171 L 2 173 L 1 173 L 1 174 L 0 174 L 0 175 L -1 175 L -1 176 L -2 176 L -2 177 L -3 177 L -3 178 L -4 178 L -4 179 L -5 179 L -5 180 L -6 180 L -6 181 L -7 181 L -7 182 L -8 182 L -8 183 L -9 183 L -9 184 L -11 184 L -11 185 L -12 185 L -12 186 L -13 186 L -13 187 L -15 187 L -15 188 L -17 188 L -17 189 L -19 189 L -19 190 L -21 190 L -21 191 L -23 191 L -23 192 L -26 192 L -26 193 L -30 193 L -30 194 L -46 194 L -46 193 L -50 193 L -50 192 L -52 192 L -52 191 L -55 191 L -55 190 L -57 190 L -57 189 L -58 189 L -58 188 L -60 188 L -60 187 L -61 187 L -61 186 L -63 186 L -63 185 L -64 185 L -64 184 L -65 184 L -65 183 L -66 183 L -66 182 L -67 182 L -67 181 L -68 181 L -68 180 L -69 180 L -69 179 L -70 179 L -70 178 L -71 178 L -71 177 L -72 177 L -72 176 L -73 176 L -73 174 L -74 174 L -74 173 L -75 173 L -75 171 L -76 171 L -76 170 L -77 170 L -77 168 L -78 168 L -78 166 L -79 166 L -79 164 L -80 164 L -80 162 L -81 162 L -81 159 L -82 159 L -82 157 L -83 157 L -83 154 L -84 154 L -84 150 L -85 150 L -85 146 L -86 146 L -86 145 L -84 145 L -84 144 L -80 144 L -80 143 L -77 143 L -77 142 L -73 142 L -73 141 L -69 141 L -69 140 L -65 140 L -65 144 L -64 144 L -64 148 L -63 148 L -63 152 L -62 152 L -62 154 L -61 154 L -61 157 L -60 157 L -60 159 L -59 159 L -59 160 L -58 160 L -58 162 L -57 162 L -57 163 L -56 163 L -56 164 L -55 164 L -55 166 L -54 166 L -54 167 L -52 167 L -52 168 L -51 168 L -51 169 L -50 169 L -50 170 L -48 170 L -48 171 L -46 171 L -46 172 L -43 172 L -43 173 L -35 173 L -35 174 L -34 174 L -34 173 L -28 173 L -28 172 L -26 172 L -26 171 L -24 171 L -24 170 L -22 170 L -22 169 L -21 169 L -21 168 L -20 168 L -20 167 L -19 167 L -19 166 L -18 166 L -18 165 L -17 165 L -17 164 L -16 164 L -16 162 L -15 162 L -15 160 L -14 160 L -14 159 L -13 159 L -13 156 L -12 156 L -12 154 L -11 154 L -11 150 L -10 150 L -10 146 L -9 146 L -9 137 L -8 137 L -8 128 L -9 128 L -9 127 L -8 127 L -8 125 L -9 125 L -9 117 L -10 117 L -10 112 L -11 112 L -11 109 L -12 109 L -12 106 L -13 106 L -13 104 L -14 104 L -14 102 L -15 102 L -15 101 L -16 101 L -16 100 L -17 100 L -17 98 L -18 98 L -18 97 L -19 97 L -19 96 L -21 96 L -21 95 L -22 95 L -22 94 L -24 94 L -24 93 L -26 93 L -26 92 L -28 92 L -28 91 L -32.756 90.295 L -49.154 90.428 L -62.707 78.72 L -62.729 77.194 L -23 25 L -84.009 25.021 L -84.018 0.684 L 0 0 Z" transform="matrix(1, 0, 0, 1, 291, 1)" style="fill: #000000;"/>
  <path d="M 0 0 L 1 0 L 1 1 L 9 1 L 9 2 L 14 2 L 14 3 L 17 3 L 17 4 L 20 4 L 20 5 L 22 5 L 22 6 L 24 6 L 24 7 L 27 7 L 27 8 L 28 8 L 28 9 L 30 9 L 30 10 L 31 10 L 31 11 L 33 11 L 33 12 L 34 12 L 34 13 L 35 13 L 35 14 L 37 14 L 37 15 L 38 15 L 38 16 L 39 16 L 39 17 L 40 17 L 40 19 L 41 19 L 41 20 L 42 20 L 42 21 L 43 21 L 43 22 L 44 22 L 44 24 L 45 24 L 45 25 L 46 25 L 46 27 L 47 27 L 47 29 L 48 29 L 48 31 L 49 31 L 49 33 L 50 33 L 50 36 L 51 36 L 51 39 L 52 39 L 52 43 L 53 43 L 53 47 L 52 47 L 52 48 L 53 48 L 51 156 L 50 156 L 50 162 L 49 162 L 49 165 L 48 165 L 48 167 L 47 167 L 47 169 L 46 169 L 46 171 L 45 171 L 45 172 L 44 172 L 44 174 L 43 174 L 43 175 L 42 175 L 42 177 L 41 177 L 41 178 L 40 178 L 40 179 L 39 179 L 39 180 L 38 180 L 38 181 L 37 181 L 37 182 L 36 182 L 36 183 L 35 183 L 35 184 L 34 184 L 34 185 L 33 185 L 33 186 L 32 186 L 32 187 L 30 187 L 30 188 L 28 188 L 28 189 L 27 189 L 27 190 L 25 190 L 25 191 L 22 191 L 22 192 L 20 192 L 20 193 L 16 193 L 16 194 L 12 194 L 12 195 L -7 195 L -7 194 L -11 194 L -11 193 L -14 193 L -14 192 L -17 192 L -17 191 L -19 191 L -19 190 L -21 190 L -21 189 L -23 189 L -23 188 L -24 188 L -24 187 L -25 187 L -25 186 L -27 186 L -27 185 L -28 185 L -28 184 L -29 184 L -29 183 L -30 183 L -30 182 L -31 182 L -31 181 L -32 181 L -32 180 L -33 180 L -33 179 L -34 179 L -34 178 L -35 178 L -35 177 L -36 177 L -36 176 L -37 176 L -37 174 L -38 174 L -38 173 L -39 173 L -39 171 L -40 171 L -40 170 L -41 170 L -41 168 L -42 168 L -42 166 L -43 166 L -43 164 L -44 164 L -44 162 L -45 162 L -45 160 L -46 160 L -46 158 L -47 158 L -46 41 L -45 41 L -45 36 L -44 36 L -44 33 L -43 33 L -43 30 L -42 30 L -42 28 L -41 28 L -41 26 L -40 26 L -40 24 L -39 24 L -39 23 L -38 23 L -38 21 L -37 21 L -37 20 L -36 20 L -36 18 L -35 18 L -35 17 L -34 17 L -34 16 L -33 16 L -33 15 L -32 15 L -32 14 L -31 14 L -31 13 L -30 13 L -30 12 L -28 12 L -28 11 L -27 11 L -27 10 L -26 10 L -26 9 L -24 9 L -24 8 L -23 8 L -23 7 L -21 7 L -21 6 L -19 6 L -19 5 L -16 5 L -16 4 L -14 4 L -14 3 L -10 3 L -10 2 L -6 2 L -6 1 L 0 1 L 0 0 Z M -2 22 L -2 23 L -6 23 L -6 24 L -9 24 L -9 25 L -11 25 L -11 26 L -12 26 L -12 27 L -14 27 L -14 28 L -15 28 L -15 29 L -16 29 L -16 30 L -17 30 L -17 31 L -18 31 L -18 33 L -19 33 L -19 34 L -20 34 L -20 36 L -21 36 L -21 38 L -22 38 L -22 40 L -23 40 L -23 43 L -24 43 L -24 46 L -25 46 L -25 155 L -24 155 L -24 157 L -23 157 L -23 159 L -22 159 L -22 161 L -21 161 L -21 162 L -20 162 L -20 164 L -19 164 L -19 165 L -18 165 L -18 166 L -17 166 L -17 167 L -16 167 L -16 168 L -15 168 L -15 169 L -13 169 L -13 170 L -12 170 L -12 171 L -10 171 L -10 172 L -8 172 L -8 173 L -4 173 L -4 174 L 9 174 L 9 173 L 13 173 L 13 172 L 16 172 L 16 171 L 18 171 L 18 170 L 19 170 L 19 169 L 21 169 L 21 168 L 22 168 L 22 167 L 23 167 L 23 166 L 24 166 L 24 165 L 25 165 L 25 164 L 26 164 L 26 162 L 27 162 L 27 160 L 28 160 L 28 158 L 29 158 L 29 154 L 30 154 L 31 45 L 30 45 L 30 42 L 29 42 L 29 40 L 28 40 L 28 39 L 27 39 L 27 37 L 26 37 L 26 35 L 25 35 L 25 34 L 24 34 L 24 33 L 23 33 L 23 32 L 22 32 L 22 31 L 21 31 L 21 30 L 20 30 L 20 29 L 19 29 L 19 28 L 17 28 L 17 27 L 16 27 L 16 26 L 14 26 L 14 25 L 12 25 L 12 24 L 9 24 L 9 23 L 4 23 L 4 22 L 0 22 L 0 23 L -1 23 L -1 22 L -2 22 Z" transform="matrix(1, 0, 0, 1, 1096, 0)" style="fill: #000000;"/>
  <path d="M 678 0 L 779 0.143 L 779 23 C 759.032 57.439 739.283 126.841 740 195 L 716 195 C 712.693 106.42 757.35 9.738 754 23 L 678.214 22.161 L 678 0 Z" style="fill: #000000;"/>
  <path d="M 0 0 L 92 0 L 92 23 L 23 23 L 25 74 L 27 74 L 27 73 L 30 73 L 30 72 L 34 72 L 34 71 L 41 71 L 41 70 L 54 70 L 54 71 L 59 71 L 59 72 L 61 72 L 61 73 L 64 73 L 64 74 L 66 74 L 66 75 L 67 75 L 67 76 L 69 76 L 69 77 L 71 77 L 71 78 L 72 78 L 72 79 L 74 79 L 74 80 L 75 80 L 75 81 L 76 81 L 76 82 L 77 82 L 77 83 L 78 83 L 78 84 L 79 84 L 79 85 L 80 85 L 80 86 L 81 86 L 81 87 L 82 87 L 82 89 L 83 89 L 83 90 L 84 90 L 84 92 L 85 92 L 85 93 L 86 93 L 86 95 L 87 95 L 87 97 L 88 97 L 88 99 L 89 99 L 89 102 L 90 102 L 90 104 L 91 104 L 91 108 L 92 108 L 92 112 L 93 112 L 93 119 L 94 119 L 94 137 L 93 137 L 93 146 L 92 146 L 92 151 L 91 151 L 91 155 L 90 155 L 90 158 L 89 158 L 89 161 L 88 161 L 88 164 L 87 164 L 87 166 L 86 166 L 86 168 L 85 168 L 85 170 L 84 170 L 84 171 L 83 171 L 83 173 L 82 173 L 82 175 L 81 175 L 81 176 L 80 176 L 80 177 L 79 177 L 79 178 L 78 178 L 78 179 L 77 179 L 77 180 L 76 180 L 76 181 L 75 181 L 75 182 L 74 182 L 74 183 L 73 183 L 73 184 L 72 184 L 72 185 L 71 185 L 71 186 L 69 186 L 69 187 L 68 187 L 68 188 L 66 188 L 66 189 L 65 189 L 65 190 L 62 190 L 62 191 L 60 191 L 60 192 L 57 192 L 57 193 L 54 193 L 54 194 L 50 194 L 50 195 L 39 195 L 39 194 L 36 194 L 36 193 L 33 193 L 33 192 L 30 192 L 30 191 L 28 191 L 28 190 L 26 190 L 26 189 L 24 189 L 24 188 L 22 188 L 22 187 L 21 187 L 21 186 L 19 186 L 19 185 L 18 185 L 18 184 L 17 184 L 17 183 L 16 183 L 16 182 L 15 182 L 15 181 L 14 181 L 14 180 L 13 180 L 13 179 L 12 179 L 12 178 L 11 178 L 11 177 L 10 177 L 10 176 L 9 176 L 9 175 L 8 175 L 8 173 L 7 173 L 7 172 L 6 172 L 6 170 L 5 170 L 5 169 L 4 169 L 4 167 L 3 167 L 3 165 L 2 165 L 2 163 L 1 163 L 1 160 L 0 160 L 0 157 L -1 157 L -1 154 L -2 154 L -2 149 L -3 149 L -3 144 L -2 144 L -2 143 L 1 143 L 1 142 L 6 142 L 6 141 L 10 141 L 10 140 L 14 140 L 14 139 L 17 139 L 17 143 L 18 143 L 18 149 L 19 149 L 19 152 L 20 152 L 20 155 L 21 155 L 21 158 L 22 158 L 22 160 L 23 160 L 23 162 L 24 162 L 24 163 L 25 163 L 25 165 L 26 165 L 26 166 L 27 166 L 27 167 L 29 167 L 29 168 L 30 168 L 30 169 L 32 169 L 32 170 L 33 170 L 33 171 L 36 171 L 36 172 L 39 172 L 39 173 L 49 173 L 49 172 L 53 172 L 53 171 L 55 171 L 55 170 L 57 170 L 57 169 L 58 169 L 58 168 L 60 168 L 60 167 L 61 167 L 61 166 L 62 166 L 62 165 L 63 165 L 63 164 L 64 164 L 64 163 L 65 163 L 65 162 L 66 162 L 66 161 L 67 161 L 67 160 L 68 160 L 68 157 L 69 157 L 69 154 L 70 154 L 70 150 L 71 150 L 71 146 L 72 146 L 72 140 L 73 140 L 73 120 L 72 120 L 72 115 L 71 115 L 71 111 L 70 111 L 70 108 L 69 108 L 69 106 L 68 106 L 68 104 L 67 104 L 67 102 L 66 102 L 66 101 L 65 101 L 65 99 L 64 99 L 64 98 L 63 98 L 63 97 L 61 97 L 61 96 L 60 96 L 60 95 L 59 95 L 59 94 L 58 94 L 58 93 L 56 93 L 56 92 L 54 92 L 54 91 L 52 91 L 52 90 L 48 90 L 48 89 L 41 89 L 41 90 L 37 90 L 37 91 L 34 91 L 34 92 L 33 92 L 33 93 L 31 93 L 31 94 L 29 94 L 29 95 L 28 95 L 28 96 L 27 96 L 27 97 L 26 97 L 26 98 L 25 98 L 25 99 L 24 99 L 24 100 L 23 100 L 23 101 L 22 101 L 22 102 L 21 102 L 21 103 L 19 103 L 19 102 L 17 102 L 17 101 L 14 101 L 14 100 L 11 100 L 11 99 L 9 99 L 9 98 L 6 98 L 6 97 L 3 97 L 3 96 L 2 96 L 0 0 Z" transform="matrix(1, 0, 0, 1, 446, 0)" style="fill: #000000;"/>
  <path d="M -1 1 L 20 1 L 20 141 L 32.761 140.868 L 33 163.858 L 19.012 163.974 L 19 195 L -2 195 L -2.839 163.85 L -66 163 L -66.401 143 L -1 1 Z M -2.001 58.208 L -41.756 141.059 L -2.973 141.018 L -2.001 58.208 Z" transform="matrix(1, 0, 0, 1, 393, 0)" style="fill: #000000;"/>
  <path d="M 131.613 1.815 L 140.613 1.815 L 145.613 2.815 L 149.613 3.815 L 152.613 4.815 L 159.184 7.834 L 162.613 9.815 L 165.613 11.815 L 168.613 13.815 L 169.613 14.815 L 170.613 15.815 L 171.613 16.815 L 172.613 17.815 L 173.613 18.815 L 174.613 19.815 L 175.613 20.815 L 177.613 23.815 L 179.613 26.815 L 181.613 30.815 L 184.613 39.815 L 185.613 47.815 C 185.613 47.815 186.28 58.579 185.613 60.815 C 172.774 103.857 111.792 173.542 111.792 173.542 L 183.613 173.815 L 183.806 194.903 L 84.67 194.796 L 84.613 172.815 C 84.613 172.815 149.809 103.652 163.613 59.815 C 165.215 54.728 163.613 43.815 163.613 43.815 L 162.613 39.815 L 160.613 35.815 L 158.613 32.815 L 156.613 30.815 L 154.613 28.815 L 151.613 26.815 L 149.613 25.815 C 149.613 25.815 143.394 22.648 135.377 22.822 C 129.163 22.957 127.836 23.053 122.627 26.158 C 118.203 28.796 117.453 29.355 112.902 35.212 C 109.017 40.212 108.622 44.455 107.363 51.559 L 87.613 46.815 L 88.613 41.815 L 89.613 37.815 L 91.613 32.815 L 92.613 30.815 L 94.613 27.815 L 96.613 24.815 L 98.613 21.815 L 100.613 19.815 L 102.613 17.815 L 104.613 15.815 L 106.613 13.815 L 108.613 11.815 L 109.613 10.815 L 112.613 8.815 L 114.613 7.815 L 122.613 3.815 L 131.613 1.815 Z" style="fill: #000000;"/>
  <path d="M 854.908 4.021 L 868.908 4.021 L 872.847 4.322 L 875.831 5.152 L 877.908 6.021 L 879.908 7.021 L 881.908 8.021 L 883.622 9.088 L 885.23 10.021 L 886.683 11.045 L 887.908 12.021 L 888.908 13.021 L 890.05 13.949 L 890.908 15.021 L 891.908 16.021 L 892.908 17.021 L 893.908 18.021 L 894.908 19.021 L 895.908 20.021 L 896.822 21.227 L 897.861 22.557 L 898.908 24.021 L 899.908 26.021 L 900.908 28.021 L 901.908 30.021 L 902.908 32.021 L 903.805 34.296 L 904.777 37.049 L 905.908 41.021 L 906.734 45.087 L 906.67 64.183 L 905.908 69.021 L 904.908 72.021 L 903.908 75.021 L 902.896 77.476 L 901.908 80.021 L 899.648 84.028 L 897.908 87.021 L 895.454 90.203 L 892.908 93.021 L 892.908 96.021 L 893.908 97.021 L 897.908 102.021 L 899.908 105.021 L 902.908 110.021 L 904.908 115.021 L 906.908 120.021 L 907.908 124.021 L 908.908 130.021 L 908.908 145.021 L 907.908 152.021 L 905.908 159.021 L 904.908 162.021 L 904.005 164.397 L 902.908 167.021 L 901.908 169.021 L 899.908 172.021 L 894.908 178.021 L 893.908 179.021 L 892.908 180.021 L 891.908 181.021 L 890.908 182.021 L 889.908 183.021 L 885.908 186.021 L 883.992 187.341 L 879.908 190.021 L 877.908 191.021 L 872.908 193.021 L 868.908 194.021 L 852.908 194.021 L 848.908 193.021 L 843.908 191.021 L 841.908 190.021 L 839.908 189.021 L 836.908 187.021 L 833.908 185.021 L 829.908 182.021 L 827.908 180.021 L 825.908 178.021 L 823.908 176.021 L 821.908 173.021 L 820.908 171.021 L 819.908 169.021 L 818.908 167.021 L 816.908 162.021 L 815.908 159.021 L 814.908 155.021 L 813.908 150.021 L 812.908 140.021 L 812.908 135.021 L 813.908 126.021 L 814.908 121.021 L 815.908 118.021 L 816.908 115.021 L 817.908 112.021 L 819.908 107.021 L 820.908 105.021 L 821.908 103.021 L 822.908 101.021 L 824.908 98.021 L 826.908 95.021 L 827.908 94.021 L 827.908 91.021 L 825.908 88.021 L 823.908 84.021 L 821.908 80.021 L 820.908 78.021 L 819.908 76.021 L 818.908 73.021 L 817.908 70.021 L 816.908 66.021 L 815.908 60.021 L 815.908 45.021 L 816.908 40.021 L 817.908 36.021 L 818.908 33.021 L 819.908 30.021 L 820.908 28.021 L 821.908 26.021 L 823.908 23.021 L 825.908 21.021 L 827.802 18.909 L 829.908 17.021 L 832.346 14.946 L 834.908 13.021 L 837.908 11.021 L 841.791 8.831 L 845.908 7.021 L 850.908 5.021 L 854.908 4.021 Z M 857.908 26.021 L 853.908 27.021 L 849.908 29.021 L 847.908 30.021 L 845.908 32.021 L 843.908 34.021 L 841.908 36.021 L 839.908 39.021 L 838.908 41.021 L 837.908 43.021 L 836.908 46.021 L 835.908 50.021 L 835.908 62.021 L 836.908 66.021 L 837.908 69.021 L 838.908 71.021 L 839.908 73.021 L 841.908 76.021 L 843.908 78.021 L 845.908 80.021 L 846.908 81.021 L 849.908 83.021 L 851.908 84.021 L 854.908 85.021 L 858.908 86.021 L 863.908 86.021 L 868.908 85.021 L 871.908 84.021 L 874.908 82.021 L 877.908 80.021 L 879.908 78.021 L 881.908 75.021 L 883.908 72.021 L 885.908 68.021 L 886.908 65.021 L 887.908 59.021 L 887.908 53.021 L 886.908 47.021 L 885.908 44.021 L 884.908 42.021 L 883.908 40.021 L 882.908 38.021 L 880.908 35.021 L 877.908 32.021 L 874.908 30.021 L 873.427 28.821 L 871.908 28.021 L 868.908 27.021 L 864.908 26.021 L 857.908 26.021 Z M 856.908 104.021 L 852.908 105.021 L 850.615 105.959 L 848.518 106.903 L 846.908 108.021 L 845.908 109.021 L 844.908 110.021 L 843.908 111.021 L 842.908 112.021 L 841.908 113.021 L 840.908 114.021 L 839.908 115.021 L 838.764 116.848 L 837.597 118.618 L 836.908 120.021 L 835.908 122.021 L 834.908 125.021 L 833.908 128.021 L 832.908 133.021 L 832.908 145.021 L 833.908 150.021 L 834.908 154.021 L 835.908 156.021 L 836.908 158.021 L 837.908 160.021 L 838.908 162.021 L 840.726 164.607 L 841.908 166.021 L 842.908 167.021 L 843.908 168.021 L 844.908 169.021 L 846.332 170.108 L 847.908 171.021 L 849.908 172.021 L 851.908 173.021 L 853.908 174.021 L 858.908 175.021 L 861.908 175.021 L 867.908 174.021 L 869.908 173.021 L 871.908 172.021 L 873.908 171.021 L 875.266 170.066 L 876.908 169.021 L 877.908 168.021 L 878.908 167.021 L 879.908 166.021 L 880.908 165.021 L 882.039 163.443 L 882.908 162.021 L 884.011 160.494 L 884.908 159.021 L 886.038 156.075 L 886.908 154.021 L 887.908 151.021 L 888.908 146.021 L 888.908 132.021 L 887.908 128.021 L 886.908 125.021 L 885.908 122.021 L 884.908 120.021 L 883.908 118.021 L 882.96 116.541 L 881.908 115.021 L 880.908 114.021 L 879.908 113.021 L 878.908 112.021 L 877.908 111.021 L 876.908 110.021 L 875.908 109.021 L 874.908 108.021 L 873.43 106.933 L 871.908 106.021 L 869.105 104.838 L 865.908 104.021 L 856.908 104.021 Z" style="fill: #000000;"/>
</svg>