<?xml version="1.0" encoding="utf-8"?>
<svg xmlns="http://www.w3.org/2000/svg" viewBox="0 0 1000 200" width="1000" height="200">
  <!-- 0 -->
  <g transform="translate(0,0) scale(1.052632,1.086957)">
    <g transform="translate(0.000000,184.000000) scale(0.100000,-0.100000)"
fill="#000000" stroke="none">
<path d="M438 1789 c-170 -27 -293 -119 -359 -269 l-24 -55 -3 -527 c-2 -450
-1 -536 13 -594 40 -171 166 -290 350 -329 89 -19 137 -19 210 0 157 41 260
148 310 320 16 54 17 105 11 583 -8 580 -6 569 -77 676 -88 132 -281 219 -431
195z m154 -232 c64 -29 123 -91 138 -146 7 -28 10 -202 8 -538 -3 -492 -3
-499 -25 -539 -27 -50 -70 -88 -120 -105 -54 -19 -151 -17 -190 4 -46 24 -98
81 -122 133 -20 42 -21 59 -21 539 0 540 0 536 58 599 39 41 118 76 174 76 28
0 69 -10 100 -23z"/>
</g>
  </g>
  <!-- 1 -->
  <g transform="translate(132.98,0) scale(1.063830)">
    <g transform="translate(0.000000,188.000000) scale(0.100000,-0.100000)"
fill="#000000" stroke="none">
<path d="M80 1823 c0 -21 -4 -218 -10 -438 -5 -220 -12 -601 -16 -847 l-6
-448 108 0 109 0 0 77 c1 43 5 441 9 886 l8 807 -101 0 -101 0 0 -37z"/>
</g>
  </g>
  <!-- 2 -->
  <g transform="translate(200,0) scale(1.000000,1.063830)">
    <g transform="translate(0.000000,188.000000) scale(0.100000,-0.100000)"
fill="#000000" stroke="none">
<path d="M413 1856 c-132 -32 -238 -118 -297 -239 -36 -72 -60 -154 -47 -161
3 -2 40 -11 81 -20 41 -9 83 -19 93 -22 9 -3 17 -1 17 5 0 32 48 130 82 167
52 56 108 78 192 72 128 -8 214 -98 224 -237 l4 -67 -134 -200 c-147 -219
-222 -328 -435 -634 l-143 -205 0 -113 0 -112 443 2 442 3 3 98 3 97 -83 2
c-46 2 -105 3 -133 4 -27 1 -135 2 -239 3 -158 1 -187 3 -183 15 3 8 73 110
155 228 317 454 464 682 481 744 18 69 23 167 12 228 -32 174 -146 285 -345
338 -80 21 -120 21 -193 4z"/>
</g>
  </g>
  <!-- 3 -->
  <g transform="translate(300,0) scale(1.020408,1.063830)">
    <g transform="translate(0.000000,188.000000) scale(0.100000,-0.100000)"
fill="#000000" stroke="none">
<path d="M74 1855 c-2 -5 -5 -55 -6 -110 l-3 -100 225 -3 c124 -1 245 -3 269
-5 l43 -2 -119 -160 c-206 -278 -246 -336 -237 -344 5 -4 36 -30 68 -57 l59
-49 101 0 c91 0 104 -2 135 -24 86 -62 126 -190 119 -379 -7 -165 -40 -250
-116 -302 -73 -51 -225 -32 -275 33 -36 48 -73 125 -87 185 -14 59 -9 58 -123
40 -77 -11 -77 -12 -77 -42 0 -53 28 -154 61 -217 80 -159 227 -237 429 -227
68 3 98 10 142 31 139 68 226 231 247 463 27 301 -69 512 -281 612 l-76 36 56
81 c31 44 101 140 154 214 l98 134 0 99 c0 54 -3 98 -7 98 -212 6 -796 3 -799
-5z"/>
</g>
  </g>
  <!-- 4 -->
  <g transform="translate(400,0) scale(1.000000,1.063830)">
    <g transform="translate(0.000000,188.000000) scale(0.100000,-0.100000)"
fill="#000000" stroke="none">
<path d="M595 1753 c-32 -71 -168 -366 -302 -658 l-243 -529 0 -93 0 -93 290
0 290 0 0 -145 0 -145 105 0 105 0 0 145 0 145 58 0 57 0 0 103 -1 102 -57 3
-57 3 0 638 0 638 -61 7 c-132 13 -118 23 -184 -121z m35 -793 l0 -360 -165 0
c-91 0 -165 2 -165 5 0 2 54 122 121 267 66 145 139 305 162 355 23 51 43 93
45 93 1 0 2 -162 2 -360z"/>
</g>
  </g>
  <!-- 5 -->
  <g transform="translate(500,0) scale(1.086957,1.063830)">
    <g transform="translate(0.000000,188.000000) scale(0.100000,-0.100000)"
fill="#000000" stroke="none">
<path d="M80 1862 c-6 -2 -10 -159 -10 -442 l0 -438 43 -16 c23 -8 67 -25 97
-36 l54 -20 41 39 c83 81 172 104 260 67 145 -61 197 -256 138 -520 -29 -132
-61 -173 -155 -201 -61 -18 -80 -18 -131 -4 -84 23 -162 137 -174 255 -5 50
-8 55 -27 50 -12 -3 -54 -13 -93 -22 l-73 -16 0 -42 c0 -92 55 -220 127 -297
149 -159 451 -175 590 -30 105 107 154 281 148 526 -2 98 -7 134 -29 198 -53
157 -143 254 -280 300 -66 23 -186 22 -254 -2 -29 -10 -54 -15 -56 -12 -2 3
-5 104 -5 224 -2 170 1 218 11 221 12 4 408 16 541 16 l58 0 -3 101 -3 100
-402 2 c-222 1 -407 1 -413 -1z"/>
</g>
  </g>
  <!-- 6 -->
  <g transform="translate(600,0) scale(1.010101,1.086957)">
    <g transform="translate(0.000000,184.000000) scale(0.100000,-0.100000)"
fill="#000000" stroke="none">
<path d="M512 1713 c-310 -311 -513 -768 -512 -1155 1 -246 92 -416 271 -501
85 -41 183 -61 243 -52 118 20 258 126 320 243 51 99 69 184 64 312 -4 97 -7
111 -41 178 -47 93 -88 145 -155 193 -106 76 -207 90 -380 53 l-32 -7 36 84
c80 188 193 358 336 505 54 55 98 104 98 107 0 6 -166 107 -176 107 -2 0 -35
-30 -72 -67z m49 -938 c110 -56 159 -161 138 -297 -25 -161 -122 -251 -259
-241 -129 9 -204 80 -229 218 -15 79 -14 112 4 173 20 65 55 106 118 139 88
44 152 46 228 8z"/>
</g>
  </g>
  <!-- 7 -->
  <g transform="translate(700,0) scale(1.000000,1.086957)">
    <g transform="translate(0.000000,184.000000) scale(0.100000,-0.100000)"
fill="#000000" stroke="none">
<path d="M50 1680 l0 -110 328 -1 c180 -1 330 -1 335 0 11 2 9 -5 -37 -112
-139 -322 -230 -742 -254 -1177 -4 -80 -6 -175 -4 -212 l4 -68 98 0 c85 0 99
2 104 18 2 9 5 70 5 136 1 273 67 663 167 986 36 116 118 330 148 389 13 25
16 55 14 144 l-3 112 -452 3 -453 3 0 -111z"/>
</g>
  </g>
  <!-- 8 -->
  <g transform="translate(800,0) scale(1.000000,1.086957)">
    <g transform="translate(0.000000,184.000000) scale(0.100000,-0.100000)"
fill="#000000" stroke="none">
<path d="M451 1778 c-78 -12 -173 -61 -229 -118 -161 -163 -183 -464 -48 -648
l43 -58 -32 -37 c-42 -48 -89 -144 -111 -227 -24 -89 -24 -282 0 -365 48 -164
155 -266 323 -310 196 -51 403 49 492 238 102 217 77 484 -61 650 l-39 47 34
40 c66 78 117 209 117 306 0 57 -39 203 -71 266 -48 94 -146 170 -259 201 -84
23 -101 25 -159 15z m142 -232 c43 -18 111 -93 128 -142 7 -21 14 -70 14 -109
0 -58 -5 -80 -30 -130 -89 -178 -293 -178 -381 1 -66 135 -10 326 111 380 39
17 117 18 158 0z m12 -748 c65 -34 116 -113 136 -207 29 -139 -36 -298 -144
-350 -113 -55 -238 3 -301 138 -17 37 -21 65 -21 146 0 89 3 105 27 151 68
130 193 180 303 122z"/>
</g>
  </g>
  <!-- 9 -->
  <g transform="translate(900,0) scale(1.010101,1.086957)">
    <g transform="translate(0.000000,184.000000) scale(0.100000,-0.100000)"
fill="#000000" stroke="none">
<path d="M440 1779 c-30 -5 -92 -27 -137 -49 -171 -84 -252 -238 -253 -477 0
-105 23 -181 85 -283 98 -161 266 -232 444 -186 34 9 67 16 72 16 12 0 -24
-88 -83 -201 -64 -124 -157 -247 -285 -379 l-101 -106 60 -39 c34 -22 74 -48
89 -58 l28 -18 77 73 c242 229 412 537 484 873 31 143 39 390 15 471 -57 198
-203 327 -415 367 -14 2 -50 0 -80 -4z m163 -243 c44 -22 78 -60 115 -130 35
-68 38 -196 6 -266 -82 -179 -283 -221 -403 -84 -92 105 -104 259 -28 385 68
113 192 151 310 95z"/>
</g>
  </g>
</svg>