<?xml version="1.0" encoding="utf-8"?>
<svg xmlns="http://www.w3.org/2000/svg" viewBox="0 0 1560 400" width="1560" height="400">
  <!-- A -->
  <g transform="translate(10.3,5.0) scale(0.7819)">
    <g transform="translate(0.000000,243.000000) scale(0.100000,-0.100000)"
fill="#000000" stroke="none">
<path d="M435 2397 c-2 -7 -11 -52 -20 -102 -9 -49 -55 -288 -101 -530 -47
-242 -132 -687 -190 -990 -58 -302 -109 -572 -115 -599 -5 -27 -9 -50 -9 -52
0 -8 279 -4 284 4 2 4 17 77 32 162 15 85 31 160 35 166 5 6 60 11 141 13 73
1 176 4 229 7 l95 6 43 -169 c24 -92 47 -172 52 -177 7 -8 268 -10 276 -3 1 1
-45 232 -103 512 -192 944 -255 1249 -307 1505 l-52 255 -143 2 c-103 1 -144
-2 -147 -10z m279 -1362 c30 -154 54 -281 53 -282 -5 -4 -367 -7 -367 -2 0 6
52 275 129 673 28 142 51 261 52 265 1 8 61 -285 133 -654z"/>
</g>
  </g>
  <!-- B -->
  <g transform="translate(131.5,5.0) scale(0.7819)">
    <g transform="translate(0.000000,243.000000) scale(0.100000,-0.100000)"
fill="#000000" stroke="none">
<path d="M57 2414 c-4 -4 -7 -523 -7 -1154 l0 -1147 47 -6 c68 -9 422 0 523
13 111 14 222 45 283 78 63 34 184 163 225 239 53 100 66 174 65 378 0 152 -3
192 -21 258 -30 108 -68 191 -123 264 l-47 61 25 24 c42 39 112 152 139 224
34 91 42 212 20 314 -45 214 -206 376 -438 440 -66 18 -102 20 -379 20 -168 0
-309 -3 -312 -6z m693 -284 c113 -58 194 -183 195 -300 0 -113 -75 -229 -183
-282 -44 -22 -58 -23 -245 -23 l-198 0 0 304 c0 176 5 307 10 310 5 3 92 7
194 9 173 3 188 2 227 -18z m-24 -890 c77 -34 130 -83 166 -158 l33 -67 0
-205 c0 -203 0 -206 -27 -256 -32 -60 -94 -119 -155 -146 -37 -16 -76 -21
-234 -25 l-189 -6 -2 434 c-2 239 0 437 5 440 4 3 86 7 182 8 158 2 178 0 221
-19z"/>
</g>
  </g>
  <!-- C -->
  <g transform="translate(251.5,5.0) scale(0.7819)">
    <g transform="translate(0.000000,243.000000) scale(0.100000,-0.100000)"
fill="#000000" stroke="none">
<path d="M490 2414 c-170 -36 -304 -144 -387 -311 l-48 -96 -3 -684 c-3 -761
-3 -750 65 -893 26 -54 56 -95 107 -146 98 -99 189 -142 345 -164 221 -33 463
97 564 301 19 41 41 94 46 119 12 51 28 275 23 333 l-3 37 -135 0 -134 0 0
-148 c0 -146 -1 -150 -31 -210 -16 -34 -45 -73 -62 -88 -53 -45 -134 -76 -208
-82 -60 -4 -75 -1 -123 22 -61 30 -124 93 -157 158 -31 59 -35 159 -38 823
l-1 540 25 52 c35 70 95 130 163 161 77 36 195 38 258 5 93 -49 161 -159 171
-276 3 -34 9 -64 13 -67 5 -3 64 -3 131 0 l124 5 -2 78 c-3 143 -57 270 -158
373 -70 70 -140 112 -247 148 -88 30 -191 33 -298 10z"/>
</g>
  </g>
  <!-- D -->
  <g transform="translate(370.7,5.0) scale(0.7819)">
    <g transform="translate(0.000000,243.000000) scale(0.100000,-0.100000)"
fill="#000000" stroke="none">
<path d="M57 2128 c-4 -156 -7 -679 -7 -1162 l0 -879 333 6 c261 4 345 9 391
22 245 66 409 263 430 517 3 37 6 352 7 700 1 626 1 634 -21 698 -46 137 -152
257 -284 319 -119 58 -149 61 -512 61 l-331 0 -6 -282z m710 -14 c67 -32 136
-109 163 -182 22 -57 22 -60 17 -687 -4 -615 -5 -631 -26 -686 -25 -66 -97
-139 -164 -169 -37 -17 -70 -19 -238 -20 l-194 -2 4 674 c2 370 5 682 6 693 1
11 3 109 4 217 l1 197 188 -6 c172 -4 191 -7 239 -29z"/>
</g>
  </g>
  <!-- E -->
  <g transform="translate(491.1,5.0) scale(0.7819)">
    <g transform="translate(0.000000,243.000000) scale(0.100000,-0.100000)"
fill="#000000" stroke="none">
<path d="M50 1251 l0 -1149 43 -4 c23 -3 281 -6 573 -7 l531 -2 7 47 c3 26 6
89 6 140 l0 94 -445 0 -445 0 0 400 0 400 368 0 367 -1 3 131 3 130 -371 0
-370 0 0 355 0 355 435 0 435 0 0 130 0 130 -570 0 -570 0 0 -1149z"/>
</g>
  </g>
  <!-- F -->
  <g transform="translate(610.7,5.0) scale(0.7819)">
    <g transform="translate(0.000000,243.000000) scale(0.100000,-0.100000)"
fill="#000000" stroke="none">
<path d="M53 2293 c4 -75 7 -597 7 -1160 l0 -1024 135 2 135 3 0 519 c-1 286
0 521 2 522 2 2 154 4 338 5 184 2 350 5 368 7 l33 5 -3 132 -3 131 -100 1
c-55 1 -223 2 -373 3 l-272 1 5 273 c3 149 5 311 5 360 l0 87 445 0 445 0 0
129 0 128 -62 7 c-35 3 -299 6 -587 6 l-524 0 6 -137z"/>
</g>
  </g>
  <!-- G -->
  <g transform="translate(731.1,5.0) scale(0.7819)">
    <g transform="translate(0.000000,243.000000) scale(0.100000,-0.100000)"
fill="#000000" stroke="none">
<path d="M515 2405 c-130 -28 -259 -102 -327 -189 -53 -66 -103 -175 -117
-251 -6 -36 -11 -310 -13 -695 -3 -714 -5 -696 69 -850 97 -201 273 -310 503
-310 266 0 477 155 559 409 20 61 21 85 21 523 l0 458 -341 0 -341 0 6 -102
c3 -57 5 -113 6 -125 l0 -23 205 0 205 0 1 -287 c1 -159 1 -306 -1 -328 -5
-93 -89 -203 -188 -248 -72 -33 -180 -31 -254 6 -63 31 -126 95 -158 161 -20
41 -20 58 -20 709 l0 668 25 49 c37 72 79 115 146 149 80 40 133 47 202 27
105 -31 201 -132 235 -249 l17 -58 50 5 c28 3 83 5 124 6 l73 0 -7 56 c-30
243 -183 416 -425 483 -84 24 -167 26 -255 6z"/>
</g>
  </g>
  <!-- H -->
  <g transform="translate(851.3,5.0) scale(0.7724)">
    <g transform="translate(0.000000,246.000000) scale(0.100000,-0.100000)"
fill="#000000" stroke="none">
<path d="M85 2381 l-80 -6 0 -1148 0 -1147 133 0 132 0 1 278 c2 338 3 439 7
608 l2 132 298 1 c163 1 303 -2 309 -7 10 -6 13 -124 15 -512 l3 -504 23 1
c12 0 72 1 132 2 l110 1 0 1150 0 1150 -102 1 c-57 0 -120 1 -141 2 l-37 2 2
-513 3 -512 -90 0 c-49 -1 -188 -3 -307 -6 l-217 -5 -3 133 c-2 73 -4 303 -6
511 -1 208 -4 382 -7 388 -6 9 -43 9 -180 0z"/>
</g>
  </g>
  <!-- I -->
  <g transform="translate(991.0,5.0) scale(0.7724)">
    <g transform="translate(0.000000,246.000000) scale(0.100000,-0.100000)"
fill="#000000" stroke="none">
<path d="M50 2250 l0 -160 84 0 c67 0 85 -3 90 -16 3 -9 5 -392 4 -852 l-3
-837 -87 -3 -88 -3 0 -162 0 -162 330 0 330 0 0 163 0 162 -80 0 -80 0 0 855
0 855 80 0 80 0 0 160 0 160 -330 0 -330 0 0 -160z"/>
</g>
  </g>
  <!-- J -->
  <g transform="translate(1092.1,5.0) scale(0.7724)">
    <g transform="translate(0.000000,246.000000) scale(0.100000,-0.100000)"
fill="#000000" stroke="none">
<path d="M950 2008 c-1 -558 -10 -1380 -15 -1420 -15 -109 -100 -223 -193
-259 -118 -44 -283 1 -357 98 -34 45 -65 125 -65 169 0 31 -15 34 -151 34
-139 0 -133 8 -99 -124 44 -174 157 -327 290 -393 199 -100 426 -89 598 29
111 76 183 179 221 318 21 73 21 95 21 977 l0 903 -67 1 c-38 0 -94 3 -125 5
l-58 5 0 -343z"/>
</g>
  </g>
  <!-- K -->
  <g transform="translate(1212.5,5.0) scale(0.7724)">
    <g transform="translate(0.000000,246.000000) scale(0.100000,-0.100000)"
fill="#000000" stroke="none">
<path d="M60 2032 c0 -181 -3 -701 -7 -1155 l-6 -827 130 0 c120 0 131 1 136
19 2 11 5 160 6 331 l2 312 146 262 c80 143 148 265 153 269 9 10 -1 47 170
-627 76 -301 141 -550 143 -552 2 -3 60 -3 129 -2 l125 3 -189 768 -188 768
91 172 c50 95 110 208 134 252 140 263 167 316 163 320 -5 5 -288 9 -292 4 -7
-8 -261 -483 -531 -991 -16 -32 -34 -58 -38 -58 -5 0 -5 4 -2 10 3 5 3 244 -1
530 l-7 520 -134 0 -133 0 0 -328z"/>
</g>
  </g>
  <!-- L -->
  <g transform="translate(1332.5,5.0) scale(0.7724)">
    <g transform="translate(0.000000,246.000000) scale(0.100000,-0.100000)"
fill="#000000" stroke="none">
<path d="M50 1200 l0 -1150 570 0 570 0 0 135 0 135 -430 0 -430 0 0 1015 0
1015 -140 0 -140 0 0 -1150z"/>
</g>
  </g>
  <!-- M -->
  <g transform="translate(1451.3,5.0) scale(0.7724)">
    <g transform="translate(0.000000,246.000000) scale(0.100000,-0.100000)"
fill="#000000" stroke="none">
<path d="M794 2045 c-87 -167 -161 -305 -164 -305 -4 0 -106 192 -265 502
l-50 98 -132 0 -133 0 0 -1150 0 -1150 130 0 130 0 2 873 3 872 126 -240 c70
-132 139 -264 154 -292 15 -29 31 -53 35 -53 4 0 77 124 161 276 l154 276 3
-856 2 -856 129 0 c107 0 130 3 135 15 3 9 5 528 3 1153 l-2 1137 -131 3 -131
3 -159 -306z"/>
</g>
  </g>
  <!-- N -->
  <g transform="translate(11.3,205.0) scale(0.7724)">
    <g transform="translate(0.000000,246.000000) scale(0.100000,-0.100000)"
fill="#000000" stroke="none">
<path d="M50 1191 l0 -1140 115 3 c64 2 118 6 121 9 8 8 11 108 19 647 4 261
10 567 14 680 l6 204 94 -239 c89 -229 172 -438 366 -930 48 -121 100 -255
116 -297 l30 -78 133 0 133 0 7 928 c4 510 9 1020 11 1133 l5 207 -31 6 c-18
3 -83 6 -145 6 l-114 0 0 -727 c0 -399 -3 -723 -7 -719 -4 3 -37 79 -74 169
-222 538 -522 1254 -531 1265 -7 8 -48 12 -139 12 l-129 0 0 -1139z"/>
</g>
  </g>
  <!-- O -->
  <g transform="translate(132.9,205.0) scale(0.7540)">
    <g transform="translate(0.000000,252.000000) scale(0.100000,-0.100000)"
fill="#000000" stroke="none">
<path d="M522 2469 c-185 -32 -331 -136 -414 -295 -71 -135 -68 -103 -68 -854
0 -748 -1 -738 66 -875 40 -83 149 -190 236 -233 137 -67 283 -87 403 -57 179
45 322 157 393 307 67 139 65 119 59 852 l-6 661 -25 73 c-37 108 -74 169
-149 248 -126 133 -324 203 -495 173z m224 -295 c62 -29 137 -107 167 -172 22
-47 22 -54 25 -690 l3 -643 -29 -62 c-55 -117 -151 -186 -273 -195 -128 -9
-230 53 -295 179 l-28 54 -4 662 c-4 745 -7 721 70 808 91 104 226 126 364 59z"/>
</g>
  </g>
  <!-- P -->
  <g transform="translate(253.3,205.0) scale(0.7540)">
    <g transform="translate(0.000000,252.000000) scale(0.100000,-0.100000)"
fill="#000000" stroke="none">
<path d="M60 2228 c0 -89 -1 -601 -3 -1136 l-2 -972 133 0 132 0 0 489 0 489
218 4 c195 4 223 6 273 26 175 69 304 193 361 347 20 53 23 79 23 225 0 124
-4 184 -18 241 -41 175 -137 307 -270 373 -129 63 -166 68 -524 73 l-323 5 0
-164z m675 -139 c43 -16 75 -38 115 -78 74 -75 95 -133 94 -261 0 -133 -30
-223 -95 -295 -77 -84 -112 -94 -339 -101 l-190 -5 0 387 0 387 178 -6 c151
-4 186 -8 237 -28z"/>
</g>
  </g>
  <!-- Q -->
  <g transform="translate(372.5,205.0) scale(0.7540)">
    <g transform="translate(0.000000,252.000000) scale(0.100000,-0.100000)"
fill="#000000" stroke="none">
<path d="M530 2363 c-14 -2 -54 -13 -90 -25 -152 -48 -263 -143 -329 -280 -21
-46 -44 -107 -50 -137 -14 -68 -14 -1245 0 -1345 17 -126 95 -270 187 -343
159 -128 400 -174 582 -110 68 23 76 24 87 10 7 -9 14 -20 15 -25 2 -5 70 -7
151 -6 l147 3 -64 96 -65 96 57 113 57 112 -3 416 c-2 230 -7 546 -11 704 l-7
286 -48 98 c-38 76 -64 112 -116 164 -131 130 -336 200 -500 173z m195 -281
c59 -20 141 -96 174 -161 27 -52 37 -150 42 -411 5 -268 -2 -898 -11 -929 -6
-22 -21 1 -104 172 l-98 198 -127 -2 c-71 0 -133 -4 -139 -8 -7 -4 40 -108
133 -293 163 -322 159 -298 44 -298 -151 0 -260 85 -307 240 -20 66 -32 1212
-14 1275 24 81 80 159 139 196 78 48 166 55 268 21z"/>
</g>
  </g>
  <!-- R -->
  <g transform="translate(492.1,205.0) scale(0.7540)">
    <g transform="translate(0.000000,252.000000) scale(0.100000,-0.100000)"
fill="#000000" stroke="none">
<path d="M57 2353 c-7 -6 -6 -1001 1 -1860 l3 -403 136 0 135 0 -3 493 -4 492
128 3 127 3 16 -36 c8 -21 85 -231 171 -469 85 -237 160 -443 165 -458 l10
-28 143 0 143 0 -175 478 c-191 519 -198 541 -192 544 2 2 31 16 64 33 81 40
193 152 234 232 46 91 62 164 62 278 2 294 -128 540 -335 640 -118 57 -186 65
-525 65 -164 0 -301 -3 -304 -7z m648 -273 c105 -32 188 -118 223 -230 24 -77
23 -247 -1 -317 -25 -72 -88 -140 -162 -174 -60 -29 -61 -29 -257 -29 l-198 0
0 386 0 386 178 -5 c97 -3 195 -10 217 -17z"/>
</g>
  </g>
  <!-- S -->
  <g transform="translate(612.1,205.0) scale(0.7540)">
    <g transform="translate(0.000000,252.000000) scale(0.100000,-0.100000)"
fill="#000000" stroke="none">
<path d="M491 2364 c-248 -66 -410 -306 -414 -609 -1 -89 3 -111 33 -199 74
-219 226 -360 416 -387 38 -5 100 -14 138 -20 166 -23 260 -128 286 -316 11
-82 9 -110 -12 -208 -26 -121 -102 -216 -187 -234 -68 -15 -174 -14 -225 1
-66 20 -135 97 -170 190 -16 42 -36 80 -44 83 -9 3 -72 5 -140 4 l-124 -1 7
-52 c35 -258 201 -458 427 -511 80 -19 205 -19 286 0 161 38 297 152 376 317
76 158 95 270 71 429 -53 357 -207 511 -562 563 -57 8 -122 24 -146 34 -55 25
-114 84 -139 142 -25 56 -34 193 -19 275 22 115 111 212 217 236 46 10 63 10
121 -6 56 -15 76 -27 114 -66 56 -57 99 -145 106 -216 l6 -53 126 6 c69 4 128
8 130 10 10 9 -23 163 -49 236 -84 229 -274 369 -499 367 -42 0 -100 -7 -130
-15z"/>
</g>
  </g>
  <!-- T -->
  <g transform="translate(732.1,205.0) scale(0.7540)">
    <g transform="translate(0.000000,252.000000) scale(0.100000,-0.100000)"
fill="#000000" stroke="none">
<path d="M50 2231 l0 -141 183 -1 c100 0 200 -4 222 -7 l40 -7 0 -990 0 -990
133 -3 132 -3 0 1001 0 1000 233 2 232 3 3 126 3 127 -27 5 c-14 2 -150 5
-303 6 -152 1 -405 4 -563 7 l-288 6 0 -141z"/>
</g>
  </g>
  <!-- U -->
  <g transform="translate(853.6,205.0) scale(0.7540)">
    <g transform="translate(0.000000,252.000000) scale(0.100000,-0.100000)"
fill="#000000" stroke="none">
<path d="M950 1428 l1 -901 -26 -53 c-48 -99 -175 -184 -274 -184 -131 0 -249
89 -301 226 -19 53 -20 76 -20 837 0 430 -3 824 -7 875 l-6 93 -131 -3 -131
-3 1 -50 c0 -27 3 -385 8 -795 9 -979 9 -963 42 -1047 37 -92 86 -167 150
-228 166 -160 439 -199 662 -95 90 42 194 149 243 250 74 151 70 85 69 1083
l-1 897 -140 0 -139 0 0 -902z"/>
</g>
  </g>
  <!-- V -->
  <g transform="translate(971.1,205.0) scale(0.7884)">
    <g transform="translate(0.000000,241.000000) scale(0.100000,-0.100000)"
fill="#000000" stroke="none">
<path d="M30 2336 c0 -12 20 -133 45 -271 25 -137 114 -638 199 -1113 85 -475
156 -865 158 -868 7 -7 268 -15 268 -9 0 7 132 621 200 930 22 99 85 389 140
645 55 256 111 513 124 573 l23 107 -21 5 c-35 7 -247 12 -251 6 -2 -4 -76
-332 -164 -731 -89 -399 -165 -734 -169 -744 -6 -13 -20 47 -45 185 -141 787
-228 1267 -232 1286 -5 21 -9 22 -140 20 -129 -1 -135 -2 -135 -21z"/>
</g>
  </g>
  <!-- W -->
  <g transform="translate(1090.3,205.0) scale(0.7884)">
    <g transform="translate(0.000000,241.000000) scale(0.100000,-0.100000)"
fill="#000000" stroke="none">
<path d="M939 2290 c-1 -14 -2 -43 -4 -65 -2 -22 -9 -150 -15 -285 -6 -135
-15 -326 -20 -425 -5 -99 -10 -202 -11 -230 l-1 -50 -14 50 c-7 28 -64 269
-126 538 -67 289 -115 480 -119 469 -4 -10 -41 -173 -83 -362 -140 -628 -149
-669 -158 -664 -4 3 -8 31 -8 62 0 31 -7 147 -15 257 -8 110 -22 318 -31 463
l-18 262 -133 0 -133 0 0 -32 c0 -28 8 -160 35 -568 11 -166 46 -730 66 -1055
27 -449 38 -607 41 -611 2 -1 55 -4 117 -5 88 -1 116 2 121 12 4 8 52 214 105
459 54 245 101 451 105 458 4 8 14 -22 23 -70 119 -618 159 -816 166 -834 8
-19 18 -21 130 -23 67 -1 121 1 121 6 0 4 3 31 5 58 3 28 14 208 25 400 11
193 24 420 30 505 5 85 14 234 20 330 38 654 50 862 55 912 l5 57 -140 3 -140
3 -1 -25z"/>
</g>
  </g>
  <!-- X -->
  <g transform="translate(1210.7,205.0) scale(0.7884)">
    <g transform="translate(0.000000,241.000000) scale(0.100000,-0.100000)"
fill="#000000" stroke="none">
<path d="M60 2277 c0 -8 97 -272 215 -587 118 -315 215 -578 215 -584 0 -6
-101 -254 -223 -551 l-223 -540 65 -6 c36 -4 98 -7 136 -8 l70 -1 154 371 c85
203 158 372 161 374 4 2 74 -164 155 -370 l148 -375 140 0 c139 0 139 0 135
22 -3 13 -100 266 -217 562 l-213 539 216 571 c119 314 216 576 216 582 0 6
-48 11 -133 13 l-133 2 -148 -383 c-81 -211 -151 -386 -155 -390 -4 -5 -74
166 -157 380 l-150 387 -137 3 c-111 2 -137 0 -137 -11z"/>
</g>
  </g>
  <!-- Y -->
  <g transform="translate(1331.1,205.0) scale(0.7884)">
    <g transform="translate(0.000000,241.000000) scale(0.100000,-0.100000)"
fill="#000000" stroke="none">
<path d="M50 2301 c0 -4 30 -71 66 -147 84 -178 118 -248 275 -586 l129 -276
0 -635 0 -634 136 -2 136 -2 -3 638 -4 638 208 495 c114 273 207 501 207 507
0 8 -45 12 -144 12 l-143 1 -128 -313 c-70 -171 -129 -314 -130 -315 -2 -2
-73 138 -159 312 l-155 316 -145 0 c-80 0 -146 -4 -146 -9z"/>
</g>
  </g>
  <!-- Z -->
  <g transform="translate(1450.7,205.0) scale(0.7884)">
    <g transform="translate(0.000000,241.000000) scale(0.100000,-0.100000)"
fill="#000000" stroke="none">
<path d="M50 2154 l0 -137 416 8 c401 6 415 6 406 -12 -5 -10 -32 -67 -60
-128 -28 -60 -71 -155 -97 -210 -26 -55 -100 -215 -165 -355 -65 -140 -153
-329 -195 -420 -42 -91 -104 -223 -137 -295 -34 -71 -83 -177 -109 -234 l-49
-103 0 -134 0 -134 575 0 576 0 -3 133 -3 132 -417 3 c-239 1 -418 6 -418 11
0 32 480 1103 682 1521 121 250 116 234 118 350 1 58 2 113 1 123 -1 16 -35
17 -561 17 l-560 0 0 -136z"/>
</g>
  </g>
</svg>