<?xml version="1.0" encoding="utf-8"?>
<svg xmlns="http://www.w3.org/2000/svg" viewBox="0 0 1000 800" width="1000" height="800">
  <!-- 京 -->
  <g transform="translate(0,0) scale(0.961538,1.092896)">
    <g transform="translate(0.000000,183.000000) scale(0.100000,-0.100000)"
fill="#000000" stroke="none">
<path d="M422 1812 c-5 -1 -3 -33 4 -70 7 -37 13 -73 14 -79 0 -10 -47 -13
-205 -13 l-205 0 0 -75 0 -75 468 2 467 3 2 55 c3 96 16 90 -187 90 -204 0
-184 -10 -196 103 l-6 67 -74 -2 c-40 -2 -77 -4 -82 -6z"/>
<path d="M140 1076 c0 -157 3 -285 8 -285 4 1 64 1 135 0 l127 -1 0 -267 c0
-148 -4 -274 -8 -281 -5 -7 -31 -14 -60 -15 -29 -1 -52 -6 -52 -11 0 -5 7 -36
16 -68 l17 -59 108 2 c70 1 109 5 112 13 2 6 5 81 7 166 1 85 4 173 5 195 2
22 4 104 5 183 l2 142 132 0 133 0 7 276 c4 152 5 278 3 280 -3 3 -160 8 -351
11 l-346 6 0 -287z m478 138 l72 -6 0 -139 0 -139 -195 0 -195 0 0 144 0 143
123 2 c67 1 155 -1 195 -5z"/>
<path d="M186 698 c-3 -7 -14 -56 -27 -108 -28 -120 -78 -268 -115 -344 -28
-57 -28 -58 -9 -72 11 -8 37 -19 58 -25 21 -5 45 -13 53 -16 16 -6 21 6 91
187 41 107 103 309 103 335 0 6 -31 21 -68 33 -80 26 -81 26 -86 10z"/>
<path d="M723 679 c-35 -11 -63 -24 -63 -29 0 -5 20 -69 44 -142 24 -73 56
-187 71 -253 16 -66 29 -121 30 -122 2 -4 120 30 128 37 10 8 -34 235 -68 352
-29 100 -61 178 -72 177 -4 0 -36 -9 -70 -20z"/>
</g>
  </g>
  <!-- 津 -->
  <g transform="translate(100,0) scale(1.000000,1.092896)">
    <g transform="translate(0.000000,183.000000) scale(0.100000,-0.100000)"
fill="#000000" stroke="none">
<path d="M520 1785 c0 -22 -3 -57 -6 -77 l-7 -38 -73 0 -74 0 -1 -40 c-4 -118
-10 -110 81 -110 l80 0 0 -65 0 -65 -110 0 -110 0 0 -75 0 -74 107 -3 107 -3
4 -62 4 -63 -81 0 -81 0 0 -75 0 -74 78 -3 77 -3 0 -65 0 -65 -87 -3 -88 -3 0
-79 0 -79 88 -3 87 -3 2 -72 c1 -40 -1 -75 -5 -77 -5 -3 -50 -6 -102 -7 -136
-3 -130 1 -130 -80 l0 -68 118 -3 117 -3 0 -128 0 -127 75 0 75 0 0 133 0 132
143 3 142 3 0 69 0 69 -142 3 -143 3 0 80 0 80 123 3 123 3 -3 72 -3 72 -110
3 c-60 1 -115 4 -122 7 -7 2 -11 26 -10 67 l2 63 113 3 112 3 0 139 c0 117 2
140 15 141 8 1 20 3 25 4 6 1 15 3 20 4 6 0 10 32 10 71 l0 70 -35 0 -35 0 0
140 0 140 -110 0 c-81 0 -110 3 -111 13 -1 6 -2 41 -3 77 l-1 65 -72 0 -73 1
0 -41z m218 -327 l-3 -73 -35 0 -35 0 -3 59 c-4 77 0 86 43 86 l36 0 -3 -72z
m2 -288 l0 -70 -40 0 -40 0 0 70 0 70 40 0 40 0 0 -70z"/>
<path d="M131 1724 c-22 -26 -41 -50 -41 -54 0 -4 14 -27 31 -50 18 -24 46
-68 64 -97 l31 -52 54 54 54 55 -46 67 c-26 38 -60 81 -76 96 l-29 28 -42 -47z"/>
<path d="M114 1338 c-60 -66 -61 -56 12 -164 37 -55 72 -98 78 -96 13 3 86 84
86 95 0 16 -129 197 -140 197 -3 0 -20 -15 -36 -32z"/>
<path d="M166 958 c-3 -18 -19 -133 -36 -256 -17 -123 -42 -264 -55 -315 -35
-128 -34 -134 25 -192 59 -59 66 -55 86 42 18 84 79 447 95 566 l12 88 -49 50
c-26 27 -54 49 -61 49 -7 0 -15 -15 -17 -32z"/>
</g>
  </g>
  <!-- 冀 -->
  <g transform="translate(200,0) scale(1.010101,1.092896)">
    <g transform="translate(0.000000,183.000000) scale(0.100000,-0.100000)"
fill="#000000" stroke="none">
<path d="M330 1781 c0 -35 -4 -51 -16 -55 -9 -3 -72 -6 -140 -6 l-125 0 3 -56
3 -56 120 1 c67 1 129 -1 138 -5 10 -4 17 -17 17 -34 0 -32 12 -28 -159 -56
l-103 -17 6 -46 c3 -25 10 -49 15 -54 8 -8 89 -1 204 19 35 6 37 5 37 -19 0
-20 6 -26 35 -31 19 -4 51 -4 70 0 l35 6 0 229 0 229 -70 0 -70 0 0 -49z"/>
<path d="M559 1819 c-6 -3 -12 -75 -15 -172 -6 -186 2 -232 43 -248 32 -12
229 -12 272 1 31 9 91 55 91 70 0 3 -14 28 -30 54 l-31 48 -26 -26 c-14 -14
-33 -26 -42 -27 -9 0 -39 -3 -68 -5 -57 -3 -61 0 -67 45 l-3 30 116 36 c64 20
124 38 134 41 9 3 17 10 17 15 0 10 -40 109 -44 109 -1 0 -49 -16 -106 -35
-57 -19 -105 -35 -107 -35 -2 0 -3 25 -3 55 l0 56 -60 -3 c-34 -1 -65 -5 -71
-9z"/>
<path d="M193 1312 l-43 -3 0 -250 0 -249 75 0 75 0 0 -50 0 -50 -95 0 -95 0
0 -64 0 -63 85 -1 c46 0 88 -3 92 -5 13 -8 9 -102 -5 -103 -7 -1 -62 -2 -123
-3 l-110 -1 2 -58 3 -57 140 -5 141 -5 -85 -56 c-47 -31 -109 -67 -138 -79
-28 -12 -52 -26 -52 -29 0 -4 15 -21 32 -37 66 -61 60 -60 145 -14 108 59 193
118 193 135 0 7 -21 29 -46 47 l-46 33 81 3 c44 2 117 2 162 0 l81 -3 -46 -32
c-25 -18 -46 -37 -46 -43 0 -6 14 -19 31 -28 17 -9 74 -45 127 -79 53 -35 100
-63 104 -63 16 0 97 65 95 75 -2 6 -56 46 -121 90 l-118 80 131 3 131 3 0 64
0 65 -105 0 -105 0 0 50 0 50 74 0 c50 0 75 4 79 13 2 6 4 37 3 67 l-1 55 -77
3 -78 3 0 44 0 45 65 0 65 0 0 255 0 255 -317 -2 c-175 -1 -337 -4 -360 -6z
m508 -122 l49 0 0 -37 0 -38 -87 1 -88 2 -3 32 c-4 39 12 53 52 45 16 -3 50
-5 77 -5z m-251 -40 l0 -40 -85 0 -85 0 0 40 0 40 85 0 85 0 0 -40z m-12 -149
c9 -1 12 -13 10 -38 l-4 -38 -82 -3 -82 -3 0 39 c0 21 2 41 4 43 4 3 100 3
154 0z m304 -37 c2 -19 2 -37 -1 -38 -3 -2 -42 -3 -86 -2 l-80 1 -3 38 -3 37
84 0 85 0 4 -36z m-142 -204 l0 -50 -85 0 -85 0 0 50 0 50 85 0 85 0 0 -50z
m0 -230 l0 -60 -90 0 -90 0 0 60 0 60 90 0 90 0 0 -60z"/>
</g>
  </g>
  <!-- 晋 -->
  <g transform="translate(300,0) scale(1.020408,1.092896)">
    <g transform="translate(0.000000,183.000000) scale(0.100000,-0.100000)"
fill="#000000" stroke="none">
<path d="M126 1822 c-3 -3 -6 -36 -6 -74 l0 -68 95 0 95 0 0 -220 0 -220 -130
0 -130 0 0 -70 0 -70 445 0 445 0 0 70 0 70 -125 0 -125 0 0 220 0 220 95 0
95 0 0 75 0 75 -374 -1 c-206 -1 -377 -4 -380 -7z m419 -367 l0 -220 -37 -3
-38 -3 0 229 0 229 38 -6 37 -6 0 -220z"/>
<path d="M795 1597 c-20 -52 -74 -221 -72 -223 6 -6 110 -44 113 -41 6 6 84
220 82 222 -7 6 -71 36 -93 45 -19 7 -27 6 -30 -3z"/>
<path d="M122 1565 l-52 -36 16 -37 c8 -20 27 -65 41 -100 14 -34 29 -65 34
-67 4 -3 33 8 63 25 l55 31 -19 47 c-52 129 -69 167 -77 169 -4 2 -32 -13 -61
-32z"/>
<path d="M208 973 c-17 -4 -18 -32 -19 -396 -1 -216 -2 -413 -3 -439 l-1 -48
78 0 77 0 0 40 0 40 160 0 160 0 0 -40 0 -40 70 0 70 0 0 445 0 445 -287 -1
c-159 -1 -296 -4 -305 -6z m457 -166 c4 -13 4 -53 2 -88 l-4 -64 -166 -3 -167
-2 0 90 0 90 165 0 c164 0 165 0 170 -23z m-2 -300 c6 -17 7 -156 0 -179 -4
-16 -20 -18 -163 -18 -143 0 -159 2 -163 18 -7 23 -6 162 0 179 7 19 319 19
326 0z"/>
</g>
  </g>
  <!-- 蒙 -->
  <g transform="translate(400,0) scale(1.010101,1.092896)">
    <g transform="translate(0.000000,183.000000) scale(0.100000,-0.100000)"
fill="#000000" stroke="none">
<path d="M259 1808 c-1 -4 -6 -54 -8 -85 -1 -21 -6 -22 -98 -25 l-98 -3 0 -60
0 -60 98 -3 97 -3 0 -39 0 -40 -90 0 -90 0 0 -135 0 -136 68 3 67 3 3 71 3 72
279 1 c153 0 286 -2 294 -5 12 -5 16 -21 16 -70 l0 -64 70 0 69 0 -2 128 -2
127 -100 5 -100 5 0 43 -1 42 109 0 108 0 -3 65 -3 65 -102 0 -103 0 -2 38 c0
20 -1 43 -1 50 1 8 -19 12 -68 12 l-69 0 0 -55 0 -55 -97 0 -98 0 0 52 0 53
-72 3 c-40 2 -73 2 -74 0z m339 -282 l3 -46 -105 0 -106 0 0 43 c0 24 2 46 5
48 2 3 48 4 102 3 l98 -1 3 -47z"/>
<path d="M432 1293 l-163 -3 3 -63 3 -62 228 -2 227 -1 0 63 0 62 -37 7 c-21
3 -51 5 -68 4 -16 -2 -103 -4 -193 -5z"/>
<path d="M103 1113 c-9 -3 -13 -26 -13 -64 l0 -59 141 0 c172 0 172 -6 1 -76
-64 -26 -120 -50 -125 -54 -4 -3 2 -30 14 -58 17 -41 26 -52 45 -52 20 0 219
97 251 122 16 13 43 3 43 -15 0 -8 -9 -26 -20 -40 -25 -32 -182 -150 -267
-201 -35 -21 -63 -40 -63 -44 0 -26 35 -92 49 -92 29 0 196 116 275 190 42 40
79 71 81 68 3 -2 8 -18 11 -35 6 -29 -1 -38 -74 -115 -44 -46 -148 -139 -230
-207 l-150 -124 19 -41 c14 -32 23 -40 40 -38 39 4 151 93 287 226 114 112
132 126 133 105 10 -163 -77 -289 -198 -289 -14 0 -23 -4 -21 -8 2 -4 14 -33
27 -65 24 -56 26 -57 65 -57 100 0 194 94 235 235 20 66 29 205 20 279 -7 52
-6 72 3 77 17 11 28 1 28 -25 0 -48 51 -223 84 -291 19 -38 48 -83 64 -98 l30
-29 32 58 c27 45 31 60 22 73 -51 70 -127 263 -139 349 -5 39 -3 46 36 92 l42
50 -26 45 c-15 25 -31 45 -37 45 -5 0 -44 -31 -86 -70 -42 -38 -79 -70 -83
-70 -3 0 -30 32 -59 72 -40 55 -50 76 -43 87 14 22 93 30 246 27 l127 -3 0 64
0 63 -402 -1 c-222 0 -409 -3 -415 -6z"/>
</g>
  </g>
  <!-- 辽 -->
  <g transform="translate(500,0) scale(1.041667,1.092896)">
    <g transform="translate(0.000000,183.000000) scale(0.100000,-0.100000)"
fill="#000000" stroke="none">
<path d="M165 1775 c-33 -20 -61 -38 -63 -39 -4 -4 117 -268 128 -279 6 -7
120 58 120 68 0 15 -47 130 -81 198 l-44 87 -60 -35z"/>
<path d="M468 1792 l-88 -3 0 -74 0 -75 160 0 c88 0 160 -3 160 -6 0 -3 -27
-42 -60 -86 l-60 -80 0 -465 c1 -523 5 -493 -74 -514 -23 -5 -47 -12 -54 -14
-9 -3 -3 -24 22 -74 l35 -69 43 10 c63 14 120 42 148 73 l25 27 -3 489 -3 489
79 92 c113 134 112 132 112 215 l0 72 -177 -2 c-98 -1 -217 -3 -265 -5z"/>
<path d="M60 1250 l0 -80 63 0 62 0 -1 -373 0 -372 -26 -55 c-26 -55 -50 -86
-88 -113 l-21 -15 27 -66 c14 -36 30 -69 36 -72 10 -6 113 94 139 135 l16 25
64 -66 c95 -97 133 -108 352 -108 95 0 182 3 193 6 17 4 24 17 31 62 6 32 12
64 14 72 3 13 -24 15 -199 16 l-204 2 -55 38 c-31 21 -73 61 -95 87 l-38 49 0
454 0 454 -135 0 -135 0 0 -80z"/>
</g>
  </g>
  <!-- 吉 -->
  <g transform="translate(600,0) scale(1.020408,1.092896)">
    <g transform="translate(0.000000,183.000000) scale(0.100000,-0.100000)"
fill="#000000" stroke="none">
<path d="M430 1700 l0 -130 -190 0 -191 0 3 -77 3 -78 185 -1 185 -1 3 -126 3
-127 -151 0 -150 0 0 -70 0 -70 370 0 370 0 0 75 0 75 -145 0 -145 0 0 125 0
125 180 0 180 0 0 75 0 75 -177 0 -178 0 1 118 c0 64 -1 123 -4 130 -3 8 -28
12 -78 12 l-74 0 0 -130z"/>
<path d="M160 480 l0 -391 78 3 77 3 0 40 0 40 190 0 c160 0 190 -2 187 -14
-2 -8 -1 -25 3 -38 5 -21 11 -23 75 -23 l70 0 0 385 0 385 -340 0 -340 0 0
-390z m540 45 l0 -205 -195 0 -195 0 0 205 0 205 195 0 195 0 0 -205z"/>
</g>
  </g>
  <!-- 黑 -->
  <g transform="translate(700,0) scale(1.020408,1.092896)">
    <g transform="translate(0.000000,183.000000) scale(0.100000,-0.100000)"
fill="#000000" stroke="none">
<path d="M114 1803 c-5 -2 -8 -144 -7 -366 l2 -362 155 -3 156 -3 0 -64 0 -65
-145 0 -145 0 0 -70 0 -70 145 0 145 0 0 -65 0 -65 -180 0 -180 0 -5 -23 c-4
-13 -5 -43 -3 -68 l3 -44 443 -3 442 -2 0 70 0 70 -185 0 -185 0 0 65 0 65
150 0 150 0 0 70 0 70 -150 0 -150 0 0 65 0 65 160 0 160 0 0 371 0 371 -383
-3 c-211 -1 -387 -4 -393 -6z m315 -228 c-1 -53 -5 -98 -9 -100 -9 -6 -60 51
-60 66 0 16 -25 10 -60 -16 -19 -14 -38 -25 -42 -25 -4 0 -8 38 -8 85 l0 85
90 0 91 0 -2 -95z m319 20 c4 -86 -7 -95 -61 -49 l-31 26 -16 -23 c-8 -13 -27
-37 -42 -54 l-27 -30 -1 103 0 102 88 0 87 0 3 -75z m-381 -263 c47 -59 68
-104 55 -117 -3 -3 -43 -5 -89 -5 l-83 0 0 132 0 133 33 -39 c17 -22 55 -68
84 -104z m381 11 l-3 -128 -84 -3 c-47 -2 -89 2 -94 7 -7 7 -2 22 14 45 13 18
51 73 84 120 33 47 66 86 73 86 10 0 12 -28 10 -127z"/>
<path d="M775 468 c-27 -12 -51 -23 -53 -24 -2 -1 17 -66 42 -145 26 -78 44
-150 41 -159 -3 -10 -3 -24 1 -33 5 -14 15 -12 70 16 50 24 64 36 64 54 0 33
-46 168 -83 245 l-32 67 -50 -21z"/>
<path d="M126 438 c-30 -144 -40 -185 -52 -214 -27 -64 -21 -79 47 -108 34
-15 63 -25 64 -24 18 22 65 235 65 292 0 30 -4 34 -52 52 -29 10 -56 20 -60
22 -4 2 -9 -7 -12 -20z"/>
<path d="M600 443 c-8 -2 -34 -11 -56 -19 l-42 -15 28 -107 c16 -59 31 -128
35 -155 6 -39 11 -47 29 -47 27 0 126 46 126 59 0 13 -92 275 -99 282 -3 4
-13 5 -21 2z"/>
<path d="M350 428 c-19 -5 -39 -13 -44 -18 -7 -7 17 -258 29 -297 3 -8 12 -9
32 -3 52 17 103 36 109 43 5 5 -33 202 -52 270 -6 19 -22 20 -74 5z"/>
</g>
  </g>
  <!-- 沪 -->
  <g transform="translate(800,0) scale(1.030928,1.092896)">
    <g transform="translate(0.000000,183.000000) scale(0.100000,-0.100000)"
fill="#000000" stroke="none">
<path d="M562 1782 c-61 -31 -61 -21 -10 -159 37 -105 39 -106 119 -72 34 15
49 27 49 40 0 17 -96 220 -103 218 -1 0 -26 -12 -55 -27z"/>
<path d="M123 1734 l-52 -46 60 -71 c34 -40 66 -82 72 -94 15 -33 28 -29 86
23 l51 46 -39 47 c-22 25 -59 67 -83 93 l-43 48 -52 -46z"/>
<path d="M387 1003 c-4 -450 -6 -495 -25 -574 -23 -97 -61 -195 -91 -238 l-21
-29 61 -38 62 -37 18 24 c75 96 126 313 145 612 l6 107 119 0 119 0 6 -30 c6
-30 7 -30 75 -30 l69 0 0 360 0 360 -269 0 -269 0 -5 -487z m403 160 l0 -188
-125 0 -125 0 0 188 0 187 125 0 125 0 0 -187z"/>
<path d="M95 1345 c-57 -50 -61 -34 50 -158 l69 -79 48 50 c26 28 48 54 48 59
0 5 -37 45 -82 90 l-83 82 -50 -44z"/>
<path d="M156 918 c-11 -131 -45 -360 -77 -518 -16 -80 -29 -150 -29 -157 0
-18 102 -125 110 -116 19 20 68 278 115 603 l25 175 -22 18 c-35 27 -106 77
-111 77 -2 0 -7 -37 -11 -82z"/>
</g>
  </g>
  <!-- 苏 -->
  <g transform="translate(900,0) scale(1.000000,1.069519)">
    <g transform="translate(0.000000,187.000000) scale(0.100000,-0.100000)"
fill="#000000" stroke="none">
<path d="M293 1772 l-73 -3 0 -79 0 -80 -90 0 -90 0 0 -70 0 -70 89 0 88 0 -5
-69 -5 -69 33 -7 c17 -4 52 -4 76 0 l44 6 0 65 0 64 115 0 115 0 0 -64 c0 -74
2 -76 90 -76 l57 0 7 38 c3 20 6 52 6 70 l0 32 90 0 90 0 0 74 0 74 -87 -2
-88 -1 3 76 c4 88 4 89 -100 89 l-58 0 0 -80 0 -80 -115 0 -114 0 -3 83 -3 82
-72 -3z"/>
<path d="M366 1244 c-3 -9 -6 -47 -6 -86 l0 -70 -132 3 -132 3 -3 -70 c-3 -52
-1 -73 9 -76 7 -3 66 -5 130 -4 137 1 126 16 103 -139 -37 -243 -125 -449
-262 -612 l-44 -52 52 -40 c28 -23 55 -41 59 -41 5 0 33 27 62 60 94 103 188
309 236 515 17 71 52 275 52 300 0 3 16 5 36 5 l36 0 -6 -332 c-4 -183 -9
-347 -12 -365 -7 -50 -27 -63 -94 -63 l-58 0 17 -68 17 -67 42 -3 c53 -4 143
21 165 46 43 48 65 189 68 434 0 74 4 140 8 146 4 7 22 -40 41 -103 19 -64 37
-121 42 -128 5 -9 19 -6 53 13 26 14 50 30 55 35 7 9 -81 319 -94 332 -2 2
-18 -3 -35 -11 -61 -32 -62 -29 -61 112 1 70 1 137 1 150 -1 21 -4 22 -106 22
l-105 0 0 85 0 85 -64 0 c-49 0 -65 -4 -70 -16z"/>
<path d="M105 733 c-21 -54 -51 -124 -66 -155 l-29 -58 25 -15 c14 -8 36 -22
50 -30 13 -8 29 -15 35 -15 13 0 60 95 104 212 20 53 36 99 36 102 0 7 -96 56
-109 56 -5 0 -26 -44 -46 -97z"/>
</g>
  </g>
  <!-- 浙 -->
  <g transform="translate(0,200) scale(1.000000,1.069519)">
    <g transform="translate(0.000000,187.000000) scale(0.100000,-0.100000)"
fill="#000000" stroke="none">
<path d="M380 1585 l0 -195 -55 0 -55 0 0 -71 0 -72 55 6 c51 5 55 4 56 -16 0
-12 0 -100 -1 -195 l-1 -172 -42 -40 -42 -39 -3 30 c-3 26 -11 34 -58 56 -31
14 -57 23 -58 22 -2 -2 -11 -62 -20 -134 -26 -189 -73 -471 -90 -535 -8 -30
-14 -55 -13 -56 1 -1 27 -17 57 -37 50 -34 55 -35 61 -18 8 21 97 526 106 600
7 61 17 58 34 -9 7 -28 15 -50 19 -50 3 0 16 7 28 16 l22 15 0 -244 c0 -261
-2 -271 -52 -285 l-26 -7 22 -52 c12 -29 25 -55 29 -59 13 -13 117 47 132 76
12 24 15 87 15 362 l0 332 51 52 51 51 -12 44 c-19 76 -18 75 -50 44 l-30 -29
-1 80 c0 43 -1 106 -2 139 l-1 60 57 3 57 3 0 -396 c0 -361 -2 -406 -21 -498
-11 -56 -30 -123 -41 -149 l-21 -48 28 -41 c35 -50 42 -54 61 -38 50 42 101
217 109 374 5 108 14 492 15 618 0 75 1 77 25 77 l25 0 0 -549 0 -549 45 -4
c24 -2 49 -2 55 0 7 3 10 189 10 553 l0 549 25 0 c24 0 25 2 25 71 l0 70 -67
-1 c-38 -1 -84 -1 -103 -1 l-36 1 1 126 0 125 67 27 c37 15 79 36 94 48 l28
20 -23 55 c-13 30 -25 56 -27 58 -2 2 -38 -14 -81 -36 -43 -22 -102 -48 -130
-58 l-53 -17 0 -127 0 -128 -57 -6 c-32 -3 -60 -4 -63 -1 -3 3 -4 93 -3 200
l1 194 -64 0 -64 0 0 -195z"/>
<path d="M141 1661 l-43 -37 47 -82 c27 -46 52 -85 56 -88 5 -3 25 4 46 15 70
37 69 32 29 108 -21 39 -49 82 -64 96 l-27 26 -44 -38z"/>
<path d="M97 1282 c-20 -21 -37 -41 -37 -45 0 -9 130 -171 140 -175 4 -1 28
17 54 40 l46 43 -76 85 c-42 47 -79 86 -83 88 -4 1 -23 -15 -44 -36z"/>
</g>
  </g>
  <!-- 皖 -->
  <g transform="translate(100,200) scale(0.990099,1.069519)">
    <g transform="translate(0.000000,187.000000) scale(0.100000,-0.100000)"
fill="#000000" stroke="none">
<path d="M623 1761 c-29 -8 -53 -20 -53 -26 0 -5 7 -32 15 -59 8 -27 15 -62
15 -78 l0 -28 -85 0 -85 0 0 -150 0 -150 65 0 65 0 0 80 0 80 125 0 124 0 3
-77 3 -78 55 1 55 0 3 152 3 151 -88 3 -87 3 -25 98 c-27 108 -23 105 -108 78z"/>
<path d="M171 1620 c-7 -33 -19 -82 -27 -110 -14 -49 -16 -50 -54 -50 l-39 0
-1 -372 c0 -205 3 -476 6 -603 l7 -230 49 1 c27 1 50 3 52 5 3 3 14 72 15 102
1 4 21 7 46 7 33 0 45 -4 45 -15 0 -17 35 -28 79 -23 l32 3 2 563 2 562 -30 2
c-16 1 -40 2 -52 2 -11 1 -24 4 -28 8 -4 3 1 45 10 93 9 48 14 93 12 99 -3 7
-28 13 -60 14 l-55 1 -11 -59z m91 -322 c2 -13 2 -85 0 -160 l-3 -138 -45 0
-44 0 0 160 0 160 44 0 c39 0 45 -3 48 -22z m8 -610 l0 -178 -50 0 -50 0 0
178 0 177 50 0 50 0 0 -177z"/>
<path d="M518 1242 c-15 -3 -18 -14 -18 -68 0 -60 2 -64 23 -64 55 -2 311 1
313 3 1 1 4 31 6 67 l3 65 -155 0 c-85 0 -163 -1 -172 -3z"/>
<path d="M503 952 l-83 -3 0 -64 0 -65 50 0 c28 0 50 -1 51 -2 0 -2 3 -88 6
-193 6 -210 -10 -347 -45 -394 -16 -22 -77 -61 -113 -73 -7 -2 0 -26 17 -61
26 -52 31 -57 54 -52 39 9 132 76 157 114 44 65 52 135 53 454 0 200 1 207 20
207 14 0 20 -7 20 -22 7 -529 13 -695 26 -715 11 -18 24 -22 91 -25 42 -2 86
2 97 7 20 10 65 118 65 155 0 13 -85 80 -101 80 -3 0 -9 -15 -12 -33 -3 -19
-13 -42 -21 -53 -13 -17 -14 18 -15 293 l0 312 68 3 67 3 0 65 0 65 -185 0
c-102 0 -222 -1 -267 -3z"/>
</g>
  </g>
  <!-- 闽 -->
  <g transform="translate(200,200) scale(1.020408,1.069519)">
    <g transform="translate(0.000000,187.000000) scale(0.100000,-0.100000)"
fill="#000000" stroke="none">
<path d="M163 1754 c-24 -14 -43 -31 -43 -38 1 -26 129 -231 144 -230 8 1 35
13 60 28 l45 26 -58 93 c-81 130 -92 147 -100 147 -3 -1 -25 -12 -48 -26z"/>
<path d="M392 1653 l3 -68 208 0 207 0 1 -125 c1 -69 3 -170 4 -225 1 -55 5
-305 9 -555 5 -363 4 -460 -6 -480 -11 -21 -54 -50 -91 -63 -4 -1 0 -22 10
-46 l17 -43 55 6 c66 8 102 30 118 77 10 26 12 214 10 811 l-2 778 -273 0
-273 0 3 -67z"/>
<path d="M61 1490 c-8 -4 -10 -215 -9 -726 l3 -719 63 -3 62 -3 0 726 0 725
-32 1 c-18 1 -43 3 -55 4 -12 1 -26 -1 -32 -5z"/>
<path d="M420 1400 l0 -100 -95 0 -95 0 0 -328 0 -328 63 2 62 3 3 65 c3 66 3
66 33 66 l30 0 -3 -147 -3 -147 -80 -16 c-76 -15 -80 -17 -83 -44 -2 -16 -1
-44 3 -63 l6 -34 47 7 c26 4 110 19 187 34 77 16 143 26 148 23 4 -2 7 -22 7
-45 l0 -41 40 7 c53 8 80 26 80 51 0 23 -58 296 -64 302 -7 8 -101 -25 -99
-34 1 -5 5 -32 9 -60 6 -47 5 -51 -17 -56 -50 -14 -49 -15 -49 131 l0 137 87
0 88 0 7 50 c3 28 7 143 7 257 1 197 0 207 -19 213 -10 3 -35 3 -55 -1 -19 -3
-55 -3 -80 0 l-45 7 0 95 0 94 -60 0 -60 0 0 -100z m0 -355 c0 -69 -3 -126 -7
-126 -56 -10 -53 -17 -53 122 l0 129 30 0 30 0 0 -125z m190 0 l0 -125 -35 0
-35 0 0 125 0 125 35 0 35 0 0 -125z"/>
</g>
  </g>
  <!-- 赣 -->
  <g transform="translate(300,200) scale(1.000000,1.069519)">
    <g transform="translate(0.000000,187.000000) scale(0.100000,-0.100000)"
fill="#000000" stroke="none">
<path d="M558 1698 c-18 -97 -49 -182 -83 -233 -14 -20 -25 -40 -25 -45 0 -5
14 -25 31 -45 l31 -35 34 37 c18 21 36 46 39 56 10 27 31 20 61 -18 26 -35 26
-36 8 -51 -10 -8 -53 -31 -94 -51 -41 -20 -76 -37 -77 -38 -8 -4 32 -85 41
-85 26 1 128 50 174 83 l49 37 62 -50 c34 -28 67 -50 72 -50 10 0 82 71 77 75
-2 1 -31 23 -65 48 l-62 47 34 51 c19 27 37 66 41 86 4 23 13 37 26 41 16 4
19 12 16 61 l-3 56 -140 3 c-76 2 -141 4 -142 6 -1 1 1 16 6 34 9 30 8 31 -37
46 -25 9 -48 16 -52 16 -3 0 -13 -37 -22 -82z m252 -133 c0 -3 -15 -28 -34
-56 l-34 -50 -34 43 c-57 70 -58 68 26 68 42 0 76 -2 76 -5z"/>
<path d="M231 1752 c-46 -15 -46 -16 -25 -89 6 -22 4 -23 -60 -23 l-66 0 0
-54 c0 -65 -11 -61 201 -65 l156 -2 6 46 c4 26 4 51 1 56 -3 5 -29 9 -58 9
l-52 0 -23 65 c-13 36 -26 67 -30 69 -3 2 -26 -3 -50 -12z"/>
<path d="M131 1445 c-29 -13 -32 -18 -27 -41 21 -80 20 -84 -8 -84 -25 0 -26
-2 -26 -55 l0 -55 190 0 190 0 1 23 c0 12 3 34 5 48 4 22 0 28 -21 33 -14 4
-30 4 -35 1 -22 -14 -28 7 -14 47 23 67 22 69 -52 92 -18 5 -22 -1 -40 -61
-15 -55 -23 -69 -41 -71 -19 -3 -24 4 -38 55 -24 84 -23 83 -37 83 -7 -1 -28
-7 -47 -15z"/>
<path d="M623 1192 c-33 -3 -33 -4 -33 -58 l0 -54 40 0 40 0 0 -50 0 -50 -100
0 -100 0 0 -50 0 -50 233 0 233 0 -2 33 c-1 17 -2 40 -3 50 -1 15 -12 17 -81
17 l-80 0 0 55 0 55 46 0 45 0 -3 52 -3 51 -100 1 c-55 1 -115 0 -132 -2z"/>
<path d="M88 858 c0 -139 -2 -260 -2 -268 -1 -11 14 -16 59 -20 l60 -5 1 -68
c0 -37 -3 -71 -6 -77 -3 -5 -37 -10 -75 -12 l-70 -3 -3 -47 -3 -48 80 0 80 0
3 -132 3 -133 45 0 45 0 3 128 3 127 64 0 65 0 0 55 0 55 -59 0 -59 0 -4 57
c-7 87 -4 93 52 93 29 0 50 5 52 13 3 6 6 130 7 275 l3 262 -171 0 -171 0 -2
-252z m242 82 l0 -61 -67 3 -67 3 -1 45 c-1 69 0 70 71 70 l64 0 0 -60z m0
-215 l0 -55 -70 0 -70 0 0 55 0 55 70 0 70 0 0 -55z"/>
<path d="M490 607 l0 -197 49 0 c30 0 50 5 53 13 2 6 5 66 7 132 1 66 3 121 4
121 1 1 50 4 110 6 l107 3 0 -143 0 -143 48 3 47 3 6 190 c4 105 6 191 5 192
-1 1 -100 5 -219 9 l-217 7 0 -196z"/>
<path d="M651 516 c-1 -150 -38 -237 -133 -312 -32 -25 -58 -50 -58 -55 0 -5
12 -32 26 -60 l25 -51 52 45 c67 57 137 160 168 245 19 54 24 87 24 172 l0
105 -52 3 -51 3 -1 -95z"/>
<path d="M773 281 c-23 -14 -43 -29 -43 -32 0 -3 25 -52 56 -108 54 -98 57
-102 77 -88 12 8 32 20 45 28 12 8 22 17 22 22 0 4 -26 52 -57 106 l-58 97
-42 -25z"/>
</g>
  </g>
  <!-- 鲁 -->
  <g transform="translate(400,200) scale(1.010101,1.069519)">
    <g transform="translate(0.000000,187.000000) scale(0.100000,-0.100000)"
fill="#000000" stroke="none">
<path d="M351 1753 c-44 -87 -153 -216 -254 -299 l-48 -40 23 -45 c12 -24 24
-46 25 -48 1 -2 17 6 36 18 l34 21 -4 -215 -5 -215 73 0 c41 0 201 -3 355 -7
l281 -6 2 169 c1 93 4 215 7 272 6 94 5 102 -12 103 -11 0 -65 0 -121 0 -57 0
-103 3 -103 7 0 5 23 35 51 67 28 33 59 76 69 97 17 32 18 37 4 42 -9 3 -83 6
-165 6 l-149 0 10 26 c6 14 10 29 10 33 0 6 -83 51 -95 51 -3 0 -13 -17 -24
-37z m159 -238 l-54 -55 -84 0 c-46 0 -82 3 -80 8 2 4 19 29 38 54 l35 47 100
1 99 0 -54 -55z m-59 -172 c4 -29 6 -80 2 -88 -5 -14 -36 -17 -100 -9 l-53 5
0 50 0 49 75 0 c41 0 76 -3 76 -7z m277 -45 l-3 -51 -67 -4 c-38 -3 -69 -1
-69 4 -15 94 -9 103 72 103 l70 0 -3 -52z m-280 -214 l-3 -55 -65 -3 c-36 -2
-71 -1 -77 2 -8 2 -13 24 -13 58 l0 54 80 0 81 0 -3 -56z m277 46 c0 0 -2 -25
-3 -55 l-4 -55 -69 0 -69 0 0 61 0 62 73 -6 c39 -4 72 -7 72 -7z"/>
<path d="M54 793 c3 -31 7 -57 8 -58 2 -2 202 -6 445 -9 l441 -7 4 60 3 61
-200 0 c-110 0 -314 2 -453 5 l-253 5 5 -57z"/>
<path d="M187 358 c-3 -160 -4 -295 -1 -300 3 -4 34 -8 70 -8 l64 0 0 35 0 35
185 0 185 0 0 -40 0 -40 70 0 70 0 0 305 0 305 -318 0 -319 0 -6 -292z m504
152 c1 -11 2 -27 2 -35 0 -8 -1 -19 -2 -25 -1 -6 -68 -10 -181 -10 l-180 0 0
45 0 45 180 0 c173 0 180 -1 181 -20z m-1 -225 l0 -45 -185 0 -185 0 0 45 0
45 185 0 185 0 0 -45z"/>
</g>
  </g>
  <!-- 豫 -->
  <g transform="translate(500,200) scale(1.000000,1.069519)">
    <g transform="translate(0.000000,187.000000) scale(0.100000,-0.100000)"
fill="#000000" stroke="none">
<path d="M537 1734 c-22 -100 -67 -192 -127 -257 -28 -30 -50 -60 -50 -66 0
-11 27 -70 36 -80 2 -3 15 6 29 19 14 13 27 21 30 19 2 -3 8 -69 11 -147 l7
-142 69 0 c37 0 68 -4 68 -8 0 -16 -52 -78 -93 -110 -23 -19 -64 -45 -92 -59
-27 -14 -51 -27 -53 -28 -4 -4 32 -74 50 -99 14 -17 19 -15 97 45 66 51 84 60
91 49 6 -8 10 -22 10 -32 0 -21 -147 -159 -222 -208 l-56 -37 27 -46 27 -46
54 30 c30 16 85 60 122 96 53 52 69 63 73 50 15 -37 -162 -248 -258 -308 -29
-18 -53 -34 -55 -35 -7 -4 43 -94 53 -94 22 0 132 89 198 160 37 40 68 67 68
61 3 -27 3 -39 -4 -84 -4 -26 -15 -64 -26 -85 -20 -40 -82 -101 -123 -123 -12
-6 -24 -13 -25 -14 -4 -3 29 -99 37 -108 11 -13 104 38 145 78 76 77 102 175
104 393 0 61 0 117 1 122 0 6 4 10 9 10 5 0 23 -78 41 -172 41 -222 38 -211
49 -226 7 -12 13 -11 37 1 16 8 37 24 47 34 17 19 16 25 -13 144 -17 68 -39
172 -50 231 l-19 107 35 77 35 77 -37 38 -38 39 -24 -43 c-91 -158 -102 -171
-102 -121 0 14 -7 53 -16 87 l-17 62 27 53 26 52 90 0 89 0 3 193 c2 115 -1
195 -7 199 -5 4 -38 4 -74 1 -75 -7 -74 -15 -17 112 53 120 56 115 -77 115
l-113 0 4 33 c4 31 2 33 -46 48 l-49 16 -16 -73z m183 -141 c0 -5 -14 -32 -30
-60 l-30 -53 -59 0 -60 0 31 60 31 60 59 0 c32 0 58 -3 58 -7z m-66 -230 c-1
-7 -2 -49 -2 -93 l-2 -80 -35 0 -35 0 0 96 0 95 38 -3 c22 -2 37 -8 36 -15z
m184 -75 c1 -49 -1 -88 -5 -89 -4 0 -23 -2 -40 -3 l-33 -2 0 93 0 94 38 -3 37
-3 3 -87z"/>
<path d="M70 1635 l0 -55 90 0 c103 0 103 0 69 -81 -24 -54 -33 -59 -51 -29
-17 26 -26 25 -67 -9 -32 -26 -34 -30 -20 -49 79 -108 119 -167 119 -174 0 -4
-36 -8 -80 -8 l-80 0 0 -47 c0 -61 6 -68 55 -72 22 -1 41 -4 41 -4 1 -1 5
-173 8 -383 l7 -381 -26 -31 c-14 -17 -35 -34 -45 -37 -19 -6 -19 -8 7 -53 14
-26 28 -48 29 -50 1 -2 20 6 42 17 51 26 89 72 98 118 4 20 5 212 2 425 l-6
388 33 0 33 0 -5 -81 -6 -80 49 3 49 3 12 105 c6 58 12 117 12 133 l1 27 -82
0 c-83 1 -83 1 -60 20 l22 19 -21 45 -22 45 42 83 c42 84 61 162 53 217 l-4
31 -149 0 -149 0 0 -55z"/>
</g>
  </g>
  <!-- 鄂 -->
  <g transform="translate(600,200) scale(1.010101,1.069519)">
    <g transform="translate(0.000000,187.000000) scale(0.100000,-0.100000)"
fill="#000000" stroke="none">
<path d="M70 1803 c-1 -10 -2 -123 -3 -251 l-2 -232 123 0 122 0 0 245 c0 135
-3 245 -7 246 -5 0 -59 3 -120 5 -104 5 -113 4 -113 -13z m158 -235 l-3 -103
-32 -3 -33 -3 0 105 0 106 36 0 36 0 -4 -102z"/>
<path d="M370 1565 l0 -245 120 0 120 0 1 223 c0 122 2 232 3 245 3 22 1 22
-121 22 l-123 0 0 -245z m135 102 c2 -7 6 -56 8 -109 6 -100 0 -116 -38 -102
-12 5 -15 27 -15 113 0 101 1 107 21 108 11 1 22 -4 24 -10z"/>
<path d="M650 1410 c0 -374 -1 -400 -17 -401 -10 -1 -144 -2 -298 -3 l-280 -1
0 -70 0 -70 68 0 c79 0 76 8 52 -141 -9 -53 -14 -98 -12 -100 1 -2 56 -4 121
-6 84 -2 120 -6 123 -15 3 -7 1 -77 -5 -155 -13 -198 -30 -231 -143 -268 l-46
-15 19 -62 c13 -43 24 -63 35 -63 41 0 99 28 145 68 94 85 114 157 123 440 l6
202 -116 0 -117 0 7 53 c4 28 9 55 12 60 2 4 57 5 121 2 64 -3 133 -5 155 -5
l38 0 -2 -402 -1 -403 56 -3 56 -3 0 121 c0 97 3 120 14 120 8 0 22 -20 32
-45 9 -25 22 -45 28 -45 17 0 70 58 92 100 18 32 19 68 22 440 2 223 0 415 -3
427 -3 12 -17 35 -31 53 l-26 31 25 57 c14 31 27 66 30 77 13 47 18 179 12
298 l-7 127 -144 0 -144 0 0 -400z m190 142 c0 -74 -5 -137 -14 -166 -14 -47
-41 -86 -58 -86 -10 0 -10 84 -1 248 l6 122 34 0 33 0 0 -118z m-52 -364 c40
-43 42 -68 42 -427 0 -345 0 -348 -23 -392 -13 -24 -31 -45 -40 -47 -16 -3
-17 29 -16 442 0 245 4 446 8 446 4 0 17 -10 29 -22z"/>
<path d="M130 1170 l0 -70 228 2 227 3 1 58 c0 32 -4 61 -9 64 -4 2 -107 7
-228 9 l-219 5 0 -71z"/>
</g>
  </g>
  <!-- 湘 -->
  <g transform="translate(700,200) scale(1.030928,1.069519)">
    <g transform="translate(0.000000,187.000000) scale(0.100000,-0.100000)"
fill="#000000" stroke="none">
<path d="M390 1778 c-1 -13 -1 -89 -1 -170 l0 -148 -54 0 -55 0 0 -70 0 -70
56 0 c48 0 55 -2 50 -17 -3 -10 -12 -83 -21 -163 -21 -188 -41 -312 -70 -430
-25 -98 -73 -243 -74 -224 -1 5 8 75 19 154 11 79 20 153 20 164 0 22 -80 81
-91 68 -4 -4 -12 -50 -19 -102 -19 -147 -59 -389 -74 -447 l-14 -53 40 -50
c22 -27 44 -50 48 -50 15 0 38 92 51 200 7 55 16 100 20 100 5 0 20 -18 34
-40 14 -22 29 -40 33 -40 13 0 48 69 72 143 12 38 23 67 25 65 2 -2 4 -106 6
-233 1 -127 4 -252 7 -278 l5 -48 56 3 56 3 -3 430 -2 430 25 -54 c32 -68 31
-68 53 -48 10 10 21 17 24 17 5 0 12 -357 13 -658 0 -92 -2 -90 88 -76 36 6
37 8 37 50 0 44 0 44 35 44 35 0 35 0 35 -45 l0 -45 56 0 55 0 -1 478 c-1 262
-4 622 -7 800 l-6 323 -144 -3 -144 -3 -1 -107 c-1 -92 -3 -108 -17 -109 -9
-1 -35 -3 -58 -4 l-43 -3 0 169 0 169 -60 0 c-55 0 -60 -2 -60 -22z m420 -363
l0 -135 -35 0 -35 0 0 135 0 135 35 0 35 0 0 -135z m-190 -292 c0 -113 -2
-204 -4 -202 -3 2 -28 55 -55 117 -49 108 -51 115 -51 202 l0 90 55 0 55 0 0
-207z m188 -150 l-3 -187 -32 -2 -33 -2 0 189 0 189 35 0 35 0 -2 -187z m12
-488 l0 -175 -40 0 -40 0 0 175 0 175 40 0 40 0 0 -175z"/>
<path d="M126 1694 l-47 -36 17 -26 c10 -15 38 -57 62 -94 l45 -68 49 41 c27
23 48 44 46 48 -10 21 -114 171 -119 171 -3 0 -27 -16 -53 -36z"/>
<path d="M91 1261 l-45 -38 69 -96 c75 -105 71 -103 135 -49 l35 30 -33 43
c-18 24 -49 68 -69 97 -20 28 -39 52 -42 52 -3 0 -26 -18 -50 -39z"/>
</g>
  </g>
  <!-- 粤 -->
  <g transform="translate(800,200) scale(0.961538,1.063830)">
    <g transform="translate(0.000000,188.000000) scale(0.100000,-0.100000)"
fill="#000000" stroke="none">
<path d="M324 1784 c-9 -20 -24 -57 -34 -83 -9 -25 -23 -47 -29 -47 -6 -1 -52
-2 -102 -3 l-92 -1 7 -347 c6 -344 15 -584 22 -592 3 -4 738 -2 739 2 1 1 -1
215 -3 475 l-4 472 -204 0 c-112 0 -204 2 -204 5 0 3 13 32 30 65 l30 59 -58
11 c-31 6 -63 13 -70 15 -8 3 -19 -10 -28 -31z m386 -327 c0 -40 3 -190 6
-334 l6 -263 -63 -1 c-35 0 -151 -3 -256 -5 l-193 -6 0 336 0 336 168 2 c92 2
204 4 250 5 l82 2 0 -72z"/>
<path d="M409 1393 c-1 -49 -2 -95 -3 -103 -1 -11 -21 -17 -78 -24 l-78 -9 0
-54 0 -53 40 0 c22 0 40 -3 40 -7 0 -5 -18 -35 -40 -68 -22 -33 -40 -64 -40
-68 0 -4 11 -24 24 -43 l24 -35 47 58 c26 32 51 60 56 61 5 2 9 -28 9 -67 l0
-71 55 0 55 0 0 120 0 119 73 3 72 3 0 54 0 55 -67 -3 c-80 -3 -75 -16 -88
217 0 1 -22 2 -50 2 l-50 0 -1 -87z"/>
<path d="M287 1423 c-20 -14 -37 -29 -37 -33 0 -10 59 -90 66 -90 5 0 48 28
73 46 3 3 -58 104 -63 104 -1 0 -18 -12 -39 -27z"/>
<path d="M556 1404 c-9 -26 -16 -51 -16 -56 0 -8 80 -52 85 -46 10 13 42 129
36 132 -4 3 -26 8 -48 12 l-40 6 -17 -48z"/>
<path d="M583 1108 c-18 -13 -33 -27 -32 -33 0 -5 15 -38 32 -73 l33 -63 36
28 c21 15 37 34 38 41 0 15 -59 122 -69 122 -3 0 -21 -10 -38 -22z"/>
<path d="M245 640 l-230 -5 -3 -44 c-2 -25 -1 -55 3 -68 6 -24 7 -24 115 -21
61 2 110 3 110 3 -1 -2 -80 -211 -80 -213 0 -2 108 -2 240 0 132 2 240 1 240
-2 0 -3 -9 -19 -20 -37 -32 -52 -63 -66 -159 -71 -47 -2 -87 -5 -88 -6 -1 -1
7 -30 16 -66 l18 -65 71 3 c204 7 321 125 322 325 l0 57 -207 1 c-115 1 -212
1 -216 0 -14 -2 -18 25 -8 51 l10 26 228 1 c125 1 245 4 266 8 l38 6 -5 51
c-3 28 -5 57 -6 65 0 14 -56 14 -655 1z"/>
</g>
  </g>
  <!-- 桂 -->
  <g transform="translate(900,200) scale(1.000000,1.063830)">
    <g transform="translate(0.000000,188.000000) scale(0.100000,-0.100000)"
fill="#000000" stroke="none">
<path d="M230 1605 l0 -185 -80 0 -80 0 0 -70 0 -70 60 0 c33 0 60 -4 60 -9 0
-4 -11 -64 -25 -132 -31 -151 -70 -289 -96 -341 l-19 -38 36 -72 c20 -40 38
-75 40 -77 9 -10 36 29 59 85 l25 59 0 -357 0 -358 75 0 75 0 0 455 c0 250 4
455 8 455 5 0 24 -45 43 -100 l35 -101 62 32 c35 17 61 36 59 43 -80 206 -102
256 -111 256 -6 0 -24 -9 -41 -20 -16 -11 -34 -20 -38 -20 -5 0 -7 53 -5 118
l3 117 80 5 80 5 3 67 c4 66 3 66 -25 72 -15 3 -49 5 -75 4 -26 -1 -50 0 -53
3 -3 3 -6 84 -8 180 l-2 174 -72 3 -73 3 0 -186z"/>
<path d="M758 1783 l-68 -4 0 -104 0 -104 -57 -3 -58 -3 -3 -66 -3 -66 51 -5
c28 -3 52 -7 54 -9 2 -2 6 -56 8 -121 l4 -116 -35 -6 c-20 -3 -53 -6 -74 -6
l-37 0 3 -71 3 -71 204 0 205 0 7 38 c4 22 7 54 7 72 l1 32 -65 0 -65 0 0 131
0 130 53 -3 52 -3 3 68 3 67 -33 1 c-81 4 -73 -8 -76 117 -1 61 -6 111 -10
110 -4 -1 -37 -3 -74 -5z"/>
<path d="M680 810 l0 -130 -55 0 -55 0 0 -75 0 -75 43 -1 c23 -1 45 -1 50 0 9
1 8 17 13 -141 l5 -137 -73 -3 -73 -3 2 -70 1 -70 209 0 208 0 3 73 3 72 -65
0 -66 0 0 140 0 140 55 0 55 0 0 75 0 75 -55 0 -55 0 0 130 0 130 -75 0 -75 0
0 -130z"/>
</g>
  </g>
  <!-- 琼 -->
  <g transform="translate(0,400) scale(1.010101,1.063830)">
    <g transform="translate(0.000000,188.000000) scale(0.100000,-0.100000)"
fill="#000000" stroke="none">
<path d="M601 1769 c-30 -10 -56 -20 -58 -22 -1 -2 8 -41 22 -87 14 -46 25
-85 25 -87 0 -2 -45 -3 -101 -3 -89 0 -101 2 -106 18 -3 12 -13 17 -31 16 -15
-1 -89 -2 -165 -3 l-138 -1 3 -67 c3 -73 0 -70 66 -72 l33 -1 -3 -157 -3 -158
-30 0 c-46 -1 -52 -10 -54 -74 l-1 -60 41 -3 42 -3 -1 -230 c-1 -251 3 -233
-62 -276 l-24 -16 19 -64 c10 -35 22 -68 26 -73 6 -7 260 181 274 204 4 7 -1
46 -21 138 l-5 23 -26 -21 c-14 -11 -27 -19 -29 -18 -2 3 -8 306 -5 323 0 6
15 11 32 12 18 1 33 4 34 5 1 2 6 33 10 71 l7 67 -39 0 -38 0 3 147 c1 82 5
154 7 162 6 15 55 7 67 -12 5 -9 86 -13 283 -15 l275 -4 0 71 0 71 -98 0 -97
0 -31 107 c-17 59 -35 108 -40 109 -5 1 -33 -6 -63 -17z"/>
<path d="M419 1068 c-1 -131 -1 -250 -2 -265 -1 -28 -1 -28 73 -31 41 -2 77
-6 79 -8 8 -8 0 -559 -8 -567 -5 -5 -27 -11 -50 -14 -22 -3 -41 -10 -41 -16 0
-6 7 -37 17 -70 l16 -59 46 7 c62 9 127 39 141 64 13 25 18 124 24 429 2 123
6 225 8 227 2 2 39 5 83 7 l80 3 3 258 c2 201 0 259 -10 262 -7 3 -113 6 -236
7 l-222 3 -1 -237z m331 -28 l0 -120 -95 0 -95 0 0 120 0 120 95 0 95 0 0
-120z"/>
<path d="M371 488 c-23 -95 -52 -199 -65 -231 -17 -40 -21 -59 -13 -62 7 -2
36 -11 65 -20 29 -9 54 -15 56 -14 1 2 21 65 44 139 52 168 86 305 79 323 -4
11 -86 37 -116 37 -5 0 -27 -78 -50 -172z"/>
<path d="M783 633 c-24 -8 -43 -18 -43 -22 0 -4 13 -71 30 -148 16 -76 32
-176 36 -221 4 -45 10 -82 15 -82 4 0 32 10 63 21 l56 22 -6 41 c-20 138 -56
350 -65 376 -12 34 -24 36 -86 13z"/>
</g>
  </g>
  <!-- 渝 -->
  <g transform="translate(100,400) scale(1.020408,1.063830)">
    <g transform="translate(0.000000,188.000000) scale(0.100000,-0.100000)"
fill="#000000" stroke="none">
<path d="M575 1853 c-37 -168 -112 -318 -208 -413 l-46 -45 17 -82 c9 -45 20
-84 23 -88 13 -12 170 201 212 287 23 48 44 87 47 87 3 1 25 -32 50 -71 84
-137 222 -310 235 -296 3 3 13 39 22 81 l16 76 -54 56 c-30 31 -93 109 -141
173 -77 103 -88 122 -88 159 0 36 -5 45 -40 73 l-39 31 -6 -28z"/>
<path d="M150 1754 l-13 -75 69 -70 c38 -38 71 -69 75 -69 4 0 10 30 14 67 4
36 9 72 12 79 4 12 -121 144 -137 144 -4 0 -13 -34 -20 -76z"/>
<path d="M80 1293 c-6 -21 -13 -56 -16 -78 -5 -40 -4 -41 71 -103 42 -35 78
-62 80 -60 3 2 10 37 17 77 l13 74 -70 63 c-39 35 -73 64 -77 64 -4 0 -12 -17
-18 -37z"/>
<path d="M510 1255 l0 -75 115 0 115 0 0 75 0 75 -115 0 -115 0 0 -75z"/>
<path d="M819 1103 c0 -5 0 -200 1 -436 l2 -427 -24 -9 c-12 -5 -26 -7 -30 -4
-11 6 -10 -23 3 -112 13 -88 22 -92 77 -37 60 60 63 85 58 427 -3 165 -5 369
-6 453 l0 152 -40 0 c-22 0 -40 -3 -41 -7z"/>
<path d="M337 1063 c-3 -5 -4 -118 -2 -253 1 -135 3 -362 4 -505 l1 -261 28 2
c15 0 33 2 40 2 9 2 12 47 12 192 l0 190 55 0 56 0 -2 -96 c-1 -81 -4 -97 -20
-107 -20 -13 -24 -57 -13 -130 8 -46 23 -47 62 -3 48 55 52 97 52 556 l0 420
-134 0 c-74 0 -137 -3 -139 -7z m183 -198 l0 -65 -50 0 -50 0 0 65 0 65 50 0
50 0 0 -65z m0 -250 l0 -65 -50 0 -50 0 0 65 0 65 50 0 50 0 0 -65z"/>
<path d="M677 964 c-3 -3 -6 -141 -7 -305 l-1 -299 41 0 40 0 0 305 0 305 -33
0 c-19 0 -36 -3 -40 -6z"/>
<path d="M176 838 c-2 -7 -11 -85 -20 -173 -10 -88 -28 -239 -42 -335 l-25
-175 48 -42 c26 -23 49 -41 50 -39 1 1 18 137 38 301 20 165 40 325 44 355 9
60 12 56 -61 103 -22 15 -29 16 -32 5z"/>
</g>
  </g>
  <!-- 川 -->
  <g transform="translate(200,400) scale(1.010101,1.063830)">
    <g transform="translate(0.000000,188.000000) scale(0.100000,-0.100000)"
fill="#000000" stroke="none">
<path d="M860 915 l0 -875 65 0 65 0 0 875 0 875 -65 0 -65 0 0 -875z"/>
<path d="M249 1633 c0 -49 -2 -144 -4 -213 -2 -69 -6 -282 -10 -475 -8 -440
-20 -536 -88 -688 l-30 -68 49 -44 49 -44 19 22 c31 36 93 176 115 262 28 105
39 349 44 908 l3 427 -73 0 -73 0 -1 -87z"/>
<path d="M558 1508 c-2 -84 -5 -410 -6 -724 l-3 -571 70 -2 70 -2 3 148 c2 81
5 408 6 726 l2 577 -69 0 -70 0 -3 -152z"/>
</g>
  </g>
  <!-- 贵 -->
  <g transform="translate(300,400) scale(1.041667,1.063830)">
    <g transform="translate(0.000000,188.000000) scale(0.100000,-0.100000)"
fill="#000000" stroke="none">
<path d="M390 1746 l0 -56 -140 0 -140 0 0 -215 0 -215 135 0 135 0 0 -45 0
-45 -185 0 -185 0 0 -75 0 -75 437 2 c431 3 438 3 437 23 -1 11 -2 44 -2 73
l-2 52 -170 0 -170 0 0 44 0 44 45 6 c25 4 84 6 133 5 l87 -2 3 212 2 211
-134 0 -135 0 -3 53 -3 52 -72 3 -73 3 0 -55z m0 -266 l0 -70 -65 0 -65 0 -1
43 c0 23 -2 52 -5 64 -3 20 1 22 49 26 28 2 60 4 70 5 15 2 17 -7 17 -68z
m253 61 c27 -1 27 -2 27 -66 l0 -65 -70 0 -70 0 0 63 c0 35 2 66 5 69 3 2 22
3 42 2 21 -1 50 -2 66 -3z"/>
<path d="M110 670 l0 -260 70 0 70 0 0 185 0 185 24 6 c13 3 106 4 205 2 l182
-3 2 -185 2 -185 73 -3 72 -3 0 261 0 260 -350 0 -350 0 0 -260z"/>
<path d="M425 723 l-50 -4 0 -132 c0 -121 -2 -136 -25 -181 -36 -71 -114 -137
-229 -192 -55 -27 -100 -52 -101 -55 0 -3 20 -31 44 -62 l44 -57 79 41 c91 48
202 127 238 171 86 102 130 276 109 430 -7 49 -5 48 -109 41z"/>
<path d="M564 356 c-27 -18 -48 -37 -46 -42 2 -5 59 -66 129 -136 l125 -127
54 30 c30 17 54 37 54 45 0 16 -189 210 -236 242 l-32 22 -48 -34z"/>
</g>
  </g>
  <!-- 云 -->
  <g transform="translate(400,400) scale(1.020408,1.063830)">
    <g transform="translate(0.000000,188.000000) scale(0.100000,-0.100000)"
fill="#000000" stroke="none">
<path d="M240 1792 c-6 -2 -10 -38 -10 -82 l0 -79 333 2 332 2 3 84 3 83 -325
-3 c-179 -2 -330 -5 -336 -7z"/>
<path d="M106 1163 c-3 -3 -6 -37 -6 -75 l0 -68 195 0 195 0 -10 -22 c-5 -13
-50 -135 -101 -273 -50 -137 -117 -316 -150 -397 l-60 -147 24 -58 c13 -32 28
-57 33 -57 5 1 117 37 249 79 132 43 259 84 282 91 l43 13 31 -102 c18 -56 34
-104 36 -106 2 -3 28 7 58 22 48 24 55 30 55 57 0 28 -175 546 -190 563 -4 5
-35 -5 -69 -23 -48 -24 -61 -35 -57 -48 4 -9 24 -62 45 -117 22 -55 36 -103
33 -107 -18 -18 -400 -153 -409 -144 -3 3 27 83 66 178 39 95 108 267 154 383
71 178 88 211 108 216 13 4 90 7 172 8 l147 1 0 70 0 70 -434 0 c-238 0 -436
-4 -440 -7z"/>
</g>
  </g>
  <!-- 藏 -->
  <g transform="translate(500,400) scale(1.020408,1.063830)">
    <g transform="translate(0.000000,188.000000) scale(0.100000,-0.100000)"
fill="#000000" stroke="none">
<path d="M278 1728 l-3 -83 -50 -1 c-27 -1 -79 -2 -115 -3 l-66 -1 2 -47 c1
-27 2 -51 3 -55 1 -5 53 -8 116 -8 l115 0 0 -50 0 -50 60 0 60 0 0 48 0 47 87
-1 88 -1 3 -47 3 -46 50 0 c27 0 50 5 50 10 1 6 3 19 4 30 1 11 3 28 4 38 1
15 13 17 116 16 l115 -2 0 62 c0 71 18 63 -142 65 l-88 1 0 78 0 78 -55 0 -55
0 0 -83 0 -83 -85 0 -85 0 -1 48 c-2 47 -4 88 -7 108 -1 6 -28 12 -62 13 l-59
2 -3 -83z"/>
<path d="M826 1461 c-31 -33 -30 -48 9 -96 l25 -30 31 31 31 32 -27 46 c-15
25 -30 46 -34 46 -4 0 -20 -13 -35 -29z"/>
<path d="M670 1350 l0 -50 -220 0 -220 0 0 -146 0 -145 -32 3 -33 3 -5 180 -5
180 -47 3 c-42 3 -48 1 -53 -20 -3 -13 -4 -120 -3 -238 l3 -215 83 -3 82 -3 0
-79 0 -80 -90 0 -90 0 0 -54 c0 -35 5 -58 15 -66 20 -17 20 -156 -1 -274 -8
-49 -13 -95 -10 -102 3 -7 19 -20 35 -29 31 -15 31 -15 51 17 27 45 35 102 35
255 l0 133 27 0 c15 0 29 -4 32 -9 3 -4 2 -80 -3 -167 -8 -152 -22 -219 -65
-315 -5 -11 4 -23 34 -43 l40 -26 20 32 c29 47 58 146 69 237 6 44 11 234 12
423 1 189 4 367 7 397 l4 54 161 -7 c89 -4 162 -8 164 -9 1 -1 5 -86 8 -187 3
-102 15 -272 27 -378 l20 -194 -40 -81 c-38 -76 -97 -147 -171 -205 l-23 -18
21 -42 22 -43 42 30 c45 31 122 109 152 155 l18 28 23 -59 c30 -83 61 -140 77
-146 10 -4 24 26 50 107 20 62 37 118 37 126 0 8 -13 35 -30 60 l-29 45 -12
-33 c-13 -38 -24 -41 -33 -9 -12 47 -5 109 28 230 19 69 46 176 60 238 l26
114 -42 37 c-24 21 -46 38 -49 38 -4 0 -9 -20 -12 -45 -11 -74 -39 -226 -43
-223 -8 9 -14 81 -20 256 -6 161 -5 195 7 203 8 5 40 9 72 9 l57 0 0 53 0 52
-62 3 c-34 2 -65 5 -69 8 -3 2 -5 22 -4 44 l2 40 -53 0 -54 0 0 -50z"/>
<path d="M378 1113 c-4 -7 -4 -452 0 -710 l2 -113 135 0 135 0 0 55 0 55 -35
0 -36 0 3 57 c3 55 4 58 31 61 l27 3 0 175 0 174 -25 0 c-24 0 -25 2 -25 65 0
63 1 65 25 65 25 0 26 2 23 58 l-3 57 -127 3 c-69 1 -128 -1 -130 -5z m130
-185 c-3 -60 -4 -63 -28 -63 -24 0 -25 3 -28 63 l-3 62 31 0 31 0 -3 -62z m70
-235 c-3 -58 -6 -68 -20 -67 -10 1 -38 2 -63 3 l-45 1 0 65 0 65 65 0 66 0 -3
-67z m-68 -233 l0 -60 -30 0 -30 0 0 60 0 60 30 0 30 0 0 -60z"/>
</g>
  </g>
  <!-- 陕 -->
  <g transform="translate(600,400) scale(1.030928,1.063830)">
    <g transform="translate(0.000000,188.000000) scale(0.100000,-0.100000)"
fill="#000000" stroke="none">
<path d="M600 1676 l0 -135 -97 -3 -97 -3 -2 -50 c-3 -86 -5 -85 97 -85 l89 0
-2 -287 -3 -288 -95 -1 -95 -2 -3 -66 -3 -66 96 0 c52 0 95 -4 95 -9 0 -27
-84 -264 -109 -306 -16 -27 -63 -87 -105 -132 l-76 -82 27 -55 c15 -31 31 -56
35 -56 17 0 100 85 153 155 57 76 89 131 119 205 l19 45 23 -70 c35 -103 97
-222 150 -289 l47 -59 38 44 c21 24 39 50 39 57 0 7 -15 33 -34 58 -74 97
-191 371 -198 465 l-3 31 113 0 c61 -1 112 2 113 6 0 4 2 35 3 70 l2 62 -113
0 -113 0 0 285 0 285 110 0 110 0 0 70 0 69 -102 3 c-73 2 -103 7 -104 16 -1
6 -2 65 -3 131 l-1 118 -60 2 -60 2 0 -135z"/>
<path d="M73 1676 c-3 -5 -8 -361 -11 -793 l-5 -784 54 3 54 3 3 538 c2 584 1
572 56 506 14 -17 29 -41 32 -53 3 -13 4 -140 2 -282 -3 -243 -4 -261 -25
-300 -12 -22 -29 -46 -37 -54 -15 -11 -14 -17 10 -59 15 -25 28 -48 30 -50 7
-8 76 53 99 88 35 52 49 202 42 446 -6 200 -23 289 -66 344 -18 24 -18 25 6
79 31 72 60 196 68 300 l7 84 -157 -4 c-86 -1 -159 -7 -162 -12z m191 -178
c-9 -70 -45 -176 -65 -194 -19 -17 -19 -14 -19 109 l0 127 45 0 45 0 -6 -42z"/>
<path d="M820 1268 c0 -13 -13 -86 -29 -163 -16 -77 -26 -143 -22 -146 13 -13
75 -29 82 -22 8 8 79 283 79 305 0 7 -22 21 -49 31 -61 21 -61 22 -61 -5z"/>
<path d="M423 1268 c-18 -6 -33 -17 -33 -25 0 -17 61 -296 66 -302 7 -8 104
32 104 44 0 7 -16 75 -35 152 -19 76 -35 139 -35 141 0 5 -37 -1 -67 -10z"/>
</g>
  </g>
  <!-- 甘 -->
  <g transform="translate(700,400) scale(1.020408,1.041667)">
    <g transform="translate(0.000000,192.000000) scale(0.100000,-0.100000)"
fill="#000000" stroke="none">
<path d="M160 1625 l0 -225 -80 0 -80 0 0 -75 0 -75 80 0 80 0 0 -585 0 -585
75 0 75 0 0 73 0 72 145 0 145 0 0 -67 0 -68 78 0 77 0 0 107 c0 60 1 323 3
586 l2 477 65 0 65 0 0 70 0 70 -65 0 -65 0 0 225 0 225 -75 0 -75 0 0 -225 0
-226 -147 3 -148 3 -3 223 -2 222 -75 0 -75 0 0 -225z m438 -374 c9 -1 12 -38
12 -151 l0 -150 -150 0 c-113 0 -150 3 -151 13 -1 14 -1 279 0 287 1 4 215 4
289 1z m12 -660 l0 -220 -52 -6 c-29 -3 -98 -5 -153 -3 l-100 3 -3 223 -2 222
155 0 155 0 0 -219z"/>
</g>
  </g>
  <!-- 青 -->
  <g transform="translate(800,400) scale(1.020408,1.041667)">
    <g transform="translate(0.000000,192.000000) scale(0.100000,-0.100000)"
fill="#000000" stroke="none">
<path d="M420 1810 l0 -60 -150 0 -150 0 0 -70 0 -70 150 0 150 0 0 -45 0 -45
-130 0 -130 0 0 -80 0 -80 130 0 130 0 0 -45 0 -45 -185 0 -185 0 0 -81 0 -80
88 5 c48 3 248 6 445 7 l357 3 0 79 0 80 -180 -7 -180 -8 0 45 c0 42 2 46 29
52 16 3 69 6 118 5 48 -1 94 -2 101 -1 8 1 12 23 12 76 l0 75 -130 0 -130 0 0
45 0 45 150 0 151 0 -3 78 -3 77 -147 -4 -147 -4 -3 54 -3 54 -77 3 -78 3 0
-61z"/>
<path d="M347 1032 l-187 -2 0 -450 c1 -248 3 -457 6 -465 5 -11 23 -15 70
-15 l64 0 0 150 0 150 200 0 200 0 0 -65 c0 -61 -1 -65 -29 -80 l-30 -15 25
-74 25 -74 41 11 c48 12 103 63 111 103 7 35 8 800 1 819 -6 14 -42 14 -497 7z
m361 -184 l3 -48 -210 0 -211 0 0 50 0 50 208 -2 207 -3 3 -47z m-8 -248 l0
-50 -170 -1 c-93 -1 -182 -2 -197 -3 -27 -1 -28 2 -33 52 l-6 52 203 0 203 0
0 -50z"/>
</g>
  </g>
  <!-- 宁 -->
  <g transform="translate(900,400) scale(1.010101,1.041667)">
    <g transform="translate(0.000000,192.000000) scale(0.100000,-0.100000)"
fill="#000000" stroke="none">
<path d="M468 1844 c-55 -17 -55 -16 -33 -134 7 -41 12 -76 10 -78 -4 -4 -166
-11 -277 -12 l-98 0 0 -180 0 -180 75 0 75 0 0 109 0 108 268 2 c147 1 275 -1
285 -5 12 -4 17 -17 17 -43 0 -20 3 -67 7 -104 l6 -68 66 3 66 3 3 160 c1 88
0 170 -3 183 -5 22 -8 22 -169 22 l-163 0 -27 103 c-14 56 -26 108 -26 115 0
15 -23 14 -82 -4z"/>
<path d="M59 1013 c0 -10 -2 -44 -4 -75 l-3 -58 193 0 193 0 2 -172 c1 -95 3
-236 3 -313 l2 -140 -43 -3 c-34 -3 -42 -7 -38 -18 3 -9 14 -45 23 -80 l17
-65 41 7 c64 10 112 34 131 62 16 25 18 57 15 373 -2 323 -1 347 15 353 10 4
90 6 178 5 l161 -1 3 71 3 71 -446 0 c-417 0 -445 -1 -446 -17z"/>
</g>
  </g>
  <!-- 新 -->
  <g transform="translate(0,600) scale(1.020408,1.041667)">
    <g transform="translate(0.000000,192.000000) scale(0.100000,-0.100000)"
fill="#000000" stroke="none">
<path d="M278 1842 c-53 -17 -55 -21 -33 -82 25 -71 26 -70 -83 -70 -54 0
-101 -2 -103 -4 -2 -2 -2 -34 -1 -70 l4 -66 239 0 239 0 0 70 0 70 -73 0 -73
0 -28 85 c-15 47 -30 85 -34 84 -4 0 -28 -8 -54 -17z"/>
<path d="M845 1829 c-60 -46 -104 -66 -176 -80 -35 -8 -67 -17 -70 -22 -4 -5
-7 -46 -7 -91 0 -44 -1 -163 -1 -263 l-1 -183 -76 0 c-72 0 -75 1 -69 21 15
47 65 224 65 231 0 6 -101 31 -105 26 -1 -2 -15 -41 -30 -88 -15 -47 -36 -109
-47 -137 l-19 -53 -130 0 -130 0 3 -67 3 -68 98 -3 97 -3 1 -54 c1 -30 2 -63
3 -72 1 -16 -10 -18 -81 -21 l-81 -3 -4 -64 -3 -65 83 0 82 0 0 -87 c0 -49 1
-167 1 -263 1 -168 0 -175 -21 -192 -12 -10 -33 -18 -46 -18 -29 0 -29 -4 -2
-70 20 -49 23 -51 51 -46 48 10 78 29 111 69 l30 38 -2 285 -3 284 76 0 c75 0
75 0 76 28 1 15 2 44 3 65 l2 37 -78 0 -78 0 0 75 0 75 104 0 103 0 7 -42 c3
-24 4 -128 1 -233 -4 -206 -22 -320 -75 -500 l-29 -100 42 -37 c23 -21 45 -38
48 -38 10 0 76 206 93 290 26 127 35 264 35 548 l1 202 30 0 30 0 2 -517 3
-517 23 1 c12 0 38 1 57 2 l35 1 0 514 0 514 25 6 c24 6 25 10 25 76 l0 70
-109 0 -110 0 -3 113 c-2 61 -1 139 2 171 l5 59 72 24 c46 16 87 38 115 62
l43 38 -24 52 c-14 28 -27 51 -30 51 -3 0 -24 -14 -46 -31z"/>
<path d="M162 1448 c-32 -12 -52 -25 -49 -32 3 -7 15 -48 27 -91 12 -44 25
-85 29 -91 8 -14 100 11 107 29 2 7 -10 55 -28 109 l-33 96 -53 -20z"/>
<path d="M126 681 c-3 -9 -19 -88 -36 -176 -17 -88 -34 -163 -37 -167 -2 -5
17 -18 43 -29 38 -17 48 -19 55 -8 33 50 99 364 81 380 -4 4 -28 9 -54 12 -38
3 -48 1 -52 -12z"/>
<path d="M433 670 c-24 -11 -43 -24 -43 -31 0 -12 60 -222 65 -227 2 -2 25 6
50 17 45 20 47 22 41 53 -10 54 -59 208 -65 207 -3 0 -25 -9 -48 -19z"/>
</g>
  </g>
  <!-- 港 -->
  <g transform="translate(100,600) scale(1.052632,1.041667)">
    <g transform="translate(0.000000,192.000000) scale(0.100000,-0.100000)"
fill="#000000" stroke="none">
<path d="M610 1745 l0 -125 -39 0 c-71 0 -71 -1 -71 126 l0 114 -45 0 -45 0 0
-120 0 -120 -60 0 -60 0 0 -85 0 -85 60 0 60 0 0 -95 0 -94 -82 -3 -83 -3 -3
-59 c-6 -102 -3 -106 78 -106 49 0 70 -4 70 -12 0 -25 -60 -117 -115 -176 -30
-33 -55 -64 -55 -68 0 -5 13 -42 28 -82 l29 -73 46 57 47 56 2 -218 c0 -121 2
-262 3 -314 2 -91 13 -135 39 -152 6 -4 93 -8 193 -8 l182 0 20 28 c28 40 70
170 77 239 6 58 6 58 -35 97 -22 22 -42 38 -44 35 -2 -2 -11 -46 -20 -97 -8
-52 -17 -96 -19 -98 -9 -9 -180 -16 -231 -10 -68 9 -75 19 -69 99 l4 57 124 0
124 0 0 202 0 203 61 -93 c33 -50 64 -92 69 -92 5 0 21 38 36 84 l27 84 -41
50 c-23 27 -60 80 -82 118 -45 77 -42 85 32 83 89 -3 83 -9 83 86 l0 85 -97 0
-98 0 0 95 0 94 78 3 77 3 1 83 1 82 -61 2 c-33 1 -69 2 -78 1 -16 0 -18 13
-18 124 l0 123 -50 0 -50 0 0 -125z m10 -392 l0 -93 -60 0 -60 0 0 96 0 95 60
-3 60 -3 0 -92z m46 -332 c8 -31 18 -64 20 -73 5 -16 -5 -18 -113 -18 l-119 0
36 74 35 75 50 3 c28 2 56 1 63 -1 6 -2 19 -29 28 -60z m-28 -339 l3 -73 -87
3 -86 3 0 63 c1 34 1 65 1 70 1 4 38 7 84 7 l82 0 3 -73z"/>
<path d="M115 1777 l-26 -73 57 -100 c81 -142 74 -139 105 -38 l28 88 -64 98
c-36 54 -66 98 -69 98 -2 0 -16 -33 -31 -73z"/>
<path d="M74 1306 l-28 -84 69 -104 69 -103 22 84 c18 65 21 88 12 105 -15 28
-111 186 -113 186 -1 0 -15 -38 -31 -84z"/>
<path d="M150 865 c0 -26 -61 -403 -79 -489 l-20 -98 42 -90 c32 -70 42 -86
48 -71 21 56 79 395 94 548 6 58 4 63 -39 135 -25 41 -46 71 -46 65z"/>
</g>
  </g>
  <!-- 澳 -->
  <g transform="translate(200,600) scale(1.063830,1.041667)">
    <g transform="translate(0.000000,192.000000) scale(0.100000,-0.100000)"
fill="#000000" stroke="none">
<path d="M475 1783 c-3 -37 -8 -74 -10 -80 -3 -9 -29 -13 -85 -13 l-80 0 0
-485 0 -485 45 0 45 0 0 97 c0 53 3 93 7 89 4 -4 17 -30 29 -59 l22 -51 34 54
33 54 3 -42 c2 -23 6 -43 10 -43 11 -2 45 -2 65 -1 14 2 17 13 18 70 l1 67 36
-74 36 -74 20 54 21 54 5 -100 5 -100 45 0 c44 1 44 1 44 35 -1 19 -2 239 -3
488 l-1 452 -125 0 c-125 0 -125 0 -121 23 3 12 7 38 11 58 6 39 12 35 -92 76
-7 3 -13 -18 -18 -64z m255 -555 l-1 -293 -34 65 c-19 36 -34 68 -35 72 0 4
12 8 26 10 25 3 26 5 27 78 l2 75 -52 3 c-52 3 -53 3 -53 35 l1 32 22 -27 c13
-16 25 -28 28 -28 3 0 18 29 33 64 l28 65 -27 35 c-15 20 -29 36 -30 36 -1 0
-13 -28 -26 -62 l-24 -63 -5 75 -5 75 -42 1 -43 1 -1 -71 c0 -39 -3 -64 -6
-56 -3 8 -15 39 -25 68 l-20 54 -29 -28 c-35 -34 -35 -37 -5 -105 41 -95 42
-99 7 -99 l-31 0 0 -80 0 -79 29 5 c16 3 31 2 34 -3 7 -10 -46 -120 -68 -143
-13 -12 -15 23 -15 283 l0 297 170 0 170 0 0 -292z m-210 42 c0 -23 -4 -30
-20 -30 -24 0 -25 5 -2 35 22 31 22 31 22 -5z m113 -232 c-22 -58 -23 -58 -23
-5 0 40 3 47 20 47 19 0 19 -1 3 -42z"/>
<path d="M106 1736 c-41 -92 -42 -86 26 -195 35 -55 65 -100 68 -101 10 0 52
169 44 182 -21 38 -107 168 -110 168 -3 0 -15 -24 -28 -54z"/>
<path d="M75 1251 l-27 -81 23 -37 c64 -106 102 -155 109 -142 4 8 16 48 25
90 l18 76 -53 79 c-29 43 -56 83 -60 87 -4 5 -20 -28 -35 -72z"/>
<path d="M137 903 c-2 -4 -8 -39 -11 -78 -11 -102 -32 -252 -57 -392 l-22
-121 39 -96 c21 -53 42 -96 45 -96 9 0 99 612 98 670 0 26 -83 129 -92 113z"/>
<path d="M520 755 c0 -77 5 -75 -151 -75 l-139 0 0 -85 0 -85 126 0 125 0 -7
-22 c-26 -85 -103 -166 -186 -195 -26 -10 -48 -23 -48 -28 0 -6 13 -47 29 -91
33 -88 37 -90 103 -47 49 33 121 128 164 217 l33 69 18 -33 c71 -128 205 -280
247 -280 12 0 26 37 61 160 3 10 -13 25 -50 44 -57 29 -153 124 -180 177 l-16
29 126 0 125 0 0 85 0 85 -143 0 -143 0 1 35 c2 45 -3 52 -53 69 l-42 15 0
-44z"/>
</g>
  </g>
  <!-- 使 -->
  <g transform="translate(300,600) scale(0.970874,1.041667)">
    <g transform="translate(0.000000,192.000000) scale(0.100000,-0.100000)"
fill="#000000" stroke="none">
<path d="M202 1751 c-23 -137 -80 -289 -135 -355 -23 -29 -24 -31 -10 -95 25
-123 20 -115 48 -97 19 12 25 13 25 4 4 -460 13 -1096 15 -1105 3 -9 28 -13
81 -13 l76 0 -4 683 -3 682 28 90 c26 84 56 250 46 259 -2 2 -38 7 -80 11
l-76 7 -11 -71z"/>
<path d="M573 1803 c0 -10 -1 -62 -2 -115 l-1 -98 -110 0 -110 0 0 -37 c0 -21
3 -55 6 -75 l7 -38 104 0 104 0 -3 -52 -3 -53 -102 -3 -103 -3 0 -244 0 -245
110 0 110 0 0 -92 c0 -51 -4 -99 -9 -106 -6 -10 -23 6 -60 57 -29 39 -55 71
-59 71 -14 0 -112 -82 -112 -95 0 -7 22 -42 48 -77 27 -35 65 -85 85 -111 l37
-48 -38 -60 c-20 -33 -59 -84 -85 -114 l-48 -54 41 -56 c22 -30 46 -55 53 -55
15 0 110 97 157 160 19 25 35 47 37 49 2 3 20 -11 41 -30 88 -83 225 -179 238
-166 19 19 84 112 82 118 -2 3 -48 40 -103 82 -55 41 -117 93 -137 114 l-38
39 15 84 c8 47 18 131 22 188 l6 102 102 0 103 0 6 63 c9 83 10 416 2 424 -4
4 -32 7 -64 8 -31 0 -81 2 -109 3 l-53 2 0 50 0 50 85 1 c47 1 94 3 105 4 11
1 25 3 30 4 6 0 10 32 10 71 l0 70 -115 0 -115 0 0 115 0 115 -84 0 c-73 0
-83 -2 -83 -17z m5 -716 l3 -97 -31 0 -30 0 0 98 0 98 28 -2 27 -1 3 -96z
m227 2 l0 -94 -27 -3 -28 -3 0 99 0 99 28 -2 27 -1 0 -95z"/>
</g>
  </g>
  <!-- 领 -->
  <g transform="translate(400,600) scale(1.000000,1.041667)">
    <g transform="translate(0.000000,192.000000) scale(0.100000,-0.100000)"
fill="#000000" stroke="none">
<path d="M191 1733 c-42 -168 -84 -284 -131 -359 -11 -19 -9 -26 19 -67 17
-25 35 -49 40 -52 18 -11 101 138 135 243 10 28 19 52 20 52 2 0 24 -27 50
-60 26 -33 50 -60 54 -60 4 1 26 18 50 38 l42 38 -81 97 c-78 95 -80 100 -77
144 l3 46 -45 13 c-25 8 -48 14 -51 14 -4 0 -16 -39 -28 -87z"/>
<path d="M598 1812 l-178 -2 4 -33 c3 -17 5 -51 5 -74 l1 -43 102 6 101 6 -7
-93 c-4 -54 -12 -97 -19 -101 -7 -4 -40 -8 -74 -8 -44 0 -63 -4 -63 -12 0 -7
-1 -221 -3 -474 l-2 -462 41 -6 c22 -3 49 -3 61 0 20 6 20 9 15 415 l-5 409
112 0 111 0 2 -72 c1 -40 3 -100 4 -133 1 -33 3 -185 4 -337 l1 -278 54 0 c50
0 55 2 61 26 4 14 4 65 0 113 -3 47 -6 252 -6 455 l-1 369 -96 -7 -96 -7 6 53
c4 29 7 67 7 83 1 58 6 60 138 64 l53 1 -3 73 -3 72 -75 0 c-41 0 -155 -1
-252 -3z"/>
<path d="M269 1337 c-8 -7 -28 -22 -43 -34 l-28 -23 37 -92 c20 -51 38 -94 40
-96 4 -4 84 36 102 50 9 7 0 34 -37 109 -28 54 -51 99 -53 99 -1 0 -9 -6 -18
-13z"/>
<path d="M638 868 c-5 -410 -7 -428 -69 -521 -28 -42 -103 -112 -153 -142 -16
-9 -16 -13 0 -58 18 -53 27 -56 87 -26 104 53 217 214 237 336 6 32 10 221 10
421 l0 362 -54 0 -54 0 -4 -372z"/>
<path d="M74 1013 c3 -21 6 -50 6 -65 l0 -28 120 0 c66 0 120 -3 120 -7 0 -18
-54 -183 -60 -183 -3 0 -16 18 -29 40 -12 22 -25 40 -28 40 -17 0 -103 -55
-100 -64 18 -46 180 -432 183 -438 3 -5 78 30 102 48 2 1 -14 51 -36 110 l-39
107 43 91 c63 133 90 246 85 354 l-1 32 -186 0 -187 0 7 -37z"/>
<path d="M748 353 l-37 -38 75 -100 c41 -55 80 -101 87 -103 7 -1 30 13 51 31
l40 34 -28 46 c-36 63 -124 167 -139 167 -7 0 -29 -17 -49 -37z"/>
</g>
  </g>
  <!-- 学 -->
  <g transform="translate(500,600) scale(1.052632,1.041667)">
    <g transform="translate(0.000000,192.000000) scale(0.100000,-0.100000)"
fill="#000000" stroke="none">
<path d="M636 1613 c-26 -87 -56 -177 -66 -200 l-19 -43 -133 -2 c-73 -1 -173
-1 -222 1 -49 1 -100 0 -113 -4 l-24 -6 3 -167 3 -167 72 -3 73 -3 0 96 0 95
285 0 285 0 0 -90 0 -90 70 0 70 0 0 175 0 175 -105 0 c-58 0 -105 2 -105 4 0
3 27 81 59 174 l59 169 -67 21 c-37 12 -70 22 -72 22 -3 0 -27 -71 -53 -157z"/>
<path d="M410 1735 c-96 -25 -94 -18 -41 -159 26 -69 50 -128 53 -131 5 -5
125 22 136 31 5 3 -89 256 -97 265 -3 3 -26 1 -51 -6z"/>
<path d="M128 1702 c-27 -8 -48 -21 -48 -28 0 -11 89 -263 96 -273 2 -2 34 8
71 22 43 16 67 30 65 39 -2 7 -27 68 -55 136 -35 84 -56 122 -66 121 -9 0 -37
-8 -63 -17z"/>
<path d="M264 1051 c-2 -2 -4 -35 -4 -73 l0 -68 150 0 c83 0 150 -4 150 -8 0
-5 -27 -37 -60 -71 -57 -59 -60 -66 -60 -112 l0 -49 -195 0 -195 0 0 -80 0
-80 189 0 c172 0 190 -2 195 -17 2 -10 8 -77 11 -148 l7 -131 -26 -12 c-15 -7
-42 -12 -61 -12 -19 0 -35 -1 -35 -2 0 -2 11 -37 24 -78 l23 -75 49 1 c64 2
129 35 150 76 15 29 16 56 10 220 l-6 188 185 0 186 0 -3 71 -3 71 -180 1
-180 2 -3 24 c-3 17 9 37 46 75 27 28 64 71 81 95 28 40 31 51 31 123 l0 80
-236 -3 c-129 -2 -237 -5 -240 -8z"/>
</g>
  </g>
  <!-- 警 -->
  <g transform="translate(600,600) scale(1.020408,1.123596)">
    <g transform="translate(0.000000,178.000000) scale(0.100000,-0.100000)"
fill="#000000" stroke="none">
<path d="M206 1732 c-3 -3 -6 -27 -6 -54 l0 -48 -65 0 -65 0 0 -75 0 -75 60 0
c57 0 60 -1 60 -25 0 -31 -59 -152 -108 -220 l-35 -49 34 -62 c29 -55 35 -60
46 -46 10 14 12 5 13 -55 l0 -73 125 0 125 0 1 38 1 37 11 -35 c6 -19 17 -39
24 -43 7 -4 13 -19 13 -32 l0 -25 -185 0 -185 0 0 -70 0 -70 430 0 430 0 0 69
0 68 -162 1 c-90 1 -171 2 -180 2 -13 0 -18 8 -18 29 0 46 -17 81 -40 81 -17
0 -19 5 -13 33 3 17 7 34 9 36 1 1 20 -32 41 -74 l39 -77 56 54 56 53 72 -52
c40 -29 75 -53 79 -53 6 0 40 97 66 187 5 19 0 23 -47 37 -82 24 -83 26 -64
82 8 27 22 76 29 109 12 54 16 60 40 63 27 3 27 4 27 88 l0 84 -111 0 -111 0
7 33 c16 68 13 79 -35 108 -25 15 -50 28 -56 28 -6 1 -25 -74 -44 -169 l-33
-170 -118 0 c-106 0 -118 2 -117 18 0 9 -1 24 -3 32 -3 10 5 16 24 18 23 3 27
0 27 -22 0 -24 3 -26 44 -26 41 0 45 2 48 28 3 25 7 27 53 32 l50 5 0 70 0 70
-50 1 -50 1 3 52 3 51 -35 2 c-20 0 -42 1 -48 2 -9 1 -15 -19 -18 -54 -4 -48
-8 -55 -27 -58 -25 -4 -26 0 -23 61 1 23 -3 39 -12 42 -25 8 -77 13 -82 7z
m534 -333 c0 -22 -23 -89 -30 -89 -8 0 -40 73 -40 90 0 6 16 10 35 10 19 0 35
-5 35 -11z m-322 -201 c-2 -46 -7 -73 -15 -76 -10 -3 -13 13 -13 57 l0 61 -80
0 c-66 0 -78 2 -74 15 5 12 25 15 96 15 l89 0 -3 -72z m206 0 l15 -36 -55 -42
c-30 -24 -56 -41 -57 -39 -2 2 -1 36 2 74 l6 70 19 -35 19 -35 15 43 c16 49
16 49 36 0z m-324 -93 c0 -21 -5 -25 -30 -25 -25 0 -30 4 -30 25 0 21 5 25 30
25 25 0 30 -4 30 -25z"/>
<path d="M200 645 l0 -55 289 0 c267 0 290 1 295 18 3 9 4 26 1 37 -2 11 -4
28 -4 38 -1 16 -22 17 -291 17 l-290 0 0 -55z"/>
<path d="M200 485 l0 -55 295 0 295 0 0 55 0 55 -295 0 -295 0 0 -55z"/>
<path d="M197 373 c-4 -3 -7 -89 -7 -190 l0 -183 60 0 60 0 0 35 0 35 185 0
185 0 0 -35 0 -35 60 0 60 0 -2 188 -3 187 -296 3 c-162 1 -298 -1 -302 -5z
m483 -153 l0 -30 -185 0 -185 0 0 30 0 30 185 0 185 0 0 -30z"/>
</g>
  </g>
  <!-- 挂 -->
  <g transform="translate(700,600) scale(0.675676,0.892857)">
    <g transform="translate(0.000000,224.000000) scale(0.100000,-0.100000)"
fill="#000000" stroke="none">
<path d="M925 2192 c-3 -3 -5 -56 -5 -119 l0 -113 -110 0 -110 0 0 -120 0
-120 110 0 110 0 0 -150 0 -150 -126 0 -127 0 7 -37 c3 -21 6 -75 6 -120 l0
-83 370 0 370 0 0 125 0 125 -119 0 -120 0 -3 140 -3 140 108 0 107 0 1 83 c1
45 3 99 5 120 l3 37 -92 1 c-51 1 -100 2 -109 2 -20 0 -20 -1 -18 135 1 68 -2
93 -12 97 -20 7 -236 13 -243 7z"/>
<path d="M217 1950 l3 -240 -86 0 -87 0 6 -82 c4 -46 7 -100 7 -120 l0 -38 80
0 79 0 3 -152 c2 -84 2 -176 0 -204 l-3 -50 -72 -23 c-40 -13 -75 -28 -78 -32
-9 -15 25 -232 37 -236 6 -2 35 5 63 17 28 11 54 20 56 20 3 0 5 -119 5 -265
0 -263 0 -265 -22 -279 -13 -8 -44 -18 -70 -21 -27 -4 -48 -8 -48 -9 1 0 13
-53 29 -116 l28 -115 95 1 c82 0 102 4 151 27 92 46 89 31 87 405 0 180 -1
334 -2 342 -1 8 0 38 0 66 l2 52 70 17 c60 15 70 20 70 39 0 29 -27 217 -32
221 -2 3 -26 -2 -53 -10 -26 -8 -51 -15 -54 -15 -3 0 -6 72 -6 160 l0 160 78
0 77 0 0 120 0 120 -80 0 -80 0 0 240 0 240 -127 0 -128 0 2 -240z"/>
<path d="M958 1083 l-38 -4 0 -115 0 -114 -104 0 c-74 0 -105 -4 -109 -12 -8
-22 -8 -202 0 -215 6 -8 42 -11 111 -10 l102 2 -2 -170 -3 -170 -138 0 -137 0
0 -117 0 -118 400 0 400 0 0 120 0 120 -135 0 -135 0 0 170 0 170 110 0 110 0
0 115 0 115 -107 0 -108 0 0 117 0 118 -90 1 c-49 1 -107 -1 -127 -3z"/>
</g>
  </g>
</svg>